{
.appVersion = "3414";
.formatVersion = 3;
DisplayStrings = (
"nøn",
"//",
"ª",
"<1^",
"/A.alt1",
"̈̀́̂̃",
"/A.alt1/Aacute.alt1/Acircumflex.alt1/Adieresis.alt1/Agrave.alt1/Atilde.alt1 Á
̈̀́̂̃",
"/E.alt2 ́/Eacute.alt2/Ecircumflex.alt2/E.alt2",
"/E.alt1",
"̀/Egrave.alt1",
"W/W.alt3",
"T/O.alt1 T/A.alt1",
"T/Ocircumflex.alt1",
"Í",
"ø",
"Ø",
"/Ntilde.alt H/N.alt",
"/Oslash.alt1/Oslash.alt2",
"U/U.alt"
);
classes = (
{
code = "A.alt4
Aacute.alt4
Acircumflex.alt4
Atilde.alt4
M.alt4
V.alt2
W.alt2
";
name = Left_Tri;
},
{
code = "A.alt5
Aacute.alt5
Acircumflex.alt5
Atilde.alt5
M.alt5
V.alt
W.alt1";
name = Right_Tri;
},
{
code = "A
Aacute
Acircumflex
Atilde
M
V
W
";
name = Clean_Tri;
}
);
customParameters = (
{
disabled = 1;
name = glyphOrder;
value = (
.notdef,
space,
exclam,
exclamdown,
question,
questiondown,
at,
numbersign,
dollar,
percent,
ampersand,
asterisk,
parenleft,
parenright,
bracketleft,
bracketright,
braceleft,
braceright,
underscore,
hyphen,
plus,
minus,
multiply,
divide,
equal,
notequal,
zero,
one,
two,
three,
four,
five,
six,
seven,
eight,
nine,
A,
Aacute,
Atilde,
Acircumflex,
Adieresis,
Agrave,
A.alt1,
A.alt2,
A.alt2acute,
A.alt2circumflex,
A.alt2dieresis,
A.alt2grave,
A.alt2tilde,
A.alt4,
A.alt4acute,
A.alt4tilde,
A.alt4circumflex,
A.alt5,
A.alt5acute,
A.alt5tilde,
A.alt5circumflex,
A.alt6,
A.alt6acute,
A.alt6tilde,
A.alt6circumflex,
A.alt6dieresis,
A.alt6grave,
a,
aacute,
acircumflex,
adieresis,
agrave,
atilde,
B,
B.alt1,
B.alt2,
b,
C,
Ccedilla,
C.alt1,
C.alt1cedilla,
C.alt2,
C.alt2cedilla,
c,
D,
D.alt1,
D.alt2,
d,
E,
Eacute,
Ecircumflex,
Edieresis,
Egrave,
E.alt1,
E.alt1acute,
E.alt1circumflex,
E.alt2,
E.alt3,
E.alt3acute,
E.alt3circumflex,
E.alt3dieresis,
E.alt3grave,
e,
eacute,
ecircumflex,
edieresis,
egrave,
F,
F.alt,
f,
G,
G.alt1,
G.alt2,
g,
H,
H.alt,
h,
I,
Iacute,
Icircumflex,
Idieresis,
Igrave,
I.altacute,
I.altcircumflex,
I.altdieresis,
I.altgrave,
i,
iacute,
icircumflex,
idieresis,
igrave,
dotlessi,
J,
J.alt,
j,
K,
K.alt1,
K.alt2,
K.alt3,
k,

glyphs = (
{
glyphname = A;
kernLeft = _A_lb;
kernRight = _A_rb;
lastChange = "2025-05-12 16:33:36 +0000";
layers = (
{
layerId = "A0314109-5958-4499-961C-D1BD7DFF39CC";
shapes = (
{
closed = 1;
nodes = (
(160,776,o),
(48,664,o),
(48,526,cs),
(48,62,ls),
(48,28,o),
(76,0,o),
(111,0,cs),
(145,0,o),
(174,28,o),
(174,62,cs),
(174,284,l),
(421,284,l),
(421,62,ls),
(421,28,o),
(449,0,o),
(484,0,cs),
(519,0,o),
(547,28,o),
(547,62,cs),
(547,526,ls),
(547,664,o),
(435,776,o),
(297,776,cs)
);
},
{
closed = 1;
nodes = (
(174,409,l),
(174,526,ls),
(174,594,o),
(229,650,o),
(297,650,cs),
(366,650,o),
(421,594,o),
(421,526,cs),
(421,409,l)
);
}
);
width = 595;
}
);
unicode = 65;
},
{
glyphname = B;
kernRight = _B_rb;
lastChange = "2025-05-12 16:33:36 +0000";
layers = (
{
layerId = "A0314109-5958-4499-961C-D1BD7DFF39CC";
shapes = (
{
closed = 1;
nodes = (
(286,0,ls),
(416,0,o),
(521,105,o),
(521,235,cs),
(521,323,o),
(472,400,o),
(400,440,c),
(421,473,o),
(433,512,o),
(433,553,cs),
(433,669,o),
(339,763,o),
(224,763,cs),
(113,763,ls),
(78,763,o),
(50,735,o),
(50,700,cs),
(50,62,ls),
(50,28,o),
(78,0,o),
(113,0,c)
);
},
{
closed = 1;
nodes = (
(176,637,l),
(224,637,ls),
(270,637,o),
(308,600,o),
(308,553,cs),
(308,507,o),
(270,469,o),
(224,469,cs),
(223,469,o),
(222,469,o),
(222,469,c),
(176,469,l)
);
},
{
closed = 1;
nodes = (
(176,344,l),
(286,344,ls),
(347,344,o),
(396,295,o),
(396,235,cs),
(396,174,o),
(347,125,o),
(286,125,cs),
(176,125,l)
);
}
);
width = 553;
}
);
unicode = 66;
},
{
glyphname = C;
kernLeft = _O;
kernRight = _O;
lastChange = "2025-05-12 16:33:36 +0000";
layers = (
{
guides = (
{
angle = 90;
pos = (318,0);
}
);
layerId = "A0314109-5958-4499-961C-D1BD7DFF39CC";
shapes = (
{
closed = 1;
nodes = (
(430,-12,o),
(542,100,o),
(542,237,cs),
(542,251,o),
(541,265,o),
(538,279,c),
(533,313,o),
(500,336,o),
(466,330,cs),
(432,324,o),
(409,292,o),
(415,258,cs),
(416,251,o),
(416,244,o),
(416,237,cs),
(416,169,o),
(361,113,o),
(293,113,cs),
(224,113,o),
(169,169,o),
(169,237,cs),
(169,527,ls),
(169,595,o),
(224,650,o),
(293,650,cs),
(361,650,o),
(416,595,o),
(416,527,cs),
(416,521,o),
(416,515,o),
(415,508,cs),
(410,474,o),
(433,442,o),
(468,437,cs),
(502,432,o),
(534,455,o),
(539,489,cs),
(541,502,o),
(542,515,o),
(542,527,cs),
(542,664,o),
(430,776,o),
(293,776,cs),
(155,776,o),
(44,664,o),
(44,527,cs),
(44,237,ls),
(44,100,o),
(155,-12,o),
(293,-12,cs)
);
}
);
width = 586;
}
);
unicode = 67;
},
{
glyphname = Ccedilla;
kernLeft = _O;
kernRight = _O;
lastChange = "2025-05-12 16:33:36 +0000";
layers = (
{
guides = (
{
angle = 90;
pos = (307,0);
}
);
layerId = "A0314109-5958-4499-961C-D1BD7DFF39CC";
shapes = (
{
closed = 1;
nodes = (
(262,-146,ls),
(231,-146,o),
(206,-121,o),
(206,-89,cs),
(206,-58,o),
(231,-33,o),
(262,-33,cs),
(322,-33,ls),
(354,-33,o),
(379,-58,o),
(379,-89,cs),
(379,-121,o),
(354,-146,o),
(322,-146,c)
);
},
{
closed = 1;
nodes = (
(430,-12,o),
(542,100,o),
(542,237,cs),
(542,251,o),
(541,265,o),
(538,279,c),
(533,313,o),
(500,336,o),
(466,330,cs),
(432,324,o),
(409,292,o),
(415,258,cs),
(416,251,o),
(416,244,o),
(416,237,cs),
(416,169,o),
(361,113,o),
(293,113,cs),
(224,113,o),
(169,169,o),
(169,237,cs),
(169,527,ls),
(169,595,o),
(224,650,o),
(293,650,cs),
(361,650,o),
(416,595,o),
(416,527,cs),
(416,521,o),
(416,515,o),
(415,508,cs),
(410,474,o),
(433,442,o),
(468,437,cs),
(502,432,o),
(534,455,o),
(539,489,cs),
(541,502,o),
(542,515,o),
(542,527,cs),
(542,664,o),
(430,776,o),
(293,776,cs),
(155,776,o),
(44,664,o),
(44,527,cs),
(44,237,ls),
(44,100,o),
(155,-12,o),
(293,-12,cs)
);
}
);
width = 586;
}
);
unicode = 199;
},
{
glyphname = D;
kernRight = _O.alt2_rb;
lastChange = "2025-05-12 16:33:36 +0000";
layers = (
{
layerId = "A0314109-5958-4499-961C-D1BD7DFF39CC";
shapes = (
{
closed = 1;
nodes = (
(169,0,ls),
(380,0,o),
(551,171,o),
(551,381,cs),
(551,592,o),
(380,763,o),
(169,763,cs),
(112,763,ls),
(78,763,o),
(50,735,o),
(50,700,cs),
(50,62,ls),
(50,28,o),
(78,0,o),
(112,0,c)
);
},
{
closed = 1;
nodes = (
(175,637,l),
(314,634,o),
(426,520,o),
(426,381,cs),
(426,242,o),
(314,128,o),
(175,125,c)
);
}
);
width = 576;
}
);
unicode = 68;
},
{
glyphname = E;
kernLeft = _E_lb;
kernRight = _E_rb;
lastChange = "2025-05-12 16:33:36 +0000";
layers = (
{
layerId = "A0314109-5958-4499-961C-D1BD7DFF39CC";
shapes = (
{
closed = 1;
nodes = (
(411,0,ls),
(446,0,o),
(474,28,o),
(474,62,cs),
(474,97,o),
(446,125,o),
(411,125,cs),
(250,125,ls),
(206,125,o),
(170,161,o),
(170,205,cs),
(170,353,l),
(358,353,ls),
(393,353,o),
(421,381,o),
(421,416,cs),
(421,450,o),
(393,478,o),
(358,478,cs),
(170,478,l),
(170,558,ls),
(170,602,o),
(206,637,o),
(250,637,cs),
(394,637,ls),
(429,637,o),
(457,665,o),
(457,700,cs),
(457,735,o),
(429,763,o),
(394,763,cs),
(250,763,ls),
(137,763,o),
(45,671,o),
(45,558,cs),
(45,205,ls),
(45,92,o),
(137,0,o),
(250,0,c)
);
}
);
width = 499;
}
);
unicode = 69;
},
{
glyphname = F;
kernLeft = _E_lb;
kernRight = _F_rb;
lastChange = "2025-05-12 16:33:36 +0000";
layers = (
{
layerId = "A0314109-5958-4499-961C-D1BD7DFF39CC";
shapes = (
{
closed = 1;
nodes = (
(48,63,l),
(48,28,o),
(76,0,o),
(111,0,cs),
(145,0,o),
(174,28,o),
(174,63,cs),
(174,353,l),
(361,353,ls),
(396,353,o),
(424,381,o),
(424,416,cs),
(424,450,o),
(396,479,o),
(361,479,cs),
(174,479,l),
(174,558,ls),
(174,602,o),
(209,637,o),
(253,637,cs),
(397,637,ls),
(432,637,o),
(460,665,o),
(460,700,cs),
(460,735,o),
(432,763,o),
(397,763,cs),
(253,763,ls),
(140,763,o),
(48,671,o),
(48,558,cs)
);
}
);
width = 480;
}
);
unicode = 70;
},
{
glyphname = G;
kernLeft = _O;
kernRight = _O;
lastChange = "2025-05-12 16:33:36 +0000";
layers = (
{
layerId = "A0314109-5958-4499-961C-D1BD7DFF39CC";
shapes = (
{
closed = 1;
nodes = (
(318,443,ls),
(284,443,o),
(255,415,o),
(255,381,cs),
(255,346,o),
(284,318,o),
(318,318,cs),
(417,318,l),
(417,236,ls),
(417,168,o),
(362,112,o),
(294,112,cs),
(225,112,o),
(170,168,o),
(170,236,cs),
(170,525,ls),
(170,594,o),
(225,649,o),
(294,649,cs),
(347,649,o),
(394,616,o),
(411,566,cs),
(422,533,o),
(458,515,o),
(491,526,c),
(523,538,o),
(541,573,o),
(530,606,cs),
(495,707,o),
(400,775,o),
(294,775,cs),
(156,775,o),
(44,663,o),
(44,525,cs),
(44,236,ls),
(44,99,o),
(156,-13,o),
(294,-13,cs),
(431,-13,o),
(543,99,o),
(543,236,cs),
(543,381,ls),
(543,415,o),
(515,443,o),
(480,443,c)
);
}
);
width = 583;
}
);
unicode = 71;
},
{
glyphname = H;
lastChange = "2025-05-12 16:33:36 +0000";
layers = (
{
layerId = "A0314109-5958-4499-961C-D1BD7DFF39CC";
shapes = (
{
closed = 1;
nodes = (
(424,763,o),
(396,735,o),
(396,700,cs),
(396,479,l),
(176,479,l),
(176,700,ls),
(176,735,o),
(148,763,o),
(113,763,cs),
(78,763,o),
(50,735,o),
(50,700,cs),
(50,63,ls),
(50,28,o),
(78,0,o),
(113,0,cs),
(148,0,o),
(176,28,o),
(176,63,cs),
(176,353,l),
(396,353,l),
(396,63,ls),
(396,28,o),
(424,0,o),
(459,0,cs),
(493,0,o),
(521,28,o),
(521,63,cs),
(521,700,ls),
(521,735,o),
(493,763,o),
(459,763,cs)
);
}
);
width = 571;
}
);
unicode = 72;
},
{
glyphname = I;
lastChange = "2025-05-12 16:33:36 +0000";
layers = (
{
layerId = "A0314109-5958-4499-961C-D1BD7DFF39CC";
shapes = (
{
closed = 1;
nodes = (
(176,700,ls),
(176,735,o),
(147,763,o),
(113,763,cs),
(78,763,o),
(50,735,o),
(50,700,cs),
(50,63,ls),
(50,28,o),
(78,0,o),
(113,0,cs),
(147,0,o),
(176,28,o),
(176,63,c)
);
}
);
width = 226;
}
);
unicode = 73;
},
{
glyphname = J;
kernLeft = _J_lb;
kernRight = _U_rb;
lastChange = "2025-05-12 16:33:36 +0000";
layers = (
{
layerId = "A0314109-5958-4499-961C-D1BD7DFF39CC";
shapes = (
{
closed = 1;
nodes = (
(422,762,o),
(394,734,o),
(394,699,cs),
(394,236,ls),
(394,168,o),
(338,112,o),
(270,112,cs),
(201,112,o),
(146,168,o),
(146,236,cs),
(146,247,o),
(147,258,o),
(150,269,cs),
(159,302,o),
(140,337,o),
(106,346,cs),
(73,355,o),
(38,335,o),
(29,302,cs),
(23,281,o),
(20,258,o),
(20,236,cs),
(20,99,o),
(132,-13,o),
(270,-13,cs),
(407,-13,o),
(519,99,o),
(519,236,cs),
(519,699,ls),
(519,734,o),
(491,762,o),
(456,762,cs)
);
}
);
width = 567;
}
);
unicode = 74;
},
{
glyphname = K;
lastChange = "2025-05-12 16:33:36 +0000";
layers = (
{
layerId = "A0314109-5958-4499-961C-D1BD7DFF39CC";
shapes = (
{
closed = 1;
nodes = (
(50,63,ls),
(50,28,o),
(78,0,o),
(113,0,cs),
(148,0,o),
(176,28,o),
(176,63,cs),
(176,334,l),
(255,334,ls),
(323,334,o),
(379,278,o),
(379,210,cs),
(379,63,ls),
(379,28,o),
(407,0,o),
(441,0,cs),
(476,0,o),
(504,28,o),
(504,63,cs),
(504,210,ls),
(504,324,o),
(428,420,o),
(324,450,c),
(477,663,ls),
(498,692,o),
(491,731,o),
(463,751,cs),
(435,771,o),
(396,765,o),
(375,737,c),
(176,459,l),
(176,459,o),
(176,459,o),
(176,459,c),
(176,459,l),
(176,700,ls),
(176,735,o),
(148,763,o),
(113,763,cs),
(78,763,o),
(50,735,o),
(50,700,c)
);
}
);
width = 539;
}
);
unicode = 75;
},
{
glyphname = L;
lastChange = "2025-05-12 16:33:36 +0000";
layers = (
{
layerId = "A0314109-5958-4499-961C-D1BD7DFF39CC";
shapes = (
{
closed = 1;
nodes = (
(50,63,l),
(50,28,o),
(78,0,o),
(113,0,cs),
(419,0,ls),
(454,0,o),
(482,28,o),
(482,63,cs),
(482,97,o),
(454,125,o),
(419,125,cs),
(176,125,l),
(176,700,ls),
(176,735,o),
(148,763,o),
(113,763,cs),
(78,763,o),
(50,735,o),
(50,700,cs)
);
}
);
width = 497;
}
);
unicode = 76;
},
{
glyphname = M;
kernLeft = _M;
kernRight = _M;
lastChange = "2025-05-12 16:33:36 +0000";
layers = (
{
layerId = "A0314109-5958-4499-961C-D1BD7DFF39CC";
shapes = (
{
closed = 1;
nodes = (
(650,708,l),
(647,736,o),
(624,758,o),
(596,761,cs),
(568,765,o),
(541,749,o),
(530,723,cs),
(382,362,l),
(234,723,ls),
(224,749,o),
(197,765,o),
(168,761,cs),
(140,758,o),
(118,736,o),
(114,708,cs),
(26,70,l),
(22,36,o),
(46,4,o),
(80,-1,cs),
(114,-5,o),
(146,19,o),
(151,53,cs),
(207,459,l),
(324,172,ls),
(334,149,o),
(357,133,o),
(382,133,cs),
(408,133,o),
(431,149,o),
(440,172,cs),
(558,459,l),
(614,53,ls),
(618,21,o),
(645,-1,o),
(676,-1,cs),
(679,-1,o),
(682,-1,o),
(685,-1,c),
(719,4,o),
(743,36,o),
(738,70,c)
);
}
);
width = 764;
}
);
unicode = 77;
},
{
glyphname = N;
lastChange = "2025-05-12 16:33:36 +0000";
layers = (
{
layerId = "A0314109-5958-4499-961C-D1BD7DFF39CC";
shapes = (
{
closed = 1;
nodes = (
(460,763,o),
(432,735,o),
(432,700,cs),
(432,290,l),
(167,732,ls),
(152,757,o),
(123,768,o),
(96,761,cs),
(69,753,o),
(50,728,o),
(50,700,cs),
(50,63,ls),
(50,28,o),
(78,0,o),
(113,0,cs),
(148,0,o),
(176,28,o),
(176,63,cs),
(176,473,l),
(441,30,ls),
(452,11,o),
(473,0,o),
(495,0,cs),
(500,0,o),
(506,0,o),
(511,2,cs),
(539,10,o),
(557,34,o),
(557,63,cs),
(557,700,ls),
(557,735,o),
(529,763,o),
(495,763,cs)
);
}
);
width = 607;
}
);
unicode = 78;
},
{
glyphname = O;
kernLeft = _O;
kernRight = _O;
lastChange = "2025-05-12 16:33:36 +0000";
layers = (
{
layerId = "A0314109-5958-4499-961C-D1BD7DFF39CC";
shapes = (
{
closed = 1;
nodes = (
(156,776,o),
(44,664,o),
(44,526,cs),
(44,236,ls),
(44,99,o),
(156,-13,o),
(294,-13,cs),
(431,-13,o),
(543,99,o),
(543,236,cs),
(543,526,ls),
(543,664,o),
(431,776,o),
(294,776,cs)
);
},
{
closed = 1;
nodes = (
(417,236,l),
(417,168,o),
(362,112,o),
(294,112,cs),
(225,112,o),
(170,168,o),
(170,236,cs),
(170,526,ls),
(170,594,o),
(225,650,o),
(294,650,cs),
(362,650,o),
(417,594,o),
(417,526,cs)
);
}
);
width = 587;
}
);
unicode = 79;
},
{
glyphname = Oslash;
kernLeft = _O;
kernRight = _O;
lastChange = "2025-05-12 21:39:26 +0000";
layers = (
{
associatedMasterId = "A0314109-5958-4499-961C-D1BD7DFF39CC";
layerId = "CBBA6767-88C8-4E58-9307-4A223333FA36";
name = img;
width = 659;
},
{
layerId = "A0314109-5958-4499-961C-D1BD7DFF39CC";
shapes = (
{
closed = 1;
nodes = (
(587,770,o),
(548,765,o),
(526,738,c),
(505,710,l),
(460,754,o),
(398,782,o),
(330,782,cs),
(192,782,o),
(80,670,o),
(80,532,cs),
(80,229,ls),
(80,207,o),
(83,186,o),
(88,166,c),
(33,94,ls),
(12,66,o),
(17,27,o),
(45,6,cs),
(56,-3,o),
(70,-7,o),
(83,-7,cs),
(102,-7,o),
(120,1,o),
(133,18,cs),
(157,49,l),
(202,6,o),
(263,-20,o),
(330,-20,cs),
(467,-20,o),
(579,92,o),
(579,229,cs),
(579,532,ls),
(579,553,o),
(577,572,o),
(572,591,c),
(626,661,ls),
(647,689,o),
(642,728,o),
(614,749,cs)
);
},
{
closed = 1;
nodes = (
(206,532,ls),
(206,601,o),
(261,656,o),
(330,656,cs),
(369,656,o),
(405,638,o),
(427,608,c),
(206,319,l)
);
},
{
closed = 1;
nodes = (
(453,229,l),
(453,161,o),
(398,105,o),
(330,105,cs),
(291,105,o),
(257,123,o),
(234,150,c),
(453,436,l)
);
}
);
width = 659;
}
);
unicode = 216;
},
{
glyphname = P;
kernRight = _P_rb;
lastChange = "2025-05-12 16:33:36 +0000";
layers = (
{
layerId = "A0314109-5958-4499-961C-D1BD7DFF39CC";
shapes = (
{
closed = 1;
nodes = (
(176,275,l),
(237,275,ls),
(372,275,o),
(481,384,o),
(481,519,cs),
(481,653,o),
(372,763,o),
(237,763,cs),
(113,763,ls),
(78,763,o),
(50,735,o),
(50,700,cs),
(50,63,ls),
(50,28,o),
(78,0,o),
(113,0,cs),
(148,0,o),
(176,28,o),
(176,63,c)
);
},
{
closed = 1;
nodes = (
(176,637,l),
(237,637,ls),
(302,637,o),
(356,584,o),
(356,519,cs),
(356,454,o),
(302,400,o),
(237,400,cs),
(176,400,l)
);
}
);
width = 506;
}
);
unicode = 80;
},
{
glyphname = Q;
kernLeft = _O;
kernRight = _O;
lastChange = "2025-05-12 16:33:36 +0000";
layers = (
{
layerId = "A0314109-5958-4499-961C-D1BD7DFF39CC";
shapes = (
{
closed = 1;
nodes = (
(524,140,l),
(536,170,o),
(543,203,o),
(543,237,cs),
(543,526,ls),
(543,664,o),
(431,776,o),
(293,776,cs),
(156,776,o),
(44,664,o),
(44,526,cs),
(44,237,ls),
(44,99,o),
(156,-13,o),
(293,-13,cs),
(351,-13,o),
(404,7,o),
(446,40,c),
(479,7,ls),
(491,-5,o),
(507,-11,o),
(523,-11,cs),
(539,-11,o),
(555,-5,o),
(568,7,c),
(592,32,o),
(592,72,o),
(568,96,cs)
);
},
{
closed = 1;
nodes = (
(225,113,o),
(170,168,o),
(170,237,cs),
(170,526,ls),
(170,594,o),
(225,650,o),
(293,650,cs),
(362,650,o),
(417,594,o),
(417,526,cs),
(417,244,l),
(393,258,o),
(361,255,o),
(341,235,cs),
(316,210,o),
(316,170,o),
(341,146,c),
(356,130,l),
(338,119,o),
(316,113,o),
(293,113,cs)
);
}
);
width = 596;
}
);
unicode = 81;
},
{
glyphname = R;
kernRight = _R_rb;
lastChange = "2025-05-12 16:33:36 +0000";
layers = (
{
layerId = "A0314109-5958-4499-961C-D1BD7DFF39CC";
shapes = (
{
closed = 1;
nodes = (
(378,311,l),
(447,354,o),
(494,431,o),
(494,519,cs),
(494,653,o),
(384,763,o),
(250,763,cs),
(113,763,ls),
(78,763,o),
(50,735,o),
(50,700,cs),
(50,62,ls),
(50,28,o),
(78,0,o),
(113,0,cs),
(148,0,o),
(176,28,o),
(176,62,cs),
(176,275,l),
(250,275,l),
(251,275,o),
(252,275,o),
(253,275,c),
(401,30,ls),
(413,10,o),
(434,0,o),
(455,0,cs),
(466,0,o),
(478,3,o),
(488,9,cs),
(517,27,o),
(527,65,o),
(509,95,c)
);
},
{
closed = 1;
nodes = (
(176,637,l),
(250,637,ls),
(315,637,o),
(368,584,o),
(368,519,cs),
(368,453,o),
(315,400,o),
(250,400,cs),
(176,400,l)
);
}
);
width = 549;
}
);
unicode = 82;
},
{
glyphname = S;
kernLeft = _E_lb;
kernRight = _S_rb;
lastChange = "2025-05-12 16:33:36 +0000";
layers = (
{
layerId = "A0314109-5958-4499-961C-D1BD7DFF39CC";
shapes = (
{
closed = 1;
nodes = (
(203,482,o),
(161,510,o),
(161,558,cs),
(161,602,o),
(197,637,o),
(240,637,cs),
(359,637,ls),
(393,637,o),
(421,665,o),
(421,700,cs),
(421,735,o),
(393,763,o),
(359,763,cs),
(240,763,ls),
(127,763,o),
(35,671,o),
(35,558,cs),
(35,450,o),
(122,362,o),
(236,353,cs),
(293,349,o),
(354,307,o),
(354,239,cs),
(354,176,o),
(303,125,o),
(240,125,cs),
(118,125,ls),
(83,125,o),
(55,97,o),
(55,63,cs),
(55,28,o),
(83,0,o),
(118,0,cs),
(240,0,ls),
(372,0,o),
(480,107,o),
(480,239,cs),
(480,365,o),
(379,468,o),
(245,478,c)
);
}
);
width = 515;
}
);
unicode = 83;
},
{
glyphname = T;
kernLeft = _T_lb;
kernRight = _T_rb;
lastChange = "2025-05-12 16:33:36 +0000";
layers = (
{
layerId = "A0314109-5958-4499-961C-D1BD7DFF39CC";
shapes = (
{
closed = 1;
nodes = (
(78,762,ls),
(44,762,o),
(15,734,o),
(15,699,cs),
(15,665,o),
(44,637,o),
(78,637,cs),
(196,637,l),
(196,62,ls),
(196,27,o),
(224,-1,o),
(259,-1,cs),
(294,-1,o),
(322,27,o),
(322,62,cs),
(322,637,l),
(440,637,ls),
(474,637,o),
(503,665,o),
(503,699,cs),
(503,734,o),
(474,762,o),
(440,762,c)
);
}
);
width = 518;
}
);
unicode = 84;
},
{
glyphname = U;
kernLeft = _U_lb;
kernRight = _U_rb;
lastChange = "2025-05-12 16:33:36 +0000";
layers = (
{
layerId = "A0314109-5958-4499-961C-D1BD7DFF39CC";
shapes = (
{
closed = 1;
nodes = (
(450,762,o),
(422,734,o),
(422,699,cs),
(422,236,ls),
(422,168,o),
(366,112,o),
(298,112,cs),
(229,112,o),
(174,168,o),
(174,236,cs),
(174,699,ls),
(174,734,o),
(146,762,o),
(111,762,cs),
(76,762,o),
(48,734,o),
(48,699,cs),
(48,236,ls),
(48,99,o),
(160,-13,o),
(298,-13,cs),
(435,-13,o),
(547,99,o),
(547,236,cs),
(547,699,ls),
(547,734,o),
(519,762,o),
(484,762,cs)
);
}
);
width = 595;
}
);
unicode = 85;
},
{
glyphname = V;
lastChange = "2025-05-12 16:33:36 +0000";
layers = (
{
layerId = "A0314109-5958-4499-961C-D1BD7DFF39CC";
shapes = (
{
closed = 1;
nodes = (
(317,1,o),
(341,18,o),
(349,44,cs),
(555,682,ls),
(566,715,o),
(548,750,o),
(515,761,cs),
(482,771,o),
(446,753,o),
(436,720,c),
(289,268,l),
(143,720,ls),
(133,753,o),
(97,771,o),
(64,761,cs),
(31,750,o),
(13,715,o),
(24,682,cs),
(230,44,ls),
(238,18,o),
(262,1,o),
(289,1,cs)
);
}
);
width = 579;
}
);
unicode = 86;
},
{
glyphname = W;
kernLeft = _W_lb;
kernRight = _W_rb;
lastChange = "2025-05-12 16:33:36 +0000";
layers = (
{
layerId = "A0314109-5958-4499-961C-D1BD7DFF39CC";
shapes = (
{
closed = 1;
nodes = (
(114,54,l),
(117,26,o),
(140,4,o),
(168,0,c),
(197,-3,o),
(224,13,o),
(234,39,cs),
(382,413,l),
(529,39,ls),
(539,15,o),
(562,0,o),
(588,0,cs),
(590,0,o),
(593,0,o),
(595,0,c),
(623,4,o),
(646,26,o),
(650,54,cs),
(738,692,l),
(742,726,o),
(718,758,o),
(684,762,cs),
(650,767,o),
(618,743,o),
(613,709,cs),
(558,308,l),
(440,607,ls),
(431,631,o),
(407,647,o),
(382,647,cs),
(356,647,o),
(333,631,o),
(323,607,cs),
(205,308,l),
(150,709,ls),
(145,743,o),
(114,767,o),
(79,762,cs),
(45,758,o),
(21,726,o),
(26,692,cs)
);
}
);
width = 764;
}
);
unicode = 87;
},
{
glyphname = X;
lastChange = "2025-05-12 16:33:36 +0000";
layers = (
{
layerId = "A0314109-5958-4499-961C-D1BD7DFF39CC";
shapes = (
{
closed = 1;
nodes = (
(353,386,l),
(525,668,ls),
(543,697,o),
(534,736,o),
(504,754,cs),
(474,772,o),
(436,763,o),
(418,733,cs),
(280,507,l),
(142,733,ls),
(124,763,o),
(86,772,o),
(56,754,cs),
(27,736,o),
(17,697,o),
(35,668,cs),
(206,386,l),
(30,96,ls),
(12,66,o),
(21,27,o),
(51,9,cs),
(61,3,o),
(72,0,o),
(83,0,cs),
(104,0,o),
(125,11,o),
(137,30,cs),
(280,265,l),
(422,30,ls),
(434,11,o),
(454,0,o),
(476,0,cs),
(487,0,o),
(498,3,o),
(508,9,cs),
(538,27,o),
(547,66,o),
(529,96,c)
);
}
);
width = 559;
}
);
unicode = 88;
},
{
glyphname = Y;
lastChange = "2025-05-12 16:33:36 +0000";
layers = (
{
layerId = "A0314109-5958-4499-961C-D1BD7DFF39CC";
shapes = (
{
closed = 1;
nodes = (
(437,763,o),
(409,735,o),
(409,700,cs),
(409,571,ls),
(409,502,o),
(353,447,o),
(285,447,cs),
(216,447,o),
(161,502,o),
(161,571,cs),
(161,700,ls),
(161,735,o),
(133,763,o),
(98,763,cs),
(63,763,o),
(35,735,o),
(35,700,cs),
(35,571,ls),
(35,454,o),
(116,356,o),
(224,329,c),
(224,63,ls),
(224,28,o),
(252,0,o),
(286,0,cs),
(321,0,o),
(349,28,o),
(349,63,cs),
(349,330,l),
(456,358,o),
(534,455,o),
(534,571,cs),
(534,700,ls),
(534,735,o),
(506,763,o),
(471,763,cs)
);
}
);
width = 569;
}
);
unicode = 89;
},
{
glyphname = Z;
lastChange = "2025-05-12 16:33:36 +0000";
layers = (
{
layerId = "A0314109-5958-4499-961C-D1BD7DFF39CC";
shapes = (
{
closed = 1;
nodes = (
(199,125,l),
(495,670,l),
(505,690,o),
(505,713,o),
(494,732,cs),
(482,751,o),
(462,763,o),
(440,763,cs),
(116,763,ls),
(81,763,o),
(53,735,o),
(53,700,cs),
(53,665,o),
(81,637,o),
(116,637,cs),
(334,637,l),
(38,92,l),
(27,73,o),
(28,49,o),
(39,30,cs),
(50,11,o),
(71,0,o),
(93,0,cs),
(456,0,ls),
(491,0,o),
(519,28,o),
(519,63,cs),
(519,97,o),
(491,125,o),
(456,125,c)
);
}
);
width = 549;
}
);
unicode = 90;
},
{
color = 10;
glyphname = F.alt;
kernLeft = _E.alt2_lb;
kernRight = _F_rb;
lastChange = "2025-05-12 21:41:33 +0000";
layers = (
{
layerId = "A0314109-5958-4499-961C-D1BD7DFF39CC";
shapes = (
{
closed = 1;
nodes = (
(113,763,ls),
(78,763,o),
(50,735,o),
(50,700,cs),
(50,63,ls),
(50,28,o),
(78,0,o),
(113,0,cs),
(147,0,o),
(175,28,o),
(175,63,cs),
(175,353,l),
(363,353,ls),
(398,353,o),
(426,381,o),
(426,416,cs),
(426,450,o),
(398,479,o),
(363,479,cs),
(175,479,l),
(175,637,l),
(399,637,ls),
(434,637,o),
(462,665,o),
(462,700,cs),
(462,735,o),
(434,763,o),
(399,763,c)
);
}
);
width = 488;
}
);
},
{
color = 9;
glyphname = H.alt;
lastChange = "2025-05-12 21:30:46 +0000";
layers = (
{
layerId = "A0314109-5958-4499-961C-D1BD7DFF39CC";
shapes = (
{
closed = 1;
nodes = (
(50,63,l),
(50,28,o),
(78,0,o),
(113,0,cs),
(147,0,o),
(175,28,o),
(175,63,cs),
(175,353,l),
(370,353,l),
(370,63,ls),
(370,28,o),
(398,0,o),
(433,0,cs),
(468,0,o),
(496,28,o),
(496,63,cs),
(496,700,ls),
(496,735,o),
(468,763,o),
(433,763,cs),
(398,763,o),
(370,735,o),
(370,700,cs),
(370,479,l),
(175,479,l),
(175,700,ls),
(175,735,o),
(147,763,o),
(113,763,cs),
(78,763,o),
(50,735,o),
(50,700,cs)
);
}
);
width = 546;
}
);
},
{
color = 10;
glyphname = J.alt;
kernLeft = _J_lb;
kernRight = _U_rb;
lastChange = "2025-05-12 21:25:34 +0000";
layers = (
{
layerId = "A0314109-5958-4499-961C-D1BD7DFF39CC";
shapes = (
{
closed = 1;
nodes = (
(80,349,o),
(46,329,o),
(37,296,cs),
(31,274,o),
(28,252,o),
(28,230,cs),
(28,92,o),
(140,-20,o),
(277,-20,cs),
(415,-20,o),
(527,92,o),
(527,230,cs),
(527,700,ls),
(527,735,o),
(499,763,o),
(464,763,cs),
(294,763,ls),
(260,763,o),
(232,735,o),
(232,700,cs),
(232,665,o),
(260,637,o),
(294,637,cs),
(401,637,l),
(401,230,ls),
(401,161,o),
(346,106,o),
(277,106,cs),
(209,106,o),
(153,161,o),
(153,230,cs),
(153,241,o),
(155,252,o),
(158,262,cs),
(167,296,o),
(147,330,o),
(114,340,c)
);
}
);
width = 575;
}
);
},
{
color = 6;
glyphname = L.alt;
kernLeft = _U_lb;
lastChange = "2025-05-12 19:09:21 +0000";
layers = (
{
layerId = "A0314109-5958-4499-961C-D1BD7DFF39CC";
shapes = (
{
closed = 1;
nodes = (
(529,329,o),
(494,349,o),
(461,340,cs),
(427,330,o),
(408,296,o),
(417,262,cs),
(420,252,o),
(421,241,o),
(421,230,cs),
(421,161,o),
(365,106,o),
(297,106,cs),
(229,106,o),
(173,161,o),
(173,230,cs),
(173,700,ls),
(173,735,o),
(145,763,o),
(110,763,cs),
(76,763,o),
(48,735,o),
(48,700,cs),
(48,230,ls),
(48,92,o),
(160,-20,o),
(297,-20,cs),
(435,-20,o),
(547,92,o),
(547,230,cs),
(547,252,o),
(544,274,o),
(538,296,cs)
);
}
);
width = 575;
}
);
},
{
color = 10;
glyphname = N.alt;
lastChange = "2025-05-12 21:40:03 +0000";
layers = (
{
anchors = (
{
name = bottom;
pos = (283,0);
},
{
name = top;
pos = (283,763);
}
);
layerId = "A0314109-5958-4499-961C-D1BD7DFF39CC";
shapes = (
{
closed = 1;
nodes = (
(389,313,l),
(169,729,ls),
(155,754,o),
(126,767,o),
(98,760,cs),
(70,753,o),
(50,728,o),
(50,699,cs),
(50,61,ls),
(50,27,o),
(78,-1,o),
(113,-1,cs),
(148,-1,o),
(176,27,o),
(176,61,cs),
(176,447,l),
(397,32,ls),
(408,11,o),
(429,-1,o),
(452,-1,cs),
(457,-1,o),
(462,-1,o),
(467,1,c),
(495,8,o),
(515,33,o),
(515,61,cs),
(515,699,ls),
(515,734,o),
(487,762,o),
(452,762,cs),
(418,762,o),
(389,734,o),
(389,699,c)
);
}
);
width = 565;
}
);
},
{
color = 10;
glyphname = P.alt;
lastChange = "2025-05-12 21:25:34 +0000";
layers = (
{
layerId = "A0314109-5958-4499-961C-D1BD7DFF39CC";
shapes = (
{
closed = 1;
nodes = (
(112,762,ls),
(78,762,o),
(50,734,o),
(50,699,cs),
(50,62,ls),
(50,27,o),
(78,-1,o),
(112,-1,cs),
(147,-1,o),
(175,27,o),
(175,62,cs),
(175,637,l),
(240,637,ls),
(286,637,o),
(324,599,o),
(324,553,cs),
(324,513,o),
(295,479,o),
(257,471,cs),
(223,464,o),
(200,431,o),
(207,397,cs),
(214,363,o),
(247,341,o),
(281,348,cs),
(378,367,o),
(449,453,o),
(449,553,cs),
(449,668,o),
(355,762,o),
(240,762,c)
);
}
);
width = 477;
}
);
},
{
color = 7;
glyphname = Q.alt;
kernLeft = _O;
kernRight = _O;
lastChange = "2025-05-12 20:21:34 +0000";
layers = (
{
layerId = "A0314109-5958-4499-961C-D1BD7DFF39CC";
shapes = (
{
closed = 1;
nodes = (
(543,524,l),
(543,661,o),
(431,773,o),
(294,773,cs),
(156,773,o),
(44,661,o),
(44,524,cs),
(44,241,ls),
(44,103,o),
(156,-9,o),
(294,-9,cs),
(349,-9,o),
(400,9,o),
(441,40,c),
(479,1,ls),
(491,-11,o),
(507,-17,o),
(524,-17,cs),
(540,-17,o),
(556,-11,o),
(568,1,cs),
(592,26,o),
(592,66,o),
(568,90,cs),
(521,137,l),
(535,169,o),
(543,204,o),
(543,241,cs)
);
},
{
closed = 1;
nodes = (
(170,524,ls),
(170,592,o),
(225,648,o),
(294,648,cs),
(362,648,o),
(417,592,o),
(417,524,cs),
(417,241,ls),
(417,238,o),
(417,234,o),
(417,231,c),
(395,238,o),
(371,233,o),
(353,216,cs),
(330,193,o),
(329,155,o),
(350,131,c),
(333,122,o),
(314,117,o),
(294,117,cs),
(225,117,o),
(170,172,o),
(170,241,c)
);
}
);
width = 596;
}
);
},
{
color = 6;
glyphname = R.alt;
lastChange = "2025-05-12 20:20:42 +0000";
layers = (
{
layerId = "A0314109-5958-4499-961C-D1BD7DFF39CC";
shapes = (
{
closed = 1;
nodes = (
(473,0,o),
(501,28,o),
(501,62,cs),
(501,164,ls),
(501,239,o),
(467,306,o),
(413,350,c),
(455,394,o),
(481,453,o),
(481,519,cs),
(481,653,o),
(371,763,o),
(237,763,cs),
(112,763,ls),
(78,763,o),
(50,735,o),
(50,700,cs),
(50,62,ls),
(50,28,o),
(78,0,o),
(112,0,cs),
(147,0,o),
(175,28,o),
(175,62,cs),
(175,637,l),
(237,637,ls),
(302,637,o),
(355,584,o),
(355,519,cs),
(355,461,o),
(314,411,o),
(258,402,cs),
(226,396,o),
(203,368,o),
(206,336,cs),
(208,304,o),
(234,278,o),
(266,277,cs),
(328,275,o),
(376,225,o),
(376,164,cs),
(376,62,ls),
(376,28,o),
(404,0,o),
(438,0,cs)
);
}
);
width = 537;
}
);
},
{
color = 7;
glyphname = U.alt;
kernLeft = _U_lb;
kernRight = _U_rb;
lastChange = "2025-05-13 14:53:55 +0000";
layers = (
{
layerId = "A0314109-5958-4499-961C-D1BD7DFF39CC";
shapes = (
{
closed = 1;
nodes = (
(610,701,ls),
(610,736,o),
(582,764,o),
(547,764,cs),
(512,764,o),
(484,736,o),
(484,701,cs),
(484,262,ls),
(484,176,o),
(414,107,o),
(329,107,cs),
(243,107,o),
(174,176,o),
(174,262,cs),
(174,701,ls),
(174,736,o),
(146,764,o),
(111,764,cs),
(76,764,o),
(48,736,o),
(48,701,cs),
(48,262,ls),
(48,107,o),
(174,-19,o),
(329,-19,cs),
(484,-19,o),
(610,107,o),
(610,262,c)
);
}
);
width = 658;
}
);
},
{
color = 8;
glyphname = V.alt;
kernRight = _V.alt;
lastChange = "2025-05-12 18:50:42 +0000";
layers = (
{
layerId = "A0314109-5958-4499-961C-D1BD7DFF39CC";
shapes = (
{
closed = 1;
nodes = (
(78,763,o),
(50,735,o),
(50,701,cs),
(50,63,ls),
(50,36,o),
(68,11,o),
(94,3,cs),
(100,1,o),
(106,0,o),
(112,0,cs),
(133,0,o),
(153,10,o),
(164,28,c),
(598,665,ls),
(617,694,o),
(610,733,o),
(581,752,cs),
(552,772,o),
(513,764,o),
(494,736,cs),
(175,267,l),
(175,701,ls),
(175,735,o),
(147,763,o),
(112,763,cs)
);
}
);
width = 629;
}
);
},
{
color = 1;
glyphname = X.alt;
lastChange = "2025-05-12 20:12:09 +0000";
layers = (
{
layerId = "A0314109-5958-4499-961C-D1BD7DFF39CC";
shapes = (
{
closed = 1;
nodes = (
(78,2,o),
(88,0,o),
(98,0,cs),
(120,0,o),
(142,12,o),
(153,32,cs),
(274,253,l),
(394,33,ls),
(405,12,o),
(427,0,o),
(449,0,cs),
(459,0,o),
(469,2,o),
(479,7,cs),
(509,24,o),
(521,62,o),
(504,93,cs),
(345,384,l),
(501,670,ls),
(518,700,o),
(506,738,o),
(476,755,cs),
(446,772,o),
(407,760,o),
(391,730,cs),
(274,516,l),
(157,730,ls),
(141,760,o),
(103,772,o),
(72,755,cs),
(42,739,o),
(31,700,o),
(47,670,cs),
(202,385,l),
(43,93,ls),
(26,62,o),
(38,24,o),
(68,7,cs)
);
}
);
width = 547;
}
);
},
{
color = 6;
glyphname = Y.alt;
kernLeft = _U_lb;
kernRight = _U_rb;
lastChange = "2025-05-12 19:09:42 +0000";
layers = (
{
layerId = "A0314109-5958-4499-961C-D1BD7DFF39CC";
shapes = (
{
closed = 1;
nodes = (
(547,554,l),
(547,700,ls),
(547,735,o),
(519,763,o),
(484,763,cs),
(450,763,o),
(422,735,o),
(422,700,cs),
(422,554,ls),
(422,486,o),
(366,430,o),
(298,430,cs),
(229,430,o),
(174,486,o),
(174,554,cs),
(174,700,ls),
(174,735,o),
(146,763,o),
(111,763,cs),
(76,763,o),
(48,735,o),
(48,700,cs),
(48,554,ls),
(48,417,o),
(160,305,o),
(298,305,cs),
(343,305,o),
(385,317,o),
(422,338,c),
(422,230,ls),
(422,161,o),
(366,106,o),
(298,106,cs),
(229,106,o),
(174,161,o),
(174,230,c),
(174,230,l),
(174,265,o),
(146,294,o),
(112,294,cs),
(77,294,o),
(49,267,o),
(48,232,c),
(48,230,ls),
(48,92,o),
(160,-20,o),
(298,-20,cs),
(435,-20,o),
(547,92,o),
(547,230,c)
);
}
);
width = 595;
}
);
},
{
color = 9;
glyphname = Z.alt;
lastChange = "2025-05-12 21:30:46 +0000";
layers = (
{
layerId = "A0314109-5958-4499-961C-D1BD7DFF39CC";
shapes = (
{
closed = 1;
nodes = (
(428,0,ls),
(463,0,o),
(491,28,o),
(491,63,cs),
(491,97,o),
(463,125,o),
(428,125,cs),
(204,125,l),
(478,672,ls),
(488,691,o),
(486,715,o),
(475,733,cs),
(464,752,o),
(443,763,o),
(422,763,cs),
(127,763,ls),
(92,763,o),
(64,735,o),
(64,700,cs),
(64,665,o),
(92,637,o),
(127,637,cs),
(320,637,l),
(47,91,ls),
(37,71,o),
(38,48,o),
(49,30,cs),
(61,11,o),
(81,0,o),
(103,0,c)
);
}
);
width = 521;
}
);
},
{
color = 2;
glyphname = A.alt1;
kernLeft = _A.alt1;
kernRight = _A.alt1;
lastChange = "2025-05-12 19:06:42 +0000";
layers = (
{
anchors = (
{
name = bottom;
pos = (302,0);
},
{
name = ogonek;
pos = (544,10);
},
{
name = top;
pos = (302,763);
}
);
layerId = "A0314109-5958-4499-961C-D1BD7DFF39CC";
shapes = (
{
closed = 1;
nodes = (
(527,0,o),
(534,2,o),
(541,4,cs),
(573,15,o),
(591,51,o),
(580,84,cs),
(361,721,ls),
(352,746,o),
(329,763,o),
(302,763,cs),
(275,763,o),
(251,746,o),
(242,721,cs),
(24,84,ls),
(17,63,o),
(21,40,o),
(35,23,cs),
(49,6,o),
(71,-2,o),
(92,1,cs),
(352,38,ls),
(386,43,o),
(410,75,o),
(405,110,cs),
(400,144,o),
(368,168,o),
(334,163,cs),
(176,140,l),
(302,507,l),
(461,43,ls),
(470,17,o),
(494,0,o),
(520,0,cs)
);
}
);
width = 604;
}
);
},
{
color = 10;
glyphname = B.alt1;
kernRight = _B_rb;
lastChange = "2025-05-12 20:01:27 +0000";
layers = (
{
layerId = "A0314109-5958-4499-961C-D1BD7DFF39CC";
shapes = (
{
closed = 1;
nodes = (
(285,0,l),
(415,0,o),
(522,106,o),
(522,236,cs),
(522,320,o),
(478,393,o),
(412,435,c),
(436,469,o),
(449,510,o),
(449,554,cs),
(449,669,o),
(355,763,o),
(240,763,cs),
(237,763,o),
(234,763,o),
(231,762,c),
(229,763,o),
(226,763,o),
(223,763,c),
(223,763,o),
(223,763,o),
(223,763,c),
(112,763,ls),
(78,763,o),
(50,735,o),
(50,700,cs),
(50,62,ls),
(50,28,o),
(78,0,o),
(112,0,cs)
);
},
{
closed = 1;
nodes = (
(175,637,l),
(223,637,ls),
(226,637,o),
(229,637,o),
(231,638,c),
(234,637,o),
(237,637,o),
(240,637,cs),
(286,637,o),
(323,600,o),
(323,554,cs),
(323,514,o),
(295,479,o),
(256,472,c),
(225,465,o),
(203,436,o),
(206,404,cs),
(209,372,o),
(236,347,o),
(268,347,cs),
(285,347,ls),
(346,347,o),
(396,297,o),
(396,236,cs),
(396,175,o),
(346,125,o),
(285,125,cs),
(175,125,l)
);
}
);
width = 554;
}
);
},
{
color = 5;
glyphname = C.alt1;
kernLeft = _O.Alt2_lb;
kernRight = _O.alt2_rb;
lastChange = "2025-05-12 19:17:16 +0000";
layers = (
{
layerId = "A0314109-5958-4499-961C-D1BD7DFF39CC";
shapes = (
{
closed = 1;
nodes = (
(610,-20,o),
(763,91,o),
(817,256,cs),
(828,289,o),
(810,324,o),
(777,335,cs),
(744,346,o),
(709,328,o),
(698,295,cs),
(661,182,o),
(555,106,o),
(436,106,cs),
(284,106,o),
(161,229,o),
(161,381,cs),
(161,533,o),
(284,657,o),
(436,657,cs),
(555,657,o),
(660,581,o),
(698,468,cs),
(709,435,o),
(744,417,o),
(777,428,cs),
(810,439,o),
(828,474,o),
(817,507,cs),
(763,672,o),
(610,782,o),
(436,782,cs),
(215,782,o),
(35,602,o),
(35,381,cs),
(35,160,o),
(215,-20,o),
(436,-20,cs)
);
}
);
width = 851;
}
);
},
{
color = 5;
glyphname = Ccedilla.alt1;
kernRight = _O.alt2_rb;
lastChange = "2025-05-12 19:17:16 +0000";
layers = (
{
layerId = "A0314109-5958-4499-961C-D1BD7DFF39CC";
shapes = (
{
closed = 1;
nodes = (
(383,-151,ls),
(352,-151,o),
(327,-126,o),
(327,-94,cs),
(327,-63,o),
(352,-38,o),
(383,-38,cs),
(479,-38,ls),
(510,-38,o),
(535,-63,o),
(535,-94,cs),
(535,-126,o),
(510,-151,o),
(479,-151,c)
);
},
{
closed = 1;
nodes = (
(610,-20,o),
(763,91,o),
(817,256,cs),
(828,289,o),
(810,324,o),
(777,335,cs),
(744,346,o),
(709,328,o),
(698,295,cs),
(661,182,o),
(555,106,o),
(436,106,cs),
(284,106,o),
(161,229,o),
(161,381,cs),
(161,533,o),
(284,657,o),
(436,657,cs),
(555,657,o),
(660,581,o),
(698,468,cs),
(709,435,o),
(744,417,o),
(777,428,cs),
(810,439,o),
(828,474,o),
(817,507,cs),
(763,672,o),
(610,782,o),
(436,782,cs),
(215,782,o),
(35,602,o),
(35,381,cs),
(35,160,o),
(215,-20,o),
(436,-20,cs)
);
}
);
width = 851;
}
);
},
{
color = 10;
glyphname = D.alt1;
kernRight = _O.alt2_rb;
lastChange = "2025-05-12 20:01:27 +0000";
layers = (
{
layerId = "A0314109-5958-4499-961C-D1BD7DFF39CC";
shapes = (
{
closed = 1;
nodes = (
(113,762,ls),
(78,762,o),
(50,734,o),
(50,699,cs),
(50,62,ls),
(50,27,o),
(78,-1,o),
(113,-1,cs),
(148,-1,o),
(176,27,o),
(176,62,cs),
(176,637,l),
(314,634,o),
(426,520,o),
(426,381,cs),
(426,269,o),
(355,171,o),
(249,137,cs),
(216,126,o),
(198,91,o),
(208,58,cs),
(219,25,o),
(254,7,o),
(287,17,c),
(445,69,o),
(552,214,o),
(552,381,cs),
(552,591,o),
(380,762,o),
(170,762,c)
);
}
);
width = 587;
}
);
},
{
color = 10;
glyphname = E.alt1;
kernLeft = _E.alt1_lb;
kernRight = _E.alt1_rb;
lastChange = "2025-05-12 20:01:27 +0000";
layers = (
{
anchors = (
{
name = bottom;
pos = (286,0);
},
{
name = ogonek;
pos = (515,10);
},
{
name = top;
pos = (286,763);
},
{
name = topleft;
pos = (20,763);
}
);
layerId = "A0314109-5958-4499-961C-D1BD7DFF39CC";
shapes = (
{
closed = 1;
nodes = (
(63,351,o),
(39,287,o),
(41,221,cs),
(44,154,o),
(72,93,o),
(120,47,c),
(167,4,o),
(227,-19,o),
(290,-19,cs),
(293,-19,o),
(296,-19,o),
(299,-19,c),
(436,-14,o),
(543,101,o),
(539,238,c),
(537,273,o),
(508,300,o),
(474,299,cs),
(439,297,o),
(412,268,o),
(413,234,cs),
(416,166,o),
(362,109,o),
(294,106,cs),
(261,105,o),
(230,117,o),
(206,139,cs),
(182,162,o),
(168,192,o),
(167,225,cs),
(166,258,o),
(178,289,o),
(200,314,c),
(223,338,o),
(254,352,o),
(287,353,c),
(287,353,o),
(287,353,o),
(287,353,c),
(313,354,o),
(335,371,o),
(344,393,c),
(346,401,o),
(348,409,o),
(348,418,c),
(346,452,o),
(319,478,o),
(286,479,c),
(285,479,o),
(284,479,o),
(283,479,c),
(234,477,o),
(192,515,o),
(190,565,cs),
(189,614,o),
(227,655,o),
(277,657,cs),
(301,658,o),
(323,650,o),
(341,633,cs),
(358,617,o),
(368,595,o),
(369,571,c),
(369,570,o),
(369,569,o),
(369,568,cs),
(369,533,o),
(397,505,o),
(432,505,c),
(466,504,o),
(495,532,o),
(495,567,cs),
(495,570,o),
(495,573,o),
(495,575,c),
(493,633,o),
(468,686,o),
(426,725,cs),
(384,764,o),
(330,785,o),
(272,783,cs),
(154,779,o),
(61,679,o),
(65,560,cs),
(67,504,o),
(90,454,o),
(127,417,c),
(121,411,o),
(115,406,o),
(109,399,cs)
);
}
);
width = 572;
}
);
},
{
color = 10;
glyphname = Eacute.alt1;
kernLeft = _E.alt1_lb;
kernRight = _E.alt1_rb;
lastChange = "2025-05-12 20:01:27 +0000";
layers = (
{
layerId = "A0314109-5958-4499-961C-D1BD7DFF39CC";
shapes = (
{
closed = 1;
nodes = (
(63,351,o),
(39,287,o),
(41,221,cs),
(44,154,o),
(72,93,o),
(120,47,c),
(167,4,o),
(227,-19,o),
(290,-19,cs),
(293,-19,o),
(296,-19,o),
(299,-19,c),
(436,-14,o),
(543,101,o),
(539,238,c),
(537,273,o),
(508,300,o),
(474,299,cs),
(439,297,o),
(412,268,o),
(413,234,cs),
(416,166,o),
(362,109,o),
(294,106,cs),
(261,105,o),
(230,117,o),
(206,139,cs),
(182,162,o),
(168,192,o),
(167,225,cs),
(166,258,o),
(178,289,o),
(200,314,c),
(223,338,o),
(254,352,o),
(287,353,c),
(287,353,o),
(287,353,o),
(287,353,c),
(313,354,o),
(335,371,o),
(344,393,c),
(346,401,o),
(348,409,o),
(348,418,c),
(346,452,o),
(319,478,o),
(286,479,c),
(285,479,o),
(284,479,o),
(283,479,c),
(234,477,o),
(192,515,o),
(190,565,cs),
(189,614,o),
(227,655,o),
(277,657,cs),
(301,658,o),
(323,650,o),
(341,633,cs),
(358,617,o),
(368,595,o),
(369,571,c),
(369,570,o),
(369,569,o),
(369,568,cs),
(369,533,o),
(397,505,o),
(432,505,c),
(466,504,o),
(495,532,o),
(495,567,cs),
(495,570,o),
(495,573,o),
(495,575,c),
(493,633,o),
(468,686,o),
(426,725,cs),
(384,764,o),
(330,785,o),
(272,783,cs),
(154,779,o),
(61,679,o),
(65,560,cs),
(67,504,o),
(90,454,o),
(127,417,c),
(121,411,o),
(115,406,o),
(109,399,cs)
);
},
{
alignment = -1;
pos = (277,0);
ref = acute;
}
);
width = 572;
}
);
},
{
color = 10;
glyphname = Ecircumflex.alt1;
kernLeft = _E.alt1_lb;
kernRight = _E.alt1_rb;
lastChange = "2025-05-12 20:01:27 +0000";
layers = (
{
layerId = "A0314109-5958-4499-961C-D1BD7DFF39CC";
shapes = (
{
closed = 1;
nodes = (
(63,351,o),
(39,287,o),
(41,221,cs),
(44,154,o),
(72,93,o),
(120,47,c),
(167,4,o),
(227,-19,o),
(290,-19,cs),
(293,-19,o),
(296,-19,o),
(299,-19,c),
(436,-14,o),
(543,101,o),
(539,238,c),
(537,273,o),
(508,300,o),
(474,299,cs),
(439,297,o),
(412,268,o),
(413,234,cs),
(416,166,o),
(362,109,o),
(294,106,cs),
(261,105,o),
(230,117,o),
(206,139,cs),
(182,162,o),
(168,192,o),
(167,225,cs),
(166,258,o),
(178,289,o),
(200,314,c),
(223,338,o),
(254,352,o),
(287,353,c),
(287,353,o),
(287,353,o),
(287,353,c),
(313,354,o),
(335,371,o),
(344,393,c),
(346,401,o),
(348,409,o),
(348,418,c),
(346,452,o),
(319,478,o),
(286,479,c),
(285,479,o),
(284,479,o),
(283,479,c),
(234,477,o),
(192,515,o),
(190,565,cs),
(189,614,o),
(227,655,o),
(277,657,cs),
(301,658,o),
(323,650,o),
(341,633,cs),
(358,617,o),
(368,595,o),
(369,571,c),
(369,570,o),
(369,569,o),
(369,568,cs),
(369,533,o),
(397,505,o),
(432,505,c),
(466,504,o),
(495,532,o),
(495,567,cs),
(495,570,o),
(495,573,o),
(495,575,c),
(493,633,o),
(468,686,o),
(426,725,cs),
(384,764,o),
(330,785,o),
(272,783,cs),
(154,779,o),
(61,679,o),
(65,560,cs),
(67,504,o),
(90,454,o),
(127,417,c),
(121,411,o),
(115,406,o),
(109,399,cs)
);
},
{
alignment = -1;
pos = (87,0);
ref = circumflex;
}
);
width = 572;
}
);
},
{
color = 10;
glyphname = G.alt1;
kernLeft = _O;
kernRight = _O;
lastChange = "2025-05-12 20:05:59 +0000";
layers = (
{
layerId = "A0314109-5958-4499-961C-D1BD7DFF39CC";
shapes = (
{
closed = 1;
nodes = (
(431,-20,o),
(543,92,o),
(543,230,cs),
(543,416,ls),
(543,450,o),
(515,478,o),
(480,478,cs),
(318,478,ls),
(284,478,o),
(255,450,o),
(255,416,cs),
(255,381,o),
(284,353,o),
(318,353,cs),
(417,353,l),
(417,230,ls),
(417,161,o),
(362,106,o),
(293,106,cs),
(225,106,o),
(169,161,o),
(169,230,cs),
(169,533,ls),
(169,601,o),
(225,657,o),
(293,657,cs),
(337,657,o),
(378,633,o),
(400,596,cs),
(418,566,o),
(456,556,o),
(486,574,cs),
(516,591,o),
(526,630,o),
(508,660,cs),
(463,735,o),
(381,782,o),
(293,782,cs),
(156,782,o),
(44,670,o),
(44,533,cs),
(44,230,ls),
(44,92,o),
(156,-20,o),
(293,-20,cs)
);
}
);
width = 583;
}
);
},
{
color = 1;
glyphname = K.alt1;
kernRight = _K.alt1_rb;
lastChange = "2025-05-12 20:12:09 +0000";
layers = (
{
layerId = "A0314109-5958-4499-961C-D1BD7DFF39CC";
shapes = (
{
closed = 1;
nodes = (
(287,413,l),
(519,656,ls),
(542,681,o),
(542,721,o),
(516,745,cs),
(491,769,o),
(452,768,o),
(428,743,cs),
(176,478,l),
(176,699,ls),
(176,734,o),
(147,762,o),
(113,762,cs),
(78,762,o),
(50,734,o),
(50,699,cs),
(50,62,ls),
(50,27,o),
(78,-1,o),
(113,-1,cs),
(147,-1,o),
(176,27,o),
(176,62,cs),
(176,351,l),
(435,23,ls),
(448,7,o),
(466,-1,o),
(484,-1,cs),
(498,-1,o),
(512,4,o),
(523,13,cs),
(551,34,o),
(555,74,o),
(534,101,cs)
);
}
);
width = 568;
}
);
},
{
color = 10;
glyphname = M.alt1;
lastChange = "2025-05-12 20:08:40 +0000";
layers = (
{
layerId = "A0314109-5958-4499-961C-D1BD7DFF39CC";
shapes = (
{
closed = 1;
nodes = (
(147,0,o),
(175,28,o),
(175,63,cs),
(175,569,l),
(367,415,ls),
(390,397,o),
(423,397,o),
(446,415,cs),
(637,569,l),
(637,63,ls),
(637,28,o),
(665,0,o),
(700,0,cs),
(735,0,o),
(763,28,o),
(763,63,cs),
(763,700,ls),
(763,724,o),
(749,746,o),
(727,757,cs),
(705,767,o),
(680,764,o),
(661,749,cs),
(406,545,l),
(152,749,ls),
(133,764,o),
(107,767,o),
(85,757,c),
(64,746,o),
(50,724,o),
(50,700,cs),
(50,63,ls),
(50,28,o),
(78,0,o),
(112,0,cs)
);
}
);
width = 813;
}
);
},
{
color = 10;
glyphname = O.alt1;
kernLeft = O.alt1;
kernRight = O.alt1;
lastChange = "2025-05-12 21:24:25 +0000";
layers = (
{
anchors = (
{
name = bottom;
pos = (279,0);
},
{
name = center;
pos = (279,382);
},
{
name = ogonek;
pos = (502,10);
},
{
name = top;
pos = (279,763);
},
{
name = topleft;
pos = (20,763);
},
{
name = topright;
pos = (538,763);
}
);
layerId = "A0314109-5958-4499-961C-D1BD7DFF39CC";
shapes = (
{
closed = 1;
nodes = (
(493,591,l),
(481,700,o),
(390,783,o),
(279,783,cs),
(169,783,o),
(77,700,o),
(66,591,cs),
(32,258,ls),
(31,249,o),
(30,240,o),
(30,231,cs),
(30,93,o),
(142,-18,o),
(279,-18,cs),
(416,-18,o),
(528,93,o),
(528,231,cs),
(528,240,o),
(528,249,o),
(527,257,c)
);
},
{
closed = 1;
nodes = (
(211,107,o),
(156,162,o),
(156,231,cs),
(156,235,o),
(156,240,o),
(156,244,c),
(191,578,l),
(195,623,o),
(233,658,o),
(279,658,cs),
(325,658,o),
(363,623,o),
(368,578,cs),
(402,244,l),
(402,240,o),
(403,235,o),
(403,231,cs),
(403,162,o),
(347,107,o),
(279,107,cs)
);
}
);
width = 558;
}
);
},
{
color = 11;
glyphname = Oslash.alt1;
kernLeft = O.alt1;
kernRight = O.alt1;
lastChange = "2025-05-13 14:19:04 +0000";
layers = (
{
anchors = (
{
name = bottom;
pos = (279,0);
},
{
name = center;
pos = (279,382);
},
{
name = ogonek;
pos = (502,10);
},
{
name = top;
pos = (279,763);
},
{
name = topleft;
pos = (20,763);
},
{
name = topright;
pos = (538,763);
}
);
background = {
shapes = (
{
closed = 1;
nodes = (
(493,591,l),
(481,700,o),
(390,783,o),
(279,783,cs),
(169,783,o),
(77,700,o),
(66,591,cs),
(32,258,ls),
(31,249,o),
(30,240,o),
(30,231,cs),
(30,93,o),
(142,-18,o),
(279,-18,cs),
(416,-18,o),
(528,93,o),
(528,231,cs),
(528,240,o),
(528,249,o),
(527,257,c)
);
},
{
closed = 1;
nodes = (
(211,107,o),
(156,162,o),
(156,231,cs),
(156,235,o),
(156,240,o),
(156,244,c),
(191,578,l),
(195,623,o),
(233,658,o),
(279,658,cs),
(325,658,o),
(363,623,o),
(368,578,cs),
(402,244,l),
(402,240,o),
(403,235,o),
(403,231,cs),
(403,162,o),
(347,107,o),
(279,107,cs)
);
},
{
closed = 1;
nodes = (
(551,691,l),
(556,699,o),
(560,710,o),
(560,722,c),
(560,751,o),
(535,777,o),
(505,777,c),
(487,777,o),
(469,767,o),
(459,752,c),
(16,72,l),
(11,64,o),
(7,53,o),
(7,41,c),
(7,12,o),
(32,-14,o),
(62,-14,c),
(80,-14,o),
(98,-4,o),
(108,11,c)
);
}
);
};
layerId = "A0314109-5958-4499-961C-D1BD7DFF39CC";
shapes = (
{
closed = 1;
nodes = (
(493,591,ls),
(493,593,o),
(492,598,o),
(492,600,c),
(551,691,ls),
(556,699,o),
(560,710,o),
(560,722,cs),
(560,751,o),
(535,777,o),
(505,777,cs),
(487,777,o),
(469,767,o),
(459,752,cs),
(435,716,l),
(396,758,o),
(341,783,o),
(279,783,cs),
(169,783,o),
(77,700,o),
(66,591,cs),
(32,258,ls),
(31,249,o),
(30,240,o),
(30,231,cs),
(30,194,o),
(38,159,o),
(52,128,c),
(16,72,ls),
(11,64,o),
(7,53,o),
(7,41,cs),
(7,12,o),
(32,-14,o),
(62,-14,cs),
(80,-14,o),
(98,-4,o),
(108,11,cs),
(124,36,l),
(167,2,o),
(221,-18,o),
(279,-18,cs),
(416,-18,o),
(528,93,o),
(528,231,cs),
(528,240,o),
(528,249,o),
(527,257,cs)
);
},
{
closed = 1;
nodes = (
(246,107,o),
(216,120,o),
(193,142,c),
(383,433,l),
(402,244,ls),
(402,240,o),
(403,235,o),
(403,231,cs),
(403,162,o),
(347,107,o),
(279,107,cs)
);
},
{
closed = 1;
nodes = (
(191,578,ls),
(195,623,o),
(233,658,o),
(279,658,cs),
(316,658,o),
(348,636,o),
(362,603,c),
(161,295,l)
);
}
);
width = 558;
}
);
},
{
color = 6;
glyphname = S.alt1;
kernLeft = _S.alt1;
kernRight = _S.alt1;
lastChange = "2025-05-12 20:23:31 +0000";
layers = (
{
layerId = "A0314109-5958-4499-961C-D1BD7DFF39CC";
shapes = (
{
closed = 1;
nodes = (
(290,-18,o),
(291,-18,o),
(293,-18,cs),
(359,-17,o),
(422,10,o),
(468,58,cs),
(514,106,o),
(539,169,o),
(538,236,cs),
(536,355,o),
(449,444,o),
(300,480,cs),
(252,491,o),
(195,516,o),
(194,568,cs),
(193,617,o),
(232,657,o),
(281,658,cs),
(322,659,o),
(359,630,o),
(368,590,cs),
(376,556,o),
(410,535,o),
(444,543,cs),
(477,550,o),
(499,584,o),
(491,618,cs),
(468,716,o),
(379,785,o),
(279,784,c),
(161,781,o),
(66,684,o),
(68,566,cs),
(70,464,o),
(144,388,o),
(270,358,cs),
(334,342,o),
(411,308,o),
(412,234,cs),
(413,201,o),
(401,169,o),
(378,145,cs),
(355,122,o),
(324,108,o),
(290,108,c),
(222,106,o),
(165,161,o),
(164,230,cs),
(164,235,o),
(164,241,o),
(165,247,cs),
(169,281,o),
(145,313,o),
(110,317,cs),
(76,321,o),
(45,297,o),
(40,262,cs),
(39,251,o),
(38,239,o),
(38,227,cs),
(41,91,o),
(152,-18,o),
(288,-18,cs)
);
}
);
width = 569;
}
);
},
{
color = 7;
glyphname = T.alt1;
kernLeft = _T_lb;
lastChange = "2025-05-12 20:21:47 +0000";
layers = (
{
layerId = "A0314109-5958-4499-961C-D1BD7DFF39CC";
shapes = (
{
closed = 1;
nodes = (
(90,769,ls),
(51,769,o),
(20,738,o),
(20,700,cs),
(20,661,o),
(51,630,o),
(90,630,cs),
(233,630,l),
(233,62,ls),
(233,27,o),
(261,-1,o),
(296,-1,cs),
(330,-1,o),
(359,27,o),
(359,62,cs),
(359,630,l),
(502,630,ls),
(540,630,o),
(571,661,o),
(571,700,cs),
(571,738,o),
(540,769,o),
(502,769,c)
);
}
);
width = 591;
}
);
},
{
color = 8;
glyphname = W.alt1;
kernRight = _V.alt;
lastChange = "2025-05-12 18:48:11 +0000";
layers = (
{
layerId = "A0314109-5958-4499-961C-D1BD7DFF39CC";
shapes = (
{
closed = 1;
nodes = (
(176,701,l),
(176,735,o),
(148,763,o),
(113,763,cs),
(78,763,o),
(50,735,o),
(50,701,cs),
(50,63,ls),
(50,36,o),
(68,11,o),
(95,3,cs),
(121,-5,o),
(149,5,o),
(165,28,cs),
(483,496,l),
(483,63,ls),
(483,36,o),
(501,11,o),
(528,3,cs),
(534,1,o),
(540,0,o),
(546,0,cs),
(567,0,o),
(586,10,o),
(598,28,cs),
(1031,665,ls),
(1051,694,o),
(1043,733,o),
(1015,752,cs),
(986,772,o),
(947,764,o),
(928,736,cs),
(609,267,l),
(609,701,ls),
(609,728,o),
(591,752,o),
(565,761,c),
(538,769,o),
(510,759,o),
(494,736,cs),
(176,267,l)
);
}
);
width = 1063;
}
);
},
{
color = 2;
glyphname = A.alt2;
kernLeft = _A.alt1;
kernRight = _A.alt1;
lastChange = "2025-05-12 19:06:47 +0000";
layers = (
{
layerId = "A0314109-5958-4499-961C-D1BD7DFF39CC";
shapes = (
{
closed = 1;
nodes = (
(110,0,o),
(134,17,o),
(143,43,cs),
(302,507,l),
(428,140,l),
(270,163,ls),
(236,168,o),
(204,144,o),
(199,110,cs),
(194,75,o),
(218,43,o),
(252,38,cs),
(512,1,ls),
(533,-2,o),
(555,6,o),
(569,23,cs),
(583,40,o),
(587,63,o),
(580,84,cs),
(362,721,ls),
(353,746,o),
(329,763,o),
(302,763,cs),
(275,763,o),
(252,746,o),
(243,721,cs),
(24,84,ls),
(13,51,o),
(31,15,o),
(63,4,cs),
(70,2,o),
(77,0,o),
(84,0,cs)
);
}
);
width = 604;
}
);
},
{
color = 10;
glyphname = B.alt2;
kernRight = _B_rb;
lastChange = "2025-05-12 20:01:38 +0000";
layers = (
{
guides = (
{
pos = (0,1883);
}
);
layerId = "A0314109-5958-4499-961C-D1BD7DFF39CC";
shapes = (
{
closed = 1;
nodes = (
(113,763,ls),
(78,763,o),
(50,735,o),
(50,700,cs),
(50,62,ls),
(50,28,o),
(78,0,o),
(113,0,cs),
(311,0,ls),
(441,0,o),
(546,105,o),
(546,235,cs),
(546,319,o),
(501,393,o),
(434,435,c),
(457,469,o),
(471,509,o),
(471,553,cs),
(471,669,o),
(377,763,o),
(261,763,c)
);
},
{
closed = 1;
nodes = (
(176,637,l),
(261,637,ls),
(308,637,o),
(345,600,o),
(345,553,cs),
(345,507,o),
(308,469,o),
(261,469,c),
(261,469,o),
(260,469,o),
(259,469,c),
(176,469,l)
);
},
{
closed = 1;
nodes = (
(176,125,l),
(176,344,l),
(311,344,ls),
(372,344,o),
(421,295,o),
(421,235,cs),
(421,174,o),
(372,125,o),
(311,125,c)
);
}
);
width = 578;
}
);
},
{
color = 10;
glyphname = C.alt2;
kernLeft = _E_lb;
kernRight = _E_rb;
lastChange = "2025-05-12 20:01:38 +0000";
layers = (
{
layerId = "A0314109-5958-4499-961C-D1BD7DFF39CC";
shapes = (
{
closed = 1;
nodes = (
(447,0,l),
(481,0,o),
(509,28,o),
(509,63,cs),
(509,97,o),
(481,125,o),
(447,125,cs),
(250,125,ls),
(206,125,o),
(170,161,o),
(170,205,cs),
(170,558,ls),
(170,602,o),
(206,637,o),
(250,637,cs),
(429,637,ls),
(464,637,o),
(492,666,o),
(492,700,cs),
(492,735,o),
(464,763,o),
(429,763,cs),
(250,763,ls),
(137,763,o),
(45,671,o),
(45,558,cs),
(45,205,ls),
(45,92,o),
(137,0,o),
(250,0,cs)
);
}
);
width = 524;
}
);
},
{
color = 10;
glyphname = Ccedilla.alt2;
kernLeft = _E_lb;
kernRight = _E_rb;
lastChange = "2025-05-12 20:01:38 +0000";
layers = (
{
layerId = "A0314109-5958-4499-961C-D1BD7DFF39CC";
shapes = (
{
closed = 1;
nodes = (
(447,0,l),
(481,0,o),
(509,28,o),
(509,63,cs),
(509,97,o),
(481,125,o),
(447,125,cs),
(250,125,ls),
(206,125,o),
(170,161,o),
(170,205,cs),
(170,558,ls),
(170,602,o),
(206,637,o),
(250,637,cs),
(429,637,ls),
(464,637,o),
(492,666,o),
(492,700,cs),
(492,735,o),
(464,763,o),
(429,763,cs),
(250,763,ls),
(137,763,o),
(45,671,o),
(45,558,cs),
(45,205,ls),
(45,92,o),
(137,0,o),
(250,0,cs)
);
},
{
closed = 1;
nodes = (
(248,-136,ls),
(217,-136,o),
(192,-111,o),
(192,-79,cs),
(192,-48,o),
(217,-23,o),
(248,-23,cs),
(341,-23,ls),
(372,-23,o),
(398,-48,o),
(398,-79,cs),
(398,-111,o),
(372,-136,o),
(341,-136,c)
);
}
);
width = 524;
}
);
},
{
color = 10;
glyphname = D.alt2;
kernRight = _O.alt2_rb;
lastChange = "2025-05-12 20:05:42 +0000";
layers = (
{
layerId = "A0314109-5958-4499-961C-D1BD7DFF39CC";
shapes = (
{
closed = 1;
nodes = (
(169,0,ls),
(380,0,o),
(551,171,o),
(551,381,cs),
(551,592,o),
(380,763,o),
(169,763,cs),
(112,763,ls),
(78,763,o),
(50,735,o),
(50,700,cs),
(50,62,ls),
(50,28,o),
(78,0,o),
(112,0,c)
);
},
{
closed = 1;
nodes = (
(175,637,l),
(314,634,o),
(426,520,o),
(426,381,cs),
(426,242,o),
(314,128,o),
(175,125,c)
);
}
);
width = 586;
}
);
},
{
color = 10;
glyphname = E.alt2;
kernLeft = _E.alt2_lb;
kernRight = _E.alt2_rb;
lastChange = "2025-05-12 20:01:38 +0000";
layers = (
{
anchors = (
{
name = bottom;
pos = (254,0);
},
{
name = ogonek;
pos = (457,10);
},
{
name = top;
pos = (267,763);
},
{
name = topleft;
pos = (20,763);
}
);
layerId = "A0314109-5958-4499-961C-D1BD7DFF39CC";
shapes = (
{
closed = 1;
nodes = (
(176,125,l),
(176,637,l),
(399,637,ls),
(434,637,o),
(462,665,o),
(462,699,cs),
(462,734,o),
(434,762,o),
(399,762,cs),
(113,762,ls),
(78,762,o),
(50,734,o),
(50,699,cs),
(50,62,ls),
(50,27,o),
(78,-1,o),
(113,-1,cs),
(419,-1,ls),
(454,-1,o),
(482,27,o),
(482,62,cs),
(482,97,o),
(454,125,o),
(419,125,c)
);
},
{
closed = 1;
nodes = (
(269,478,l),
(234,478,o),
(206,450,o),
(206,415,cs),
(206,380,o),
(234,352,o),
(269,352,cs),
(364,352,ls),
(398,352,o),
(426,380,o),
(426,415,cs),
(426,450,o),
(398,478,o),
(364,478,cs)
);
}
);
width = 508;
}
);
},
{
color = 5;
glyphname = G.alt2;
kernLeft = _O.Alt2_lb;
kernRight = _O.alt2_rb;
lastChange = "2025-05-12 19:21:25 +0000";
layers = (
{
layerId = "A0314109-5958-4499-961C-D1BD7DFF39CC";
shapes = (
{
closed = 1;
nodes = (
(657,-20,o),
(837,160,o),
(837,381,cs),
(837,416,o),
(809,444,o),
(774,444,cs),
(437,444,ls),
(402,444,o),
(374,416,o),
(374,381,cs),
(374,347,o),
(402,319,o),
(437,319,cs),
(704,319,l),
(676,197,o),
(566,106,o),
(436,106,cs),
(284,106,o),
(160,229,o),
(160,381,cs),
(160,533,o),
(284,657,o),
(436,657,cs),
(520,657,o),
(598,619,o),
(651,554,cs),
(673,526,o),
(712,522,o),
(739,544,cs),
(766,566,o),
(770,605,o),
(749,632,cs),
(672,728,o),
(558,782,o),
(436,782,cs),
(215,782,o),
(35,602,o),
(35,381,cs),
(35,160,o),
(215,-20,o),
(436,-20,cs)
);
}
);
width = 867;
}
);
},
{
color = 6;
glyphname = K.alt2;
lastChange = "2025-05-12 19:09:12 +0000";
layers = (
{
layerId = "A0314109-5958-4499-961C-D1BD7DFF39CC";
shapes = (
{
closed = 1;
nodes = (
(147,0,o),
(175,28,o),
(175,63,cs),
(175,341,l),
(292,341,ls),
(360,341,o),
(416,286,o),
(416,217,cs),
(416,63,ls),
(416,28,o),
(444,0,o),
(478,0,cs),
(513,0,o),
(541,28,o),
(541,63,cs),
(541,217,ls),
(541,305,o),
(495,383,o),
(426,427,c),
(464,471,o),
(487,528,o),
(487,591,cs),
(487,700,ls),
(487,735,o),
(459,763,o),
(424,763,cs),
(390,763,o),
(362,735,o),
(362,700,cs),
(362,591,ls),
(362,522,o),
(306,467,o),
(238,467,cs),
(175,467,l),
(175,700,ls),
(175,735,o),
(147,763,o),
(112,763,cs),
(78,763,o),
(50,735,o),
(50,700,cs),
(50,63,ls),
(50,28,o),
(78,0,o),
(112,0,cs)
);
}
);
width = 576;
}
);
},
{
color = 10;
glyphname = M.alt2;
lastChange = "2025-05-12 20:08:40 +0000";
layers = (
{
layerId = "A0314109-5958-4499-961C-D1BD7DFF39CC";
shapes = (
{
closed = 1;
nodes = (
(735,-1,o),
(763,27,o),
(763,61,cs),
(763,699,ls),
(763,729,o),
(743,754,o),
(714,760,cs),
(685,767,o),
(656,752,o),
(643,726,c),
(406,216,l),
(169,726,ls),
(157,752,o),
(128,767,o),
(99,760,cs),
(70,754,o),
(50,729,o),
(50,699,cs),
(50,61,ls),
(50,27,o),
(78,-1,o),
(113,-1,cs),
(147,-1,o),
(175,27,o),
(175,61,cs),
(175,415,l),
(349,40,l),
(360,18,o),
(382,4,o),
(406,4,cs),
(431,4,o),
(453,18,o),
(463,40,cs),
(637,415,l),
(637,61,ls),
(637,27,o),
(666,-1,o),
(700,-1,cs)
);
}
);
width = 813;
}
);
},
{
color = 6;
glyphname = N.alt2;
kernLeft = _A_lb;
kernRight = _A_rb;
lastChange = "2025-05-12 19:09:12 +0000";
layers = (
{
layerId = "A0314109-5958-4499-961C-D1BD7DFF39CC";
shapes = (
{
closed = 1;
nodes = (
(521,-1,o),
(549,27,o),
(549,61,cs),
(549,532,ls),
(549,669,o),
(437,781,o),
(300,781,cs),
(162,781,o),
(50,669,o),
(50,532,cs),
(50,61,ls),
(50,27,o),
(78,-1,o),
(113,-1,cs),
(148,-1,o),
(176,27,o),
(176,61,cs),
(176,532,ls),
(176,600,o),
(232,656,o),
(300,656,cs),
(368,656,o),
(424,600,o),
(424,532,cs),
(424,61,ls),
(424,27,o),
(452,-1,o),
(486,-1,cs)
);
}
);
width = 599;
}
);
},
{
color = 6;
glyphname = Ntilde.alt2;
kernLeft = _A_lb;
kernRight = _A_rb;
lastChange = "2025-05-12 19:09:12 +0000";
layers = (
{
layerId = "A0314109-5958-4499-961C-D1BD7DFF39CC";
shapes = (
{
closed = 1;
nodes = (
(521,-1,o),
(549,27,o),
(549,61,cs),
(549,532,ls),
(549,669,o),
(437,781,o),
(300,781,cs),
(162,781,o),
(50,669,o),
(50,532,cs),
(50,61,ls),
(50,27,o),
(78,-1,o),
(113,-1,cs),
(148,-1,o),
(176,27,o),
(176,61,cs),
(176,532,ls),
(176,600,o),
(232,656,o),
(300,656,cs),
(368,656,o),
(424,600,o),
(424,532,cs),
(424,61,ls),
(424,27,o),
(452,-1,o),
(486,-1,cs)
);
},
{
alignment = -1;
pos = (80,10);
ref = tilde;
}
);
width = 599;
}
);
},
{
color = 5;
glyphname = O.alt2;
kernLeft = _O.Alt2_lb;
kernRight = _O.alt2_rb;
lastChange = "2025-05-12 19:17:16 +0000";
layers = (
{
layerId = "A0314109-5958-4499-961C-D1BD7DFF39CC";
shapes = (
{
closed = 1;
nodes = (
(657,-19,o),
(837,161,o),
(837,382,cs),
(837,603,o),
(657,783,o),
(436,783,cs),
(215,783,o),
(35,603,o),
(35,382,cs),
(35,161,o),
(215,-19,o),
(436,-19,cs)
);
},
{
closed = 1;
nodes = (
(588,658,o),
(712,534,o),
(712,382,cs),
(712,230,o),
(588,107,o),
(436,107,cs),
(284,107,o),
(161,230,o),
(161,382,cs),
(161,534,o),
(284,658,o),
(436,658,cs)
);
}
);
width = 872;
}
);
},
{
color = 5;
glyphname = Oslash.alt2;
kernLeft = _O.Alt2_lb;
kernRight = _O.Alt2_rb;
lastChange = "2025-05-13 14:19:00 +0000";
layers = (
{
background = {
shapes = (
{
closed = 1;
nodes = (
(657,-19,o),
(837,161,o),
(837,382,cs),
(837,603,o),
(657,783,o),
(436,783,cs),
(215,783,o),
(35,603,o),
(35,382,cs),
(35,161,o),
(215,-19,o),
(436,-19,cs)
);
},
{
closed = 1;
nodes = (
(588,658,o),
(712,534,o),
(712,382,cs),
(712,230,o),
(588,107,o),
(436,107,cs),
(284,107,o),
(161,230,o),
(161,382,cs),
(161,534,o),
(284,658,o),
(436,658,cs)
);
},
{
closed = 1;
nodes = (
(834,655,l),
(845,665,o),
(852,680,o),
(852,696,c),
(852,726,o),
(827,751,o),
(797,751,c),
(784,751,o),
(769,745,o),
(760,737,c),
(35,97,l),
(24,87,o),
(17,72,o),
(17,56,c),
(17,26,o),
(42,1,o),
(72,1,c),
(85,1,o),
(100,7,o),
(109,15,c)
);
}
);
};
layerId = "A0314109-5958-4499-961C-D1BD7DFF39CC";
shapes = (
{
closed = 1;
nodes = (
(657,-19,o),
(837,161,o),
(837,382,cs),
(837,462,o),
(813,537,o),
(772,600,c),
(834,655,ls),
(845,665,o),
(852,680,o),
(852,696,cs),
(852,726,o),
(827,751,o),
(797,751,cs),
(784,751,o),
(769,745,o),
(760,737,cs),
(700,684,l),
(630,745,o),
(537,783,o),
(436,783,cs),
(215,783,o),
(35,603,o),
(35,382,cs),
(35,299,o),
(61,221,o),
(104,158,c),
(35,97,ls),
(24,87,o),
(17,72,o),
(17,56,cs),
(17,26,o),
(42,1,o),
(72,1,cs),
(85,1,o),
(100,7,o),
(109,15,cs),
(178,76,l),
(247,17,o),
(338,-19,o),
(436,-19,cs)
);
},
{
closed = 1;
nodes = (
(500,658,o),
(559,636,o),
(605,600,c),
(199,242,l),
(175,283,o),
(161,331,o),
(161,382,cs),
(161,534,o),
(284,658,o),
(436,658,cs)
);
},
{
closed = 1;
nodes = (
(677,516,l),
(699,477,o),
(712,431,o),
(712,382,cs),
(712,230,o),
(588,107,o),
(436,107,cs),
(375,107,o),
(318,127,o),
(273,160,c)
);
}
);
width = 872;
}
);
},
{
color = 5;
glyphname = Q.alt2;
kernLeft = _O.Alt2_lb;
kernRight = _O.alt2_rb;
lastChange = "2025-05-12 19:17:16 +0000";
layers = (
{
layerId = "A0314109-5958-4499-961C-D1BD7DFF39CC";
shapes = (
{
closed = 1;
nodes = (
(215,783,o),
(35,603,o),
(35,382,cs),
(35,161,o),
(215,-19,o),
(436,-19,cs),
(524,-19,o),
(605,10,o),
(671,58,c),
(727,1,ls),
(739,-11,o),
(755,-17,o),
(771,-17,cs),
(787,-17,o),
(803,-11,o),
(816,1,c),
(840,26,o),
(840,65,o),
(816,90,cs),
(760,146,l),
(809,212,o),
(837,294,o),
(837,382,cs),
(837,603,o),
(657,783,o),
(436,783,cs)
);
},
{
closed = 1;
nodes = (
(284,107,o),
(161,230,o),
(161,382,cs),
(161,534,o),
(284,658,o),
(436,658,cs),
(588,658,o),
(712,534,o),
(712,382,cs),
(712,329,o),
(696,279,o),
(670,237,c),
(618,289,ls),
(594,314,o),
(554,314,o),
(529,289,cs),
(505,265,o),
(504,225,o),
(529,201,c),
(581,148,l),
(539,122,o),
(489,107,o),
(436,107,cs)
);
}
);
width = 872;
}
);
},
{
color = 10;
glyphname = R.alt2;
kernRight = _R_rb;
lastChange = "2025-05-12 21:24:25 +0000";
layers = (
{
layerId = "A0314109-5958-4499-961C-D1BD7DFF39CC";
shapes = (
{
closed = 1;
nodes = (
(147,0,o),
(175,28,o),
(175,63,cs),
(175,638,l),
(232,638,ls),
(297,638,o),
(350,585,o),
(350,520,cs),
(350,460,o),
(305,410,o),
(246,403,cs),
(224,401,o),
(205,387,o),
(196,367,cs),
(187,348,o),
(188,324,o),
(201,306,c),
(386,28,ls),
(405,-1,o),
(444,-8,o),
(473,11,cs),
(502,30,o),
(510,69,o),
(490,98,cs),
(351,308,l),
(426,349,o),
(475,429,o),
(475,520,cs),
(475,654,o),
(366,763,o),
(232,763,cs),
(113,763,ls),
(78,763,o),
(50,735,o),
(50,701,cs),
(50,63,ls),
(50,28,o),
(78,0,o),
(113,0,cs)
);
}
);
width = 538;
}
);
},
{
color = 6;
glyphname = T.alt2;
lastChange = "2025-05-12 19:09:12 +0000";
layers = (
{
layerId = "A0314109-5958-4499-961C-D1BD7DFF39CC";
shapes = (
{
closed = 1;
nodes = (
(341,649,l),
(375,641,o),
(408,626,o),
(437,606,cs),
(465,586,o),
(504,592,o),
(524,621,cs),
(544,649,o),
(538,688,o),
(509,708,cs),
(441,756,o),
(362,781,o),
(278,781,cs),
(195,781,o),
(115,756,o),
(47,708,cs),
(19,688,o),
(12,649,o),
(32,621,cs),
(44,603,o),
(64,594,o),
(83,594,cs),
(96,594,o),
(109,598,o),
(120,606,cs),
(149,626,o),
(181,641,o),
(216,649,c),
(216,62,ls),
(216,27,o),
(244,-1,o),
(278,-1,cs),
(313,-1,o),
(341,27,o),
(341,62,cs)
);
}
);
width = 556;
}
);
},
{
color = 3;
glyphname = V.alt2;
kernLeft = _V.alt2;
lastChange = "2025-05-12 18:50:18 +0000";
layers = (
{
layerId = "A0314109-5958-4499-961C-D1BD7DFF39CC";
shapes = (
{
closed = 1;
nodes = (
(523,1,o),
(529,2,o),
(535,4,cs),
(561,12,o),
(579,36,o),
(579,64,cs),
(579,701,ls),
(579,736,o),
(551,764,o),
(517,764,cs),
(482,764,o),
(454,736,o),
(454,701,cs),
(454,268,l),
(135,736,ls),
(116,765,o),
(77,772,o),
(48,753,cs),
(19,733,o),
(12,694,o),
(31,666,cs),
(465,28,ls),
(477,11,o),
(496,1,o),
(517,1,cs)
);
}
);
width = 629;
}
);
},
{
color = 3;
glyphname = W.alt2;
kernLeft = _V.alt2;
lastChange = "2025-05-12 18:46:59 +0000";
layers = (
{
layerId = "A0314109-5958-4499-961C-D1BD7DFF39CC";
shapes = (
{
closed = 1;
nodes = (
(19,733,o),
(12,694,o),
(31,665,cs),
(465,28,ls),
(480,5,o),
(509,-5,o),
(535,3,cs),
(561,11,o),
(579,36,o),
(579,63,cs),
(579,496,l),
(898,28,ls),
(910,10,o),
(929,0,o),
(950,0,cs),
(956,0,o),
(962,1,o),
(968,3,cs),
(995,11,o),
(1012,36,o),
(1012,63,cs),
(1012,701,ls),
(1012,735,o),
(984,763,o),
(950,763,cs),
(915,763,o),
(887,735,o),
(887,701,cs),
(887,267,l),
(568,736,ls),
(553,759,o),
(524,769,o),
(498,761,cs),
(472,752,o),
(454,728,o),
(454,701,cs),
(454,267,l),
(135,736,ls),
(116,764,o),
(77,772,o),
(48,752,cs)
);
}
);
width = 1062;
}
);
},
{
color = 6;
glyphname = X.alt2;
lastChange = "2025-05-12 19:09:12 +0000";
layers = (
{
layerId = "A0314109-5958-4499-961C-D1BD7DFF39CC";
shapes = (
{
closed = 1;
nodes = (
(424,63,ls),
(424,28,o),
(452,0,o),
(486,0,cs),
(521,0,o),
(549,28,o),
(549,63,cs),
(549,210,ls),
(549,284,o),
(517,351,o),
(465,396,c),
(517,442,o),
(549,509,o),
(549,583,cs),
(549,700,ls),
(549,735,o),
(521,763,o),
(486,763,cs),
(452,763,o),
(424,735,o),
(424,700,cs),
(424,583,ls),
(424,515,o),
(368,459,o),
(300,459,cs),
(231,459,o),
(176,515,o),
(176,583,cs),
(176,700,ls),
(176,735,o),
(148,763,o),
(113,763,cs),
(78,763,o),
(50,735,o),
(50,700,cs),
(50,583,ls),
(50,509,o),
(83,442,o),
(135,396,c),
(83,351,o),
(50,284,o),
(50,210,cs),
(50,63,ls),
(50,28,o),
(78,0,o),
(113,0,cs),
(148,0,o),
(176,28,o),
(176,63,cs),
(176,210,ls),
(176,278,o),
(231,334,o),
(300,334,cs),
(368,334,o),
(424,278,o),
(424,210,c)
);
}
);
width = 599;
}
);
},
{
color = 1;
glyphname = Y.alt2;
lastChange = "2025-05-12 20:12:09 +0000";
layers = (
{
layerId = "A0314109-5958-4499-961C-D1BD7DFF39CC";
shapes = (
{
closed = 1;
nodes = (
(550,669,l),
(567,699,o),
(557,737,o),
(527,754,cs),
(497,772,o),
(458,761,o),
(441,731,cs),
(290,465,l),
(138,731,ls),
(121,761,o),
(83,772,o),
(53,754,cs),
(23,737,o),
(12,699,o),
(29,669,cs),
(227,322,l),
(227,63,ls),
(227,28,o),
(255,0,o),
(290,0,cs),
(324,0,o),
(353,28,o),
(353,63,cs),
(353,322,l)
);
}
);
width = 579;
}
);
},
{
color = 10;
glyphname = E.alt3;
kernLeft = _E.alt2_lb;
kernRight = _E.alt2_rb;
lastChange = "2025-05-12 20:02:05 +0000";
layers = (
{
layerId = "A0314109-5958-4499-961C-D1BD7DFF39CC";
shapes = (
{
closed = 1;
nodes = (
(419,0,ls),
(454,0,o),
(482,28,o),
(482,62,cs),
(482,97,o),
(454,125,o),
(419,125,cs),
(176,125,l),
(176,353,l),
(363,353,ls),
(398,353,o),
(426,381,o),
(426,416,cs),
(426,450,o),
(398,478,o),
(363,478,cs),
(176,478,l),
(176,637,l),
(399,637,ls),
(434,637,o),
(462,665,o),
(462,700,cs),
(462,735,o),
(434,763,o),
(399,763,cs),
(113,763,ls),
(78,763,o),
(50,735,o),
(50,700,cs),
(50,62,ls),
(50,28,o),
(78,0,o),
(113,0,c)
);
}
);
width = 508;
}
);
},
{
color = 10;
glyphname = K.alt3;
kernRight = _K.alt1_rb;
lastChange = "2025-05-12 20:02:05 +0000";
layers = (
{
layerId = "A0314109-5958-4499-961C-D1BD7DFF39CC";
shapes = (
{
closed = 1;
nodes = (
(50,63,ls),
(50,28,o),
(79,0,o),
(113,0,cs),
(148,0,o),
(176,28,o),
(176,63,cs),
(176,348,l),
(409,26,ls),
(421,9,o),
(440,0,o),
(460,0,cs),
(473,0,o),
(485,4,o),
(497,12,cs),
(525,32,o),
(531,71,o),
(511,99,cs),
(284,413,l),
(505,658,ls),
(528,684,o),
(526,724,o),
(501,747,cs),
(475,770,o),
(435,768,o),
(412,742,cs),
(176,480,l),
(176,700,ls),
(176,735,o),
(148,763,o),
(113,763,cs),
(79,763,o),
(50,735,o),
(50,700,c)
);
}
);
width = 543;
}
);
},
{
color = 1;
glyphname = M.alt3;
kernLeft = _M;
kernRight = _M;
lastChange = "2025-05-12 20:12:09 +0000";
layers = (
{
layerId = "A0314109-5958-4499-961C-D1BD7DFF39CC";
shapes = (
{
closed = 1;
nodes = (
(124,-5,o),
(156,19,o),
(160,53,c),
(211,422,l),
(332,53,ls),
(341,27,o),
(365,10,o),
(392,10,cs),
(419,10,o),
(443,27,o),
(452,53,cs),
(573,422,l),
(624,53,ls),
(628,21,o),
(655,-1,o),
(686,-1,cs),
(689,-1,o),
(692,-1,o),
(694,-1,c),
(729,4,o),
(753,36,o),
(748,70,cs),
(660,708,ls),
(656,737,o),
(633,759,o),
(604,762,cs),
(575,764,o),
(547,746,o),
(538,719,cs),
(392,274,l),
(246,719,ls),
(237,746,o),
(210,764,o),
(180,762,c),
(151,759,o),
(128,737,o),
(124,708,cs),
(36,70,ls),
(31,36,o),
(55,4,o),
(90,-1,cs)
);
}
);
width = 784;
}
);
},
{
color = 1;
glyphname = W.alt3;
kernLeft = _W_lb;
kernRight = _W_rb;
lastChange = "2025-05-12 20:12:09 +0000";
layers = (
{
layerId = "A0314109-5958-4499-961C-D1BD7DFF39CC";
shapes = (
{
closed = 1;
nodes = (
(679,764,o),
(647,740,o),
(643,706,c),
(592,337,l),
(471,706,ls),
(462,732,o),
(438,749,o),
(411,749,cs),
(384,749,o),
(360,732,o),
(351,706,cs),
(230,337,l),
(179,706,ls),
(175,738,o),
(148,760,o),
(117,760,cs),
(114,760,o),
(111,760,o),
(109,760,c),
(74,755,o),
(50,723,o),
(55,689,cs),
(143,51,ls),
(147,22,o),
(170,0,o),
(199,-3,cs),
(228,-5,o),
(256,13,o),
(265,40,cs),
(411,485,l),
(557,40,ls),
(566,13,o),
(593,-5,o),
(623,-3,c),
(652,0,o),
(675,22,o),
(679,51,cs),
(767,689,ls),
(772,723,o),
(748,755,o),
(713,760,cs)
);
}
);
width = 793;
}
);
},
{
color = 3;
glyphname = A.alt4;
kernRight = _A.alt4;
lastChange = "2025-05-12 18:46:59 +0000";
layers = (
{
guides = (
{
angle = 90;
pos = (112,0);
}
);
layerId = "A0314109-5958-4499-961C-D1BD7DFF39CC";
shapes = (
{
closed = 1;
nodes = (
(165,736,l),
(149,759,o),
(121,769,o),
(95,761,cs),
(68,753,o),
(50,729,o),
(50,701,cs),
(50,64,ls),
(50,29,o),
(78,1,o),
(113,1,cs),
(148,1,o),
(176,29,o),
(176,64,cs),
(176,156,l),
(408,156,l),
(494,28,l),
(514,0,o),
(553,-8,o),
(582,12,cs),
(610,31,o),
(618,70,o),
(598,99,cs)
);
},
{
closed = 1;
nodes = (
(176,281,l),
(176,497,l),
(323,281,l)
);
}
);
width = 630;
}
);
},
{
color = 3;
glyphname = Aacute.alt4;
kernRight = _A.alt4;
lastChange = "2025-05-12 18:46:59 +0000";
layers = (
{
guides = (
{
angle = 90;
pos = (50,0);
}
);
layerId = "A0314109-5958-4499-961C-D1BD7DFF39CC";
shapes = (
{
closed = 1;
nodes = (
(165,736,l),
(149,759,o),
(121,769,o),
(95,761,cs),
(68,753,o),
(50,729,o),
(50,701,cs),
(50,64,ls),
(50,29,o),
(78,1,o),
(113,1,cs),
(148,1,o),
(176,29,o),
(176,64,cs),
(176,156,l),
(408,156,l),
(494,28,l),
(514,0,o),
(553,-8,o),
(582,12,cs),
(610,31,o),
(618,70,o),
(598,99,cs)
);
},
{
closed = 1;
nodes = (
(176,281,l),
(176,497,l),
(323,281,l)
);
},
{
alignment = -1;
pos = (10,0);
ref = acute;
}
);
width = 629;
}
);
},
{
color = 3;
glyphname = Acircumflex.alt4;
kernRight = _A.alt4;
lastChange = "2025-05-12 18:46:59 +0000";
layers = (
{
layerId = "A0314109-5958-4499-961C-D1BD7DFF39CC";
shapes = (
{
closed = 1;
nodes = (
(165,736,l),
(149,759,o),
(121,769,o),
(95,761,cs),
(68,753,o),
(50,729,o),
(50,701,cs),
(50,64,ls),
(50,29,o),
(78,1,o),
(113,1,cs),
(148,1,o),
(176,29,o),
(176,64,cs),
(176,156,l),
(408,156,l),
(494,28,l),
(514,0,o),
(553,-8,o),
(582,12,cs),
(610,31,o),
(618,70,o),
(598,99,cs)
);
},
{
closed = 1;
nodes = (
(176,281,l),
(176,497,l),
(323,281,l)
);
},
{
alignment = -1;
pos = (-80,-23);
ref = circumflex;
}
);
width = 629;
}
);
},
{
color = 3;
glyphname = Atilde.alt4;
kernRight = _A.alt4;
lastChange = "2025-05-12 18:48:52 +0000";
layers = (
{
layerId = "A0314109-5958-4499-961C-D1BD7DFF39CC";
shapes = (
{
closed = 1;
nodes = (
(165,736,l),
(149,759,o),
(121,769,o),
(95,761,cs),
(68,753,o),
(50,729,o),
(50,701,cs),
(50,64,ls),
(50,29,o),
(78,1,o),
(113,1,cs),
(148,1,o),
(176,29,o),
(176,64,cs),
(176,156,l),
(408,156,l),
(494,28,l),
(514,0,o),
(553,-8,o),
(582,12,cs),
(610,31,o),
(618,70,o),
(598,99,cs)
);
},
{
closed = 1;
nodes = (
(176,281,l),
(176,497,l),
(323,281,l)
);
},
{
alignment = -1;
pos = (-92,-5);
ref = tilde;
}
);
width = 629;
}
);
},
{
color = 3;
glyphname = M.alt4;
kernRight = _A.alt4;
lastChange = "2025-05-12 18:46:59 +0000";
layers = (
{
layerId = "A0314109-5958-4499-961C-D1BD7DFF39CC";
shapes = (
{
closed = 1;
nodes = (
(68,753,o),
(50,728,o),
(50,701,cs),
(50,63,ls),
(50,28,o),
(78,0,o),
(113,0,cs),
(148,0,o),
(176,28,o),
(176,63,cs),
(176,497,l),
(494,28,ls),
(510,5,o),
(538,-5,o),
(565,3,cs),
(591,11,o),
(609,36,o),
(609,63,cs),
(609,497,l),
(927,28,ls),
(947,-1,o),
(986,-8,o),
(1015,11,c),
(1043,31,o),
(1051,70,o),
(1031,99,cs),
(598,736,ls),
(583,759,o),
(554,769,o),
(528,761,cs),
(501,753,o),
(483,728,o),
(483,701,cs),
(483,267,l),
(165,736,ls),
(149,759,o),
(121,769,o),
(94,761,cs)
);
}
);
width = 1063;
}
);
},
{
color = 6;
glyphname = W.alt4;
kernLeft = _U_lb;
kernRight = _U_rb;
lastChange = "2025-05-12 19:09:12 +0000";
layers = (
{
layerId = "A0314109-5958-4499-961C-D1BD7DFF39CC";
shapes = (
{
closed = 1;
nodes = (
(451,764,o),
(423,736,o),
(423,702,cs),
(423,231,ls),
(423,163,o),
(368,107,o),
(300,107,cs),
(231,107,o),
(176,163,o),
(176,231,cs),
(176,702,ls),
(176,736,o),
(148,764,o),
(113,764,cs),
(78,764,o),
(50,736,o),
(50,702,cs),
(50,231,ls),
(50,94,o),
(162,-18,o),
(300,-18,cs),
(374,-18,o),
(440,14,o),
(486,66,c),
(532,14,o),
(599,-18,o),
(673,-18,cs),
(810,-18,o),
(922,94,o),
(922,231,cs),
(922,702,ls),
(922,736,o),
(894,764,o),
(859,764,cs),
(825,764,o),
(797,736,o),
(797,702,cs),
(797,231,ls),
(797,163,o),
(741,107,o),
(673,107,cs),
(605,107,o),
(549,163,o),
(549,231,cs),
(549,702,ls),
(549,736,o),
(521,764,o),
(486,764,cs)
);
}
);
width = 972;
}
);
},
{
color = 8;
glyphname = A.alt5;
kernLeft = _A.alt5;
lastChange = "2025-05-12 18:48:11 +0000";
layers = (
{
layerId = "A0314109-5958-4499-961C-D1BD7DFF39CC";
shapes = (
{
closed = 1;
nodes = (
(32,99,l),
(12,70,o),
(20,31,o),
(48,12,cs),
(77,-8,o),
(116,0,o),
(136,28,c),
(222,156,l),
(454,156,l),
(454,64,ls),
(454,29,o),
(482,1,o),
(517,1,cs),
(552,1,o),
(580,29,o),
(580,64,cs),
(580,701,ls),
(580,729,o),
(562,753,o),
(535,761,cs),
(509,769,o),
(481,759,o),
(465,736,c)
);
},
{
closed = 1;
nodes = (
(307,281,l),
(454,497,l),
(454,281,l)
);
}
);
width = 620;
}
);
},
{
color = 8;
glyphname = Aacute.alt5;
kernLeft = _A.alt5;
lastChange = "2025-05-12 18:48:11 +0000";
layers = (
{
layerId = "A0314109-5958-4499-961C-D1BD7DFF39CC";
shapes = (
{
closed = 1;
nodes = (
(32,99,l),
(12,70,o),
(20,31,o),
(48,12,cs),
(77,-8,o),
(116,0,o),
(136,28,c),
(222,156,l),
(454,156,l),
(454,64,ls),
(454,29,o),
(482,1,o),
(517,1,cs),
(552,1,o),
(580,29,o),
(580,64,cs),
(580,701,ls),
(580,729,o),
(562,753,o),
(535,761,cs),
(509,769,o),
(481,759,o),
(465,736,cs)
);
},
{
closed = 1;
nodes = (
(307,281,l),
(454,497,l),
(454,281,l)
);
},
{
alignment = -1;
pos = (478,0);
ref = acute;
}
);
width = 629;
}
);
},
{
color = 8;
glyphname = Acircumflex.alt5;
kernLeft = _A.alt5;
lastChange = "2025-05-12 18:48:11 +0000";
layers = (
{
layerId = "A0314109-5958-4499-961C-D1BD7DFF39CC";
shapes = (
{
closed = 1;
nodes = (
(32,99,l),
(12,70,o),
(20,31,o),
(48,12,cs),
(77,-8,o),
(116,0,o),
(136,28,c),
(222,156,l),
(454,156,l),
(454,64,ls),
(454,29,o),
(482,1,o),
(517,1,cs),
(552,1,o),
(580,29,o),
(580,64,cs),
(580,701,ls),
(580,729,o),
(562,753,o),
(535,761,cs),
(509,769,o),
(481,759,o),
(465,736,cs)
);
},
{
closed = 1;
nodes = (
(307,281,l),
(454,497,l),
(454,281,l)
);
},
{
alignment = -1;
pos = (325,-23);
ref = circumflex;
}
);
width = 629;
}
);
},
{
color = 8;
glyphname = Atilde.alt5;
kernLeft = _A.alt5;
lastChange = "2025-05-12 18:48:11 +0000";
layers = (
{
layerId = "A0314109-5958-4499-961C-D1BD7DFF39CC";
shapes = (
{
closed = 1;
nodes = (
(32,99,l),
(12,70,o),
(20,31,o),
(48,12,cs),
(77,-8,o),
(116,0,o),
(136,28,c),
(222,156,l),
(454,156,l),
(454,64,ls),
(454,29,o),
(482,1,o),
(517,1,cs),
(552,1,o),
(580,29,o),
(580,64,cs),
(580,701,ls),
(580,729,o),
(562,753,o),
(535,761,cs),
(509,769,o),
(481,759,o),
(465,736,cs)
);
},
{
closed = 1;
nodes = (
(307,281,l),
(454,497,l),
(454,281,l)
);
},
{
alignment = -1;
pos = (327,-5);
ref = tilde;
}
);
width = 629;
}
);
},
{
color = 8;
glyphname = M.alt5;
kernLeft = _A.alt5;
lastChange = "2025-05-12 18:48:11 +0000";
layers = (
{
layerId = "A0314109-5958-4499-961C-D1BD7DFF39CC";
shapes = (
{
closed = 1;
nodes = (
(77,-8,o),
(116,-1,o),
(135,28,cs),
(454,497,l),
(454,63,ls),
(454,36,o),
(472,11,o),
(498,3,cs),
(525,-5,o),
(553,5,o),
(569,28,cs),
(887,497,l),
(887,63,ls),
(887,28,o),
(915,0,o),
(950,0,cs),
(985,0,o),
(1013,28,o),
(1013,63,cs),
(1013,701,ls),
(1013,728,o),
(995,753,o),
(968,761,cs),
(942,769,o),
(913,759,o),
(898,736,cs),
(579,267,l),
(579,701,ls),
(579,728,o),
(561,753,o),
(535,761,cs),
(509,769,o),
(480,759,o),
(465,736,cs),
(32,99,ls),
(12,70,o),
(20,31,o),
(48,11,c)
);
}
);
width = 1063;
}
);
},
{
color = 1;
glyphname = A.alt6;
kernLeft = _A.alt1;
kernRight = _A.alt1;
lastChange = "2025-05-12 20:12:09 +0000";
layers = (
{
layerId = "A0314109-5958-4499-961C-D1BD7DFF39CC";
shapes = (
{
closed = 1;
nodes = (
(362,720,ls),
(353,746,o),
(329,763,o),
(302,763,cs),
(276,763,o),
(252,746,o),
(243,720,cs),
(24,83,ls),
(13,50,o),
(31,14,o),
(64,3,cs),
(96,-8,o),
(132,9,o),
(143,42,cs),
(182,155,l),
(423,155,l),
(462,42,l),
(470,16,o),
(495,0,o),
(521,0,cs),
(528,0,o),
(535,1,o),
(541,3,cs),
(574,14,o),
(592,50,o),
(580,83,c)
);
},
{
closed = 1;
nodes = (
(225,280,l),
(302,506,l),
(380,280,l)
);
}
);
width = 604;
}
);
},
{
color = 6;
glyphname = M.alt6;
kernLeft = _A_lb;
kernRight = _A_rb;
lastChange = "2025-05-12 19:09:12 +0000";
layers = (
{
layerId = "A0314109-5958-4499-961C-D1BD7DFF39CC";
shapes = (
{
closed = 1;
nodes = (
(521,-1,o),
(549,27,o),
(549,61,cs),
(549,532,ls),
(549,600,o),
(604,656,o),
(672,656,cs),
(741,656,o),
(796,600,o),
(796,532,cs),
(796,61,ls),
(796,27,o),
(824,-1,o),
(859,-1,cs),
(894,-1,o),
(922,27,o),
(922,61,cs),
(922,532,ls),
(922,669,o),
(810,781,o),
(672,781,cs),
(598,781,o),
(532,749,o),
(486,697,c),
(440,749,o),
(373,781,o),
(299,781,cs),
(162,781,o),
(50,669,o),
(50,532,cs),
(50,61,ls),
(50,27,o),
(78,-1,o),
(113,-1,cs),
(147,-1,o),
(175,27,o),
(175,61,cs),
(175,532,ls),
(175,600,o),
(231,656,o),
(299,656,cs),
(367,656,o),
(423,600,o),
(423,532,cs),
(423,61,ls),
(423,27,o),
(451,-1,o),
(486,-1,cs)
);
}
);
width = 972;
}
);
},
{
color = 4;
glyphname = A_V.dlig;
lastChange = "2025-05-12 17:01:30 +0000";
layers = (
{
layerId = "A0314109-5958-4499-961C-D1BD7DFF39CC";
shapes = (
{
closed = 1;
nodes = (
(67,753,o),
(49,729,o),
(49,701,cs),
(49,64,ls),
(49,29,o),
(77,1,o),
(112,1,cs),
(147,1,o),
(175,29,o),
(175,64,cs),
(175,156,l),
(407,156,l),
(493,30,l),
(504,12,o),
(523,1,o),
(545,1,cs),
(580,1,o),
(608,29,o),
(608,64,cs),
(608,76,o),
(604,89,o),
(597,99,cs),
(164,736,ls),
(149,759,o),
(120,769,o),
(94,761,cs)
);
},
{
closed = 1;
nodes = (
(175,281,l),
(175,497,l),
(322,281,l)
);
},
{
closed = 1;
nodes = (
(287,733,o),
(279,694,o),
(299,666,c),
(732,28,ls),
(744,11,o),
(763,1,o),
(784,1,cs),
(790,1,o),
(796,2,o),
(802,4,cs),
(829,12,o),
(847,36,o),
(847,64,cs),
(847,701,ls),
(847,736,o),
(819,764,o),
(784,764,cs),
(749,764,o),
(721,736,o),
(721,701,cs),
(721,268,l),
(403,736,ls),
(383,765,o),
(344,772,o),
(315,753,c)
);
}
);
width = 897;
}
);
},
{
color = 4;
glyphname = A_X.dlig;
kernRight = _a_x_rb;
lastChange = "2025-05-12 17:01:30 +0000";
layers = (
{
layerId = "A0314109-5958-4499-961C-D1BD7DFF39CC";
shapes = (
{
closed = 1;
nodes = (
(68,753,o),
(50,728,o),
(50,701,cs),
(50,63,ls),
(50,29,o),
(78,0,o),
(113,0,cs),
(147,0,o),
(175,29,o),
(175,63,cs),
(175,497,l),
(362,222,l),
(278,99,ls),
(258,70,o),
(266,31,o),
(294,11,cs),
(305,4,o),
(318,1,o),
(330,1,cs),
(350,1,o),
(370,10,o),
(382,28,cs),
(438,111,l),
(493,29,ls),
(504,12,o),
(524,1,o),
(546,1,cs),
(580,1,o),
(609,29,o),
(609,63,cs),
(609,76,o),
(605,88,o),
(598,99,cs),
(514,222,l),
(559,289,l),
(736,28,ls),
(748,10,o),
(768,1,o),
(788,1,cs),
(800,1,o),
(813,4,o),
(823,11,cs),
(852,31,o),
(859,70,o),
(840,99,cs),
(635,401,l),
(815,665,ls),
(834,694,o),
(827,733,o),
(798,753,cs),
(770,772,o),
(731,765,o),
(711,736,cs),
(559,512,l),
(407,736,ls),
(387,765,o),
(348,772,o),
(320,753,cs),
(291,733,o),
(283,694,o),
(303,665,cs),
(483,401,l),
(438,334,l),
(164,736,ls),
(149,759,o),
(120,769,o),
(94,761,cs)
);
}
);
width = 861;
}
);
},
{
color = 4;
glyphname = Aacute_V.dlig;
lastChange = "2025-05-12 17:01:30 +0000";
layers = (
{
layerId = "A0314109-5958-4499-961C-D1BD7DFF39CC";
shapes = (
{
closed = 1;
nodes = (
(67,753,o),
(49,729,o),
(49,701,cs),
(49,64,ls),
(49,29,o),
(77,1,o),
(112,1,cs),
(147,1,o),
(175,29,o),
(175,64,cs),
(175,156,l),
(407,156,l),
(493,30,l),
(504,12,o),
(523,1,o),
(545,1,cs),
(580,1,o),
(608,29,o),
(608,64,cs),
(608,76,o),
(604,89,o),
(597,99,cs),
(164,736,ls),
(149,759,o),
(120,769,o),
(94,761,cs)
);
},
{
closed = 1;
nodes = (
(175,281,l),
(175,497,l),
(322,281,l)
);
},
{
closed = 1;
nodes = (
(287,733,o),
(279,694,o),
(299,666,c),
(732,28,ls),
(744,11,o),
(763,1,o),
(784,1,cs),
(790,1,o),
(796,2,o),
(802,4,cs),
(829,12,o),
(847,36,o),
(847,64,cs),
(847,701,ls),
(847,736,o),
(819,764,o),
(784,764,cs),
(749,764,o),
(721,736,o),
(721,701,cs),
(721,268,l),
(403,736,ls),
(383,765,o),
(344,772,o),
(315,753,c)
);
},
{
alignment = -1;
pos = (10,0);
ref = acute;
}
);
width = 897;
}
);
},
{
color = 4;
glyphname = Acircumflex_V.dlig;
lastChange = "2025-05-12 17:01:51 +0000";
layers = (
{
layerId = "A0314109-5958-4499-961C-D1BD7DFF39CC";
shapes = (
{
closed = 1;
nodes = (
(67,753,o),
(49,729,o),
(49,701,cs),
(49,64,ls),
(49,29,o),
(77,1,o),
(112,1,cs),
(147,1,o),
(175,29,o),
(175,64,cs),
(175,156,l),
(407,156,l),
(493,30,l),
(504,12,o),
(523,1,o),
(545,1,cs),
(580,1,o),
(608,29,o),
(608,64,cs),
(608,76,o),
(604,89,o),
(597,99,cs),
(164,736,ls),
(149,759,o),
(120,769,o),
(94,761,cs)
);
},
{
closed = 1;
nodes = (
(175,281,l),
(175,497,l),
(322,281,l)
);
},
{
closed = 1;
nodes = (
(287,733,o),
(279,694,o),
(299,666,c),
(732,28,ls),
(744,11,o),
(763,1,o),
(784,1,cs),
(790,1,o),
(796,2,o),
(802,4,cs),
(829,12,o),
(847,36,o),
(847,64,cs),
(847,701,ls),
(847,736,o),
(819,764,o),
(784,764,cs),
(749,764,o),
(721,736,o),
(721,701,cs),
(721,268,l),
(403,736,ls),
(383,765,o),
(344,772,o),
(315,753,c)
);
},
{
alignment = -1;
pos = (-80,-23);
ref = circumflex;
}
);
width = 897;
}
);
},
{
color = 4;
glyphname = Atilde_V.dlig;
lastChange = "2025-05-12 17:01:51 +0000";
layers = (
{
layerId = "A0314109-5958-4499-961C-D1BD7DFF39CC";
shapes = (
{
closed = 1;
nodes = (
(67,753,o),
(49,729,o),
(49,701,cs),
(49,64,ls),
(49,29,o),
(77,1,o),
(112,1,cs),
(147,1,o),
(175,29,o),
(175,64,cs),
(175,156,l),
(407,156,l),
(493,30,l),
(504,12,o),
(523,1,o),
(545,1,cs),
(580,1,o),
(608,29,o),
(608,64,cs),
(608,76,o),
(604,89,o),
(597,99,cs),
(164,736,ls),
(149,759,o),
(120,769,o),
(94,761,cs)
);
},
{
closed = 1;
nodes = (
(175,281,l),
(175,497,l),
(322,281,l)
);
},
{
closed = 1;
nodes = (
(287,733,o),
(279,694,o),
(299,666,c),
(732,28,ls),
(744,11,o),
(763,1,o),
(784,1,cs),
(790,1,o),
(796,2,o),
(802,4,cs),
(829,12,o),
(847,36,o),
(847,64,cs),
(847,701,ls),
(847,736,o),
(819,764,o),
(784,764,cs),
(749,764,o),
(721,736,o),
(721,701,cs),
(721,268,l),
(403,736,ls),
(383,765,o),
(344,772,o),
(315,753,c)
);
},
{
alignment = -1;
pos = (-92,-5);
ref = tilde;
}
);
width = 897;
}
);
},
{
color = 4;
glyphname = C_A.dlig;
kernLeft = _O.Alt2_lb;
lastChange = "2025-05-12 17:01:51 +0000";
layers = (
{
layerId = "A0314109-5958-4499-961C-D1BD7DFF39CC";
shapes = (
{
closed = 1;
nodes = (
(1039,769,o),
(1011,759,o),
(995,736,cs),
(651,230,l),
(651,230,o),
(651,230,o),
(651,230,c),
(599,153,o),
(514,107,o),
(421,107,cs),
(269,107,o),
(146,230,o),
(146,382,cs),
(146,534,o),
(269,658,o),
(421,658,cs),
(513,658,o),
(599,612,o),
(650,536,cs),
(670,507,o),
(709,499,o),
(737,519,c),
(766,538,o),
(774,577,o),
(754,606,cs),
(680,717,o),
(555,783,o),
(421,783,cs),
(200,783,o),
(20,604,o),
(20,382,cs),
(20,161,o),
(200,-19,o),
(421,-19,cs),
(554,-19,o),
(677,46,o),
(752,156,c),
(984,156,l),
(984,64,ls),
(984,29,o),
(1012,1,o),
(1047,1,cs),
(1082,1,o),
(1110,29,o),
(1110,64,cs),
(1110,701,ls),
(1110,729,o),
(1092,753,o),
(1065,761,cs)
);
},
{
closed = 1;
nodes = (
(838,281,l),
(984,497,l),
(984,281,l)
);
}
);
width = 1160;
}
);
},
{
color = 4;
glyphname = C_Aacute.dlig;
kernLeft = _O.Alt2_lb;
lastChange = "2025-05-12 17:01:51 +0000";
layers = (
{
layerId = "A0314109-5958-4499-961C-D1BD7DFF39CC";
shapes = (
{
closed = 1;
nodes = (
(1039,769,o),
(1011,759,o),
(995,736,cs),
(651,230,l),
(651,230,o),
(651,230,o),
(651,230,c),
(599,153,o),
(514,107,o),
(421,107,cs),
(269,107,o),
(146,230,o),
(146,382,cs),
(146,534,o),
(269,658,o),
(421,658,cs),
(513,658,o),
(599,612,o),
(650,536,cs),
(670,507,o),
(709,499,o),
(737,519,c),
(766,538,o),
(774,577,o),
(754,606,cs),
(680,717,o),
(555,783,o),
(421,783,cs),
(200,783,o),
(20,604,o),
(20,382,cs),
(20,161,o),
(200,-19,o),
(421,-19,cs),
(554,-19,o),
(677,46,o),
(752,156,c),
(984,156,l),
(984,64,ls),
(984,29,o),
(1012,1,o),
(1047,1,cs),
(1082,1,o),
(1110,29,o),
(1110,64,cs),
(1110,701,ls),
(1110,729,o),
(1092,753,o),
(1065,761,cs)
);
},
{
closed = 1;
nodes = (
(838,281,l),
(984,497,l),
(984,281,l)
);
},
{
closed = 1;
nodes = (
(1114,792,o),
(1124,795,o),
(1133,800,cs),
(1228,856,ls),
(1255,872,o),
(1264,906,o),
(1248,933,cs),
(1233,960,o),
(1198,969,o),
(1171,953,cs),
(1076,897,ls),
(1049,881,o),
(1040,847,o),
(1056,820,cs),
(1066,802,o),
(1085,792,o),
(1104,792,cs)
);
}
);
width = 1160;
}
);
},
{
color = 4;
glyphname = C_Acircumflex.dlig;
kernLeft = _O.Alt2_lb;
lastChange = "2025-05-12 17:01:51 +0000";
layers = (
{
layerId = "A0314109-5958-4499-961C-D1BD7DFF39CC";
shapes = (
{
closed = 1;
nodes = (
(1039,769,o),
(1011,759,o),
(995,736,cs),
(651,230,l),
(651,230,o),
(651,230,o),
(651,230,c),
(599,153,o),
(514,107,o),
(421,107,cs),
(269,107,o),
(146,230,o),
(146,382,cs),
(146,534,o),
(269,658,o),
(421,658,cs),
(513,658,o),
(599,612,o),
(650,536,cs),
(670,507,o),
(709,499,o),
(737,519,c),
(766,538,o),
(774,577,o),
(754,606,cs),
(680,717,o),
(555,783,o),
(421,783,cs),
(200,783,o),
(20,604,o),
(20,382,cs),
(20,161,o),
(200,-19,o),
(421,-19,cs),
(554,-19,o),
(677,46,o),
(752,156,c),
(984,156,l),
(984,64,ls),
(984,29,o),
(1012,1,o),
(1047,1,cs),
(1082,1,o),
(1110,29,o),
(1110,64,cs),
(1110,701,ls),
(1110,729,o),
(1092,753,o),
(1065,761,cs)
);
},
{
closed = 1;
nodes = (
(838,281,l),
(984,497,l),
(984,281,l)
);
},
{
closed = 1;
nodes = (
(1047,804,l),
(1113,765,ls),
(1122,760,o),
(1132,757,o),
(1142,757,cs),
(1161,757,o),
(1180,767,o),
(1191,785,cs),
(1206,812,o),
(1197,847,o),
(1171,862,cs),
(1075,918,l),
(1058,929,o),
(1036,929,o),
(1018,918,cs),
(923,862,ls),
(896,847,o),
(887,812,o),
(903,785,cs),
(918,758,o),
(953,749,o),
(980,765,c)
);
}
);
width = 1160;
}
);
},
{
color = 4;
glyphname = C_Atilde.dlig;
kernLeft = _O.Alt2_lb;
lastChange = "2025-05-12 17:01:51 +0000";
layers = (
{
layerId = "A0314109-5958-4499-961C-D1BD7DFF39CC";
shapes = (
{
closed = 1;
nodes = (
(1039,769,o),
(1011,759,o),
(995,736,cs),
(651,230,l),
(651,230,o),
(651,230,o),
(651,230,c),
(599,153,o),
(514,107,o),
(421,107,cs),
(269,107,o),
(146,230,o),
(146,382,cs),
(146,534,o),
(269,658,o),
(421,658,cs),
(513,658,o),
(599,612,o),
(650,536,cs),
(670,507,o),
(709,499,o),
(737,519,c),
(766,538,o),
(774,577,o),
(754,606,cs),
(680,717,o),
(555,783,o),
(421,783,cs),
(200,783,o),
(20,604,o),
(20,382,cs),
(20,161,o),
(200,-19,o),
(421,-19,cs),
(554,-19,o),
(677,46,o),
(752,156,c),
(984,156,l),
(984,64,ls),
(984,29,o),
(1012,1,o),
(1047,1,cs),
(1082,1,o),
(1110,29,o),
(1110,64,cs),
(1110,701,ls),
(1110,729,o),
(1092,753,o),
(1065,761,cs)
);
},
{
closed = 1;
nodes = (
(838,281,l),
(984,497,l),
(984,281,l)
);
},
{
closed = 1;
nodes = (
(1150,782,o),
(1184,795,o),
(1214,822,cs),
(1237,843,o),
(1239,879,o),
(1218,902,cs),
(1197,925,o),
(1162,927,o),
(1138,906,cs),
(1128,897,o),
(1121,895,o),
(1112,895,cs),
(1105,895,o),
(1099,898,o),
(1095,901,cs),
(1071,915,o),
(1045,923,o),
(1018,923,cs),
(980,923,o),
(946,910,o),
(916,883,cs),
(893,862,o),
(891,827,o),
(912,803,cs),
(933,780,o),
(968,778,o),
(992,799,cs),
(1002,808,o),
(1010,810,o),
(1018,810,cs),
(1025,810,o),
(1031,807,o),
(1035,805,cs),
(1059,790,o),
(1086,782,o),
(1112,782,cs)
);
}
);
width = 1160;
}
);
},
{
color = 4;
glyphname = C_O.dlig;
kernLeft = _O.Alt2_lb;
kernRight = _O.alt2_rb;
lastChange = "2025-05-12 17:01:51 +0000";
layers = (
{
layerId = "A0314109-5958-4499-961C-D1BD7DFF39CC";
shapes = (
{
closed = 1;
nodes = (
(1038,-19,o),
(1217,161,o),
(1217,382,cs),
(1217,603,o),
(1038,783,o),
(816,783,cs),
(745,783,o),
(677,764,o),
(619,731,c),
(560,764,o),
(492,783,o),
(421,783,cs),
(200,783,o),
(20,603,o),
(20,382,cs),
(20,161,o),
(200,-19,o),
(421,-19,cs),
(492,-19,o),
(560,-1,o),
(619,33,c),
(677,0,o),
(745,-19,o),
(816,-19,cs)
);
},
{
closed = 1;
nodes = (
(1092,230,o),
(968,106,o),
(816,106,cs),
(785,106,o),
(754,112,o),
(726,121,c),
(759,160,o),
(785,206,o),
(802,257,cs),
(813,290,o),
(795,325,o),
(762,336,cs),
(729,347,o),
(693,329,o),
(683,296,c),
(669,255,o),
(647,219,o),
(619,190,c),
(571,240,o),
(541,307,o),
(541,382,cs),
(541,456,o),
(571,524,o),
(619,574,c),
(647,544,o),
(669,509,o),
(682,468,cs),
(693,435,o),
(729,417,o),
(762,428,cs),
(795,439,o),
(812,475,o),
(802,508,c),
(785,558,o),
(759,603,o),
(726,642,c),
(754,652,o),
(785,657,o),
(816,657,cs),
(968,657,o),
(1092,534,o),
(1092,382,cs)
);
},
{
closed = 1;
nodes = (
(145,534,o),
(269,657,o),
(421,657,cs),
(452,657,o),
(483,652,o),
(511,642,c),
(451,572,o),
(415,481,o),
(415,382,cs),
(415,283,o),
(451,192,o),
(511,121,c),
(483,112,o),
(452,106,o),
(421,106,cs),
(269,106,o),
(145,230,o),
(145,382,cs)
);
}
);
width = 1237;
}
);
},
{
color = 4;
glyphname = C_O_M.dlig;
kernLeft = _O.Alt2_lb;
lastChange = "2025-05-12 17:01:51 +0000";
layers = (
{
layerId = "A0314109-5958-4499-961C-D1BD7DFF39CC";
shapes = (
{
closed = 1;
nodes = (
(1867,768,o),
(1839,758,o),
(1823,735,cs),
(1505,267,l),
(1505,700,ls),
(1505,728,o),
(1487,752,o),
(1460,760,cs),
(1434,768,o),
(1406,758,o),
(1390,735,cs),
(1208,468,l),
(1169,647,o),
(1008,782,o),
(816,782,cs),
(745,782,o),
(677,763,o),
(619,730,c),
(560,764,o),
(492,782,o),
(421,782,cs),
(200,782,o),
(20,603,o),
(20,381,cs),
(20,160,o),
(200,-20,o),
(421,-20,cs),
(492,-20,o),
(560,-1,o),
(619,32,c),
(677,-1,o),
(745,-20,o),
(816,-20,cs),
(953,-20,o),
(1074,49,o),
(1147,154,c),
(1147,155,o),
(1148,156,o),
(1149,157,c),
(1379,496,l),
(1379,63,ls),
(1379,35,o),
(1397,11,o),
(1424,3,cs),
(1450,-5,o),
(1478,5,o),
(1494,27,c),
(1812,496,l),
(1812,63,ls),
(1812,28,o),
(1841,0,o),
(1875,0,cs),
(1910,0,o),
(1938,28,o),
(1938,63,cs),
(1938,700,ls),
(1938,728,o),
(1920,752,o),
(1894,760,cs)
);
},
{
closed = 1;
nodes = (
(145,533,o),
(269,657,o),
(421,657,cs),
(452,657,o),
(483,652,o),
(511,642,c),
(451,572,o),
(415,481,o),
(415,381,cs),
(415,282,o),
(451,191,o),
(511,121,c),
(483,111,o),
(452,106,o),
(421,106,cs),
(269,106,o),
(145,229,o),
(145,381,cs)
);
},
{
closed = 1;
nodes = (
(785,106,o),
(754,111,o),
(726,121,c),
(759,160,o),
(785,206,o),
(802,256,cs),
(813,289,o),
(795,325,o),
(762,335,cs),
(729,346,o),
(693,328,o),
(683,295,c),
(669,255,o),
(647,219,o),
(619,190,c),
(571,239,o),
(541,307,o),
(541,381,cs),
(541,456,o),
(571,523,o),
(619,573,c),
(647,544,o),
(669,508,o),
(682,468,cs),
(693,435,o),
(729,417,o),
(762,428,cs),
(795,439,o),
(812,474,o),
(802,507,c),
(785,558,o),
(759,603,o),
(726,642,c),
(754,651,o),
(785,657,o),
(816,657,cs),
(968,657,o),
(1092,533,o),
(1092,381,cs),
(1092,229,o),
(968,106,o),
(816,106,cs)
);
}
);
width = 1988;
}
);
},
{
color = 4;
glyphname = C_O_O.dlig;
kernLeft = _O.Alt2_lb;
kernRight = _O.alt2_rb;
lastChange = "2025-05-12 17:01:51 +0000";
layers = (
{
layerId = "A0314109-5958-4499-961C-D1BD7DFF39CC";
shapes = (
{
closed = 1;
nodes = (
(1188,782,o),
(1118,762,o),
(1058,725,c),
(997,762,o),
(927,782,o),
(851,782,cs),
(772,782,o),
(699,760,o),
(637,720,c),
(574,760,o),
(500,782,o),
(422,782,cs),
(200,782,o),
(20,603,o),
(20,381,cs),
(20,160,o),
(200,-20,o),
(422,-20,cs),
(500,-20,o),
(574,3,o),
(637,43,c),
(699,3,o),
(772,-20,o),
(851,-20,cs),
(927,-20,o),
(997,1,o),
(1058,38,c),
(1118,1,o),
(1188,-20,o),
(1264,-20,cs),
(1485,-20,o),
(1665,160,o),
(1665,381,cs),
(1665,488,o),
(1623,589,o),
(1546,665,cs),
(1470,741,o),
(1370,782,o),
(1264,782,cs)
);
},
{
closed = 1;
nodes = (
(1015,248,o),
(988,311,o),
(988,381,cs),
(988,451,o),
(1015,515,o),
(1058,564,c),
(1101,515,o),
(1127,451,o),
(1127,381,cs),
(1127,311,o),
(1101,248,o),
(1058,199,c)
);
},
{
closed = 1;
nodes = (
(146,533,o),
(270,657,o),
(422,657,cs),
(463,657,o),
(502,648,o),
(538,631,c),
(483,563,o),
(450,476,o),
(450,381,cs),
(450,287,o),
(483,200,o),
(538,131,c),
(502,115,o),
(463,106,o),
(422,106,cs),
(270,106,o),
(146,229,o),
(146,381,cs)
);
},
{
closed = 1;
nodes = (
(764,168,o),
(787,210,o),
(803,256,c),
(813,289,o),
(796,325,o),
(763,335,cs),
(730,346,o),
(694,328,o),
(683,295,cs),
(673,263,o),
(657,234,o),
(637,209,c),
(599,256,o),
(576,316,o),
(576,381,cs),
(576,447,o),
(599,507,o),
(637,554,c),
(657,529,o),
(673,500,o),
(683,468,cs),
(694,435,o),
(730,417,o),
(762,428,cs),
(795,439,o),
(813,474,o),
(802,507,cs),
(787,553,o),
(764,595,o),
(735,631,c),
(771,648,o),
(810,657,o),
(851,657,cs),
(888,657,o),
(923,650,o),
(955,637,c),
(897,567,o),
(863,478,o),
(863,381,cs),
(863,284,o),
(897,196,o),
(955,126,c),
(923,113,o),
(888,106,o),
(851,106,cs),
(810,106,o),
(771,115,o),
(735,131,c)
);
},
{
closed = 1;
nodes = (
(1227,106,o),
(1192,113,o),
(1160,126,c),
(1218,196,o),
(1252,284,o),
(1252,381,cs),
(1252,478,o),
(1218,567,o),
(1160,637,c),
(1192,650,o),
(1227,657,o),
(1264,657,cs),
(1413,657,o),
(1539,531,o),
(1539,381,cs),
(1539,229,o),
(1416,106,o),
(1264,106,cs)
);
}
);
width = 1685;
}
);
},
{
color = 4;
glyphname = C_O_Oacute.dlig;
kernLeft = _O.Alt2_lb;
kernRight = _O.alt2_rb;
lastChange = "2025-05-12 17:01:51 +0000";
layers = (
{
layerId = "A0314109-5958-4499-961C-D1BD7DFF39CC";
shapes = (
{
closed = 1;
nodes = (
(1188,782,o),
(1118,762,o),
(1058,725,c),
(997,762,o),
(927,782,o),
(851,782,cs),
(772,782,o),
(699,760,o),
(637,720,c),
(574,760,o),
(500,782,o),
(422,782,cs),
(200,782,o),
(20,603,o),
(20,381,cs),
(20,160,o),
(200,-20,o),
(422,-20,cs),
(500,-20,o),
(574,3,o),
(637,43,c),
(699,3,o),
(772,-20,o),
(851,-20,cs),
(927,-20,o),
(997,1,o),
(1058,38,c),
(1118,1,o),
(1188,-20,o),
(1264,-20,cs),
(1485,-20,o),
(1665,160,o),
(1665,381,cs),
(1665,488,o),
(1623,589,o),
(1546,665,cs),
(1470,741,o),
(1370,782,o),
(1264,782,cs)
);
},
{
closed = 1;
nodes = (
(1015,248,o),
(988,311,o),
(988,381,cs),
(988,451,o),
(1015,515,o),
(1058,564,c),
(1101,515,o),
(1127,451,o),
(1127,381,cs),
(1127,311,o),
(1101,248,o),
(1058,199,c)
);
},
{
closed = 1;
nodes = (
(146,533,o),
(270,657,o),
(422,657,cs),
(463,657,o),
(502,648,o),
(538,631,c),
(483,563,o),
(450,476,o),
(450,381,cs),
(450,287,o),
(483,200,o),
(538,131,c),
(502,115,o),
(463,106,o),
(422,106,cs),
(270,106,o),
(146,229,o),
(146,381,cs)
);
},
{
closed = 1;
nodes = (
(764,168,o),
(787,210,o),
(803,256,c),
(813,289,o),
(796,325,o),
(763,335,cs),
(730,346,o),
(694,328,o),
(683,295,cs),
(673,263,o),
(657,234,o),
(637,209,c),
(599,256,o),
(576,316,o),
(576,381,cs),
(576,447,o),
(599,507,o),
(637,554,c),
(657,529,o),
(673,500,o),
(683,468,cs),
(694,435,o),
(730,417,o),
(762,428,cs),
(795,439,o),
(813,474,o),
(802,507,cs),
(787,553,o),
(764,595,o),
(735,631,c),
(771,648,o),
(810,657,o),
(851,657,cs),
(888,657,o),
(923,650,o),
(955,637,c),
(897,567,o),
(863,478,o),
(863,381,cs),
(863,284,o),
(897,196,o),
(955,126,c),
(923,113,o),
(888,106,o),
(851,106,cs),
(810,106,o),
(771,115,o),
(735,131,c)
);
},
{
closed = 1;
nodes = (
(1227,106,o),
(1192,113,o),
(1160,126,c),
(1218,196,o),
(1252,284,o),
(1252,381,cs),
(1252,478,o),
(1218,567,o),
(1160,637,c),
(1192,650,o),
(1227,657,o),
(1264,657,cs),
(1413,657,o),
(1539,531,o),
(1539,381,cs),
(1539,229,o),
(1416,106,o),
(1264,106,cs)
);
},
{
alignment = -1;
pos = (1278,0);
ref = acute;
}
);
width = 1685;
}
);
},
{
color = 4;
glyphname = C_Oacute.dlig;
kernLeft = _O.Alt2_lb;
kernRight = _O.alt2_rb;
lastChange = "2025-05-12 17:01:51 +0000";
layers = (
{
layerId = "A0314109-5958-4499-961C-D1BD7DFF39CC";
shapes = (
{
closed = 1;
nodes = (
(1038,-19,o),
(1217,161,o),
(1217,382,cs),
(1217,603,o),
(1038,783,o),
(816,783,cs),
(745,783,o),
(677,764,o),
(619,731,c),
(560,764,o),
(492,783,o),
(421,783,cs),
(200,783,o),
(20,603,o),
(20,382,cs),
(20,161,o),
(200,-19,o),
(421,-19,cs),
(492,-19,o),
(560,-1,o),
(619,33,c),
(677,0,o),
(745,-19,o),
(816,-19,cs)
);
},
{
closed = 1;
nodes = (
(1092,230,o),
(968,106,o),
(816,106,cs),
(785,106,o),
(754,112,o),
(726,121,c),
(759,160,o),
(785,206,o),
(802,257,cs),
(813,290,o),
(795,325,o),
(762,336,cs),
(729,347,o),
(693,329,o),
(683,296,c),
(669,255,o),
(647,219,o),
(619,190,c),
(571,240,o),
(541,307,o),
(541,382,cs),
(541,456,o),
(571,524,o),
(619,574,c),
(647,544,o),
(669,509,o),
(682,468,cs),
(693,435,o),
(729,417,o),
(762,428,cs),
(795,439,o),
(812,475,o),
(802,508,c),
(785,558,o),
(759,603,o),
(726,642,c),
(754,652,o),
(785,657,o),
(816,657,cs),
(968,657,o),
(1092,534,o),
(1092,382,cs)
);
},
{
closed = 1;
nodes = (
(145,534,o),
(269,657,o),
(421,657,cs),
(452,657,o),
(483,652,o),
(511,642,c),
(451,572,o),
(415,481,o),
(415,382,cs),
(415,283,o),
(451,192,o),
(511,121,c),
(483,112,o),
(452,106,o),
(421,106,cs),
(269,106,o),
(145,230,o),
(145,382,cs)
);
},
{
alignment = -1;
pos = (830,0);
ref = acute;
}
);
width = 1237;
}
);
},
{
color = 4;
glyphname = C_Oacute_M.dlig;
kernLeft = _O.Alt2_lb;
lastChange = "2025-05-12 17:01:51 +0000";
layers = (
{
layerId = "A0314109-5958-4499-961C-D1BD7DFF39CC";
shapes = (
{
closed = 1;
nodes = (
(1867,768,o),
(1839,758,o),
(1823,735,cs),
(1505,267,l),
(1505,700,ls),
(1505,728,o),
(1487,752,o),
(1460,760,cs),
(1434,768,o),
(1406,758,o),
(1390,735,cs),
(1208,468,l),
(1169,647,o),
(1008,782,o),
(816,782,cs),
(745,782,o),
(677,763,o),
(619,730,c),
(560,764,o),
(492,782,o),
(421,782,cs),
(200,782,o),
(20,603,o),
(20,381,cs),
(20,160,o),
(200,-20,o),
(421,-20,cs),
(492,-20,o),
(560,-1,o),
(619,32,c),
(677,-1,o),
(745,-20,o),
(816,-20,cs),
(953,-20,o),
(1074,49,o),
(1147,154,c),
(1147,155,o),
(1148,156,o),
(1149,157,c),
(1379,496,l),
(1379,63,ls),
(1379,35,o),
(1397,11,o),
(1424,3,cs),
(1450,-5,o),
(1478,5,o),
(1494,27,c),
(1812,496,l),
(1812,63,ls),
(1812,28,o),
(1841,0,o),
(1875,0,cs),
(1910,0,o),
(1938,28,o),
(1938,63,cs),
(1938,700,ls),
(1938,728,o),
(1920,752,o),
(1894,760,cs)
);
},
{
closed = 1;
nodes = (
(145,533,o),
(269,657,o),
(421,657,cs),
(452,657,o),
(483,652,o),
(511,642,c),
(451,572,o),
(415,481,o),
(415,381,cs),
(415,282,o),
(451,191,o),
(511,121,c),
(483,111,o),
(452,106,o),
(421,106,cs),
(269,106,o),
(145,229,o),
(145,381,cs)
);
},
{
closed = 1;
nodes = (
(785,106,o),
(754,111,o),
(726,121,c),
(759,160,o),
(785,206,o),
(802,256,cs),
(813,289,o),
(795,325,o),
(762,335,cs),
(729,346,o),
(693,328,o),
(683,295,c),
(669,255,o),
(647,219,o),
(619,190,c),
(571,239,o),
(541,307,o),
(541,381,cs),
(541,456,o),
(571,523,o),
(619,573,c),
(647,544,o),
(669,508,o),
(682,468,cs),
(693,435,o),
(729,417,o),
(762,428,cs),
(795,439,o),
(812,474,o),
(802,507,c),
(785,558,o),
(759,603,o),
(726,642,c),
(754,651,o),
(785,657,o),
(816,657,cs),
(968,657,o),
(1092,533,o),
(1092,381,cs),
(1092,229,o),
(968,106,o),
(816,106,cs)
);
},
{
alignment = -1;
pos = (831,0);
ref = acute;
}
);
width = 1988;
}
);
},
{
color = 4;
glyphname = C_Ocircumflex.dlig;
kernLeft = _O.Alt2_lb;
kernRight = _O.alt2_rb;
lastChange = "2025-05-12 17:01:51 +0000";
layers = (
{
layerId = "A0314109-5958-4499-961C-D1BD7DFF39CC";
shapes = (
{
closed = 1;
nodes = (
(1038,-19,o),
(1217,161,o),
(1217,382,cs),
(1217,603,o),
(1038,783,o),
(816,783,cs),
(745,783,o),
(677,764,o),
(619,731,c),
(560,764,o),
(492,783,o),
(421,783,cs),
(200,783,o),
(20,603,o),
(20,382,cs),
(20,161,o),
(200,-19,o),
(421,-19,cs),
(492,-19,o),
(560,-1,o),
(619,33,c),
(677,0,o),
(745,-19,o),
(816,-19,cs)
);
},
{
closed = 1;
nodes = (
(1092,230,o),
(968,106,o),
(816,106,cs),
(785,106,o),
(754,112,o),
(726,121,c),
(759,160,o),
(785,206,o),
(802,257,cs),
(813,290,o),
(795,325,o),
(762,336,cs),
(729,347,o),
(693,329,o),
(683,296,c),
(669,255,o),
(647,219,o),
(619,190,c),
(571,240,o),
(541,307,o),
(541,382,cs),
(541,456,o),
(571,524,o),
(619,574,c),
(647,544,o),
(669,509,o),
(682,468,cs),
(693,435,o),
(729,417,o),
(762,428,cs),
(795,439,o),
(812,475,o),
(802,508,c),
(785,558,o),
(759,603,o),
(726,642,c),
(754,652,o),
(785,657,o),
(816,657,cs),
(968,657,o),
(1092,534,o),
(1092,382,cs)
);
},
{
closed = 1;
nodes = (
(145,534,o),
(269,657,o),
(421,657,cs),
(452,657,o),
(483,652,o),
(511,642,c),
(451,572,o),
(415,481,o),
(415,382,cs),
(415,283,o),
(451,192,o),
(511,121,c),
(483,112,o),
(452,106,o),
(421,106,cs),
(269,106,o),
(145,230,o),
(145,382,cs)
);
},
{
alignment = -1;
pos = (619,9);
ref = circumflex;
}
);
width = 1237;
}
);
},
{
color = 4;
glyphname = C_Ocircumflex_m.dlig;
kernLeft = _O.Alt2_lb;
lastChange = "2025-05-12 17:01:51 +0000";
layers = (
{
layerId = "A0314109-5958-4499-961C-D1BD7DFF39CC";
shapes = (
{
closed = 1;
nodes = (
(1867,768,o),
(1839,758,o),
(1823,735,cs),
(1505,267,l),
(1505,700,ls),
(1505,728,o),
(1487,752,o),
(1460,760,cs),
(1434,768,o),
(1406,758,o),
(1390,735,cs),
(1208,468,l),
(1169,647,o),
(1008,782,o),
(816,782,cs),
(745,782,o),
(677,763,o),
(619,730,c),
(560,764,o),
(492,782,o),
(421,782,cs),
(200,782,o),
(20,603,o),
(20,381,cs),
(20,160,o),
(200,-20,o),
(421,-20,cs),
(492,-20,o),
(560,-1,o),
(619,32,c),
(677,-1,o),
(745,-20,o),
(816,-20,cs),
(953,-20,o),
(1074,49,o),
(1147,154,c),
(1147,155,o),
(1148,156,o),
(1149,157,c),
(1379,496,l),
(1379,63,ls),
(1379,35,o),
(1397,11,o),
(1424,3,cs),
(1450,-5,o),
(1478,5,o),
(1494,27,c),
(1812,496,l),
(1812,63,ls),
(1812,28,o),
(1841,0,o),
(1875,0,cs),
(1910,0,o),
(1938,28,o),
(1938,63,cs),
(1938,700,ls),
(1938,728,o),
(1920,752,o),
(1894,760,cs)
);
},
{
closed = 1;
nodes = (
(145,533,o),
(269,657,o),
(421,657,cs),
(452,657,o),
(483,652,o),
(511,642,c),
(451,572,o),
(415,481,o),
(415,381,cs),
(415,282,o),
(451,191,o),
(511,121,c),
(483,111,o),
(452,106,o),
(421,106,cs),
(269,106,o),
(145,229,o),
(145,381,cs)
);
},
{
closed = 1;
nodes = (
(785,106,o),
(754,111,o),
(726,121,c),
(759,160,o),
(785,206,o),
(802,256,cs),
(813,289,o),
(795,325,o),
(762,335,cs),
(729,346,o),
(693,328,o),
(683,295,c),
(669,255,o),
(647,219,o),
(619,190,c),
(571,239,o),
(541,307,o),
(541,381,cs),
(541,456,o),
(571,523,o),
(619,573,c),
(647,544,o),
(669,508,o),
(682,468,cs),
(693,435,o),
(729,417,o),
(762,428,cs),
(795,439,o),
(812,474,o),
(802,507,c),
(785,558,o),
(759,603,o),
(726,642,c),
(754,651,o),
(785,657,o),
(816,657,cs),
(968,657,o),
(1092,533,o),
(1092,381,cs),
(1092,229,o),
(968,106,o),
(816,106,cs)
);
},
{
alignment = -1;
pos = (618,9);
ref = circumflex;
}
);
width = 1988;
}
);
},
{
color = 4;
glyphname = C_Otilde.dlig;
kernLeft = _O.Alt2_lb;
kernRight = _O.alt2_rb;
lastChange = "2025-05-12 17:01:51 +0000";
layers = (
{
layerId = "A0314109-5958-4499-961C-D1BD7DFF39CC";
shapes = (
{
closed = 1;
nodes = (
(1038,-19,o),
(1217,161,o),
(1217,382,cs),
(1217,603,o),
(1038,783,o),
(816,783,cs),
(745,783,o),
(677,764,o),
(619,731,c),
(560,764,o),
(492,783,o),
(421,783,cs),
(200,783,o),
(20,603,o),
(20,382,cs),
(20,161,o),
(200,-19,o),
(421,-19,cs),
(492,-19,o),
(560,-1,o),
(619,33,c),
(677,0,o),
(745,-19,o),
(816,-19,cs)
);
},
{
closed = 1;
nodes = (
(1092,230,o),
(968,106,o),
(816,106,cs),
(785,106,o),
(754,112,o),
(726,121,c),
(759,160,o),
(785,206,o),
(802,257,cs),
(813,290,o),
(795,325,o),
(762,336,cs),
(729,347,o),
(693,329,o),
(683,296,c),
(669,255,o),
(647,219,o),
(619,190,c),
(571,240,o),
(541,307,o),
(541,382,cs),
(541,456,o),
(571,524,o),
(619,574,c),
(647,544,o),
(669,509,o),
(682,468,cs),
(693,435,o),
(729,417,o),
(762,428,cs),
(795,439,o),
(812,475,o),
(802,508,c),
(785,558,o),
(759,603,o),
(726,642,c),
(754,652,o),
(785,657,o),
(816,657,cs),
(968,657,o),
(1092,534,o),
(1092,382,cs)
);
},
{
closed = 1;
nodes = (
(145,534,o),
(269,657,o),
(421,657,cs),
(452,657,o),
(483,652,o),
(511,642,c),
(451,572,o),
(415,481,o),
(415,382,cs),
(415,283,o),
(451,192,o),
(511,121,c),
(483,112,o),
(452,106,o),
(421,106,cs),
(269,106,o),
(145,230,o),
(145,382,cs)
);
},
{
alignment = -1;
pos = (607,13);
ref = tilde;
}
);
width = 1237;
}
);
},
{
color = 4;
glyphname = Ccedilla_A.dlig;
kernLeft = _O.Alt2_lb;
lastChange = "2025-05-12 17:01:51 +0000";
layers = (
{
layerId = "A0314109-5958-4499-961C-D1BD7DFF39CC";
shapes = (
{
closed = 1;
nodes = (
(839,281,l),
(985,497,l),
(985,281,l)
);
},
{
closed = 1;
nodes = (
(464,-151,l),
(495,-151,o),
(520,-126,o),
(520,-94,cs),
(520,-63,o),
(495,-38,o),
(464,-38,cs),
(368,-38,ls),
(337,-38,o),
(312,-63,o),
(312,-94,cs),
(312,-126,o),
(337,-151,o),
(368,-151,cs)
);
},
{
closed = 1;
nodes = (
(513,657,o),
(599,611,o),
(650,535,cs),
(670,506,o),
(709,498,o),
(737,518,c),
(766,537,o),
(774,576,o),
(754,605,cs),
(680,716,o),
(555,782,o),
(421,782,c),
(200,782,o),
(20,602,o),
(20,381,cs),
(20,160,o),
(200,-20,o),
(421,-20,cs),
(557,-20,o),
(680,48,o),
(753,156,c),
(985,156,l),
(985,64,ls),
(985,29,o),
(1013,1,o),
(1048,1,cs),
(1083,1,o),
(1111,29,o),
(1111,64,cs),
(1111,701,ls),
(1111,729,o),
(1093,753,o),
(1066,761,cs),
(1040,769,o),
(1012,759,o),
(996,736,cs),
(652,230,l),
(602,154,o),
(516,106,o),
(421,106,cs),
(269,106,o),
(146,229,o),
(146,381,cs),
(146,533,o),
(269,657,o),
(421,657,cs)
);
}
);
width = 1161;
}
);
},
{
color = 4;
glyphname = Ccedilla_Aacute.dlig;
kernLeft = _O.Alt2_lb;
lastChange = "2025-05-12 17:01:51 +0000";
layers = (
{
layerId = "A0314109-5958-4499-961C-D1BD7DFF39CC";
shapes = (
{
closed = 1;
nodes = (
(839,281,l),
(985,497,l),
(985,281,l)
);
},
{
closed = 1;
nodes = (
(464,-151,l),
(495,-151,o),
(520,-126,o),
(520,-94,cs),
(520,-63,o),
(495,-38,o),
(464,-38,cs),
(368,-38,ls),
(337,-38,o),
(312,-63,o),
(312,-94,cs),
(312,-126,o),
(337,-151,o),
(368,-151,cs)
);
},
{
closed = 1;
nodes = (
(513,657,o),
(599,611,o),
(650,535,cs),
(670,506,o),
(709,498,o),
(737,518,c),
(766,537,o),
(774,576,o),
(754,605,cs),
(680,716,o),
(555,782,o),
(421,782,cs),
(200,782,o),
(20,602,o),
(20,381,cs),
(20,160,o),
(200,-20,o),
(421,-20,cs),
(557,-20,o),
(680,48,o),
(753,156,c),
(985,156,l),
(985,64,ls),
(985,29,o),
(1013,1,o),
(1048,1,cs),
(1083,1,o),
(1111,29,o),
(1111,64,cs),
(1111,701,ls),
(1111,729,o),
(1093,753,o),
(1066,761,cs),
(1040,769,o),
(1012,759,o),
(996,736,cs),
(652,230,l),
(602,154,o),
(516,106,o),
(421,106,cs),
(269,106,o),
(146,229,o),
(146,381,cs),
(146,533,o),
(269,657,o),
(421,657,cs)
);
},
{
alignment = -1;
pos = (1008,0);
ref = acute;
}
);
width = 1160;
}
);
},
{
color = 4;
glyphname = Ccedilla_Acircumflex.dlig;
kernLeft = _O.Alt2_lb;
lastChange = "2025-05-12 17:01:51 +0000";
layers = (
{
layerId = "A0314109-5958-4499-961C-D1BD7DFF39CC";
shapes = (
{
closed = 1;
nodes = (
(839,281,l),
(985,497,l),
(985,281,l)
);
},
{
closed = 1;
nodes = (
(464,-151,l),
(495,-151,o),
(520,-126,o),
(520,-94,cs),
(520,-63,o),
(495,-38,o),
(464,-38,cs),
(368,-38,ls),
(337,-38,o),
(312,-63,o),
(312,-94,cs),
(312,-126,o),
(337,-151,o),
(368,-151,cs)
);
},
{
closed = 1;
nodes = (
(513,657,o),
(599,611,o),
(650,535,cs),
(670,506,o),
(709,498,o),
(737,518,c),
(766,537,o),
(774,576,o),
(754,605,cs),
(680,716,o),
(555,782,o),
(421,782,cs),
(200,782,o),
(20,602,o),
(20,381,cs),
(20,160,o),
(200,-20,o),
(421,-20,cs),
(557,-20,o),
(680,48,o),
(753,156,c),
(985,156,l),
(985,64,ls),
(985,29,o),
(1013,1,o),
(1048,1,cs),
(1083,1,o),
(1111,29,o),
(1111,64,cs),
(1111,701,ls),
(1111,729,o),
(1093,753,o),
(1066,761,cs),
(1040,769,o),
(1012,759,o),
(996,736,cs),
(652,230,l),
(602,154,o),
(516,106,o),
(421,106,cs),
(269,106,o),
(146,229,o),
(146,381,cs),
(146,533,o),
(269,657,o),
(421,657,cs)
);
},
{
alignment = -1;
pos = (855,-23);
ref = circumflex;
}
);
width = 1160;
}
);
},
{
color = 4;
glyphname = Ccedilla_Atilde.dlig;
kernLeft = _O.Alt2_lb;
lastChange = "2025-05-12 17:01:51 +0000";
layers = (
{
layerId = "A0314109-5958-4499-961C-D1BD7DFF39CC";
shapes = (
{
closed = 1;
nodes = (
(839,281,l),
(985,497,l),
(985,281,l)
);
},
{
closed = 1;
nodes = (
(464,-151,l),
(495,-151,o),
(520,-126,o),
(520,-94,cs),
(520,-63,o),
(495,-38,o),
(464,-38,cs),
(368,-38,ls),
(337,-38,o),
(312,-63,o),
(312,-94,cs),
(312,-126,o),
(337,-151,o),
(368,-151,cs)
);
},
{
closed = 1;
nodes = (
(513,657,o),
(599,611,o),
(650,535,cs),
(670,506,o),
(709,498,o),
(737,518,c),
(766,537,o),
(774,576,o),
(754,605,cs),
(680,716,o),
(555,782,o),
(421,782,cs),
(200,782,o),
(20,602,o),
(20,381,cs),
(20,160,o),
(200,-20,o),
(421,-20,cs),
(557,-20,o),
(680,48,o),
(753,156,c),
(985,156,l),
(985,64,ls),
(985,29,o),
(1013,1,o),
(1048,1,cs),
(1083,1,o),
(1111,29,o),
(1111,64,cs),
(1111,701,ls),
(1111,729,o),
(1093,753,o),
(1066,761,cs),
(1040,769,o),
(1012,759,o),
(996,736,cs),
(652,230,l),
(602,154,o),
(516,106,o),
(421,106,cs),
(269,106,o),
(146,229,o),
(146,381,cs),
(146,533,o),
(269,657,o),
(421,657,cs)
);
},
{
alignment = -1;
pos = (857,-5);
ref = tilde;
}
);
width = 1160;
}
);
},
{
color = 4;
glyphname = Ccedilla_O.dlig;
kernLeft = _O.Alt2_lb;
kernRight = _O.alt2_rb;
lastChange = "2025-05-12 17:01:51 +0000";
layers = (
{
layerId = "A0314109-5958-4499-961C-D1BD7DFF39CC";
shapes = (
{
closed = 1;
nodes = (
(1037,-19,o),
(1217,161,o),
(1217,382,cs),
(1217,603,o),
(1037,783,o),
(816,783,cs),
(744,783,o),
(677,764,o),
(619,731,c),
(560,764,o),
(492,783,o),
(421,783,cs),
(200,783,o),
(20,603,o),
(20,382,cs),
(20,161,o),
(200,-19,o),
(421,-19,cs),
(492,-19,o),
(560,0,o),
(619,33,c),
(677,0,o),
(744,-19,o),
(816,-19,cs)
);
},
{
closed = 1;
nodes = (
(968,658,o),
(1092,534,o),
(1092,382,cs),
(1092,230,o),
(968,107,o),
(816,107,cs),
(784,107,o),
(754,112,o),
(726,122,c),
(759,161,o),
(785,206,o),
(802,257,cs),
(813,290,o),
(795,325,o),
(762,336,cs),
(729,347,o),
(694,329,o),
(683,296,cs),
(669,255,o),
(647,219,o),
(618,190,c),
(570,239,o),
(541,307,o),
(541,382,cs),
(541,456,o),
(570,524,o),
(619,574,c),
(647,545,o),
(669,509,o),
(683,469,cs),
(694,436,o),
(729,418,o),
(762,429,cs),
(795,440,o),
(813,475,o),
(802,508,cs),
(785,559,o),
(759,604,o),
(726,643,c),
(754,652,o),
(784,658,o),
(816,658,cs)
);
},
{
closed = 1;
nodes = (
(269,107,o),
(146,230,o),
(146,382,cs),
(146,534,o),
(269,658,o),
(421,658,cs),
(452,658,o),
(483,653,o),
(511,643,c),
(451,573,o),
(415,481,o),
(415,382,cs),
(415,283,o),
(451,192,o),
(511,122,c),
(482,112,o),
(452,107,o),
(421,107,cs)
);
},
{
closed = 1;
nodes = (
(368,-150,ls),
(337,-150,o),
(312,-125,o),
(312,-93,cs),
(312,-62,o),
(337,-37,o),
(368,-37,cs),
(464,-37,ls),
(495,-37,o),
(520,-62,o),
(520,-93,cs),
(520,-125,o),
(495,-150,o),
(464,-150,c)
);
}
);
width = 1237;
}
);
},
{
color = 4;
glyphname = Ccedilla_O_M.dlig;
kernLeft = _O.Alt2_lb;
lastChange = "2025-05-12 17:01:51 +0000";
layers = (
{
layerId = "A0314109-5958-4499-961C-D1BD7DFF39CC";
shapes = (
{
closed = 1;
nodes = (
(968,658,o),
(1092,534,o),
(1092,382,cs),
(1092,230,o),
(968,107,o),
(816,107,cs),
(784,107,o),
(754,112,o),
(726,122,c),
(759,161,o),
(785,206,o),
(802,257,cs),
(813,290,o),
(795,325,o),
(762,336,cs),
(729,347,o),
(694,329,o),
(683,296,cs),
(669,255,o),
(647,219,o),
(618,190,c),
(570,239,o),
(541,307,o),
(541,382,cs),
(541,456,o),
(570,524,o),
(619,574,c),
(647,545,o),
(669,509,o),
(683,469,cs),
(694,436,o),
(729,418,o),
(762,429,cs),
(795,440,o),
(813,475,o),
(802,508,cs),
(785,559,o),
(759,604,o),
(726,643,c),
(754,652,o),
(784,658,o),
(816,658,cs)
);
},
{
closed = 1;
nodes = (
(269,107,o),
(146,230,o),
(146,382,cs),
(146,534,o),
(269,658,o),
(421,658,cs),
(452,658,o),
(483,653,o),
(511,643,c),
(451,573,o),
(415,481,o),
(415,382,cs),
(415,283,o),
(451,192,o),
(511,122,c),
(482,112,o),
(452,107,o),
(421,107,cs)
);
},
{
closed = 1;
nodes = (
(464,-150,l),
(495,-150,o),
(520,-125,o),
(520,-93,cs),
(520,-62,o),
(495,-37,o),
(464,-37,cs),
(368,-37,ls),
(337,-37,o),
(312,-62,o),
(312,-93,cs),
(312,-125,o),
(337,-150,o),
(368,-150,cs)
);
},
{
closed = 1;
nodes = (
(1378,496,l),
(1378,63,ls),
(1378,35,o),
(1396,11,o),
(1423,3,cs),
(1449,-5,o),
(1477,5,o),
(1493,27,c),
(1811,496,l),
(1811,63,ls),
(1811,28,o),
(1840,0,o),
(1874,0,cs),
(1909,0,o),
(1937,28,o),
(1937,63,cs),
(1937,700,ls),
(1937,728,o),
(1919,752,o),
(1893,760,cs),
(1866,768,o),
(1838,758,o),
(1822,735,cs),
(1504,267,l),
(1504,700,ls),
(1504,728,o),
(1486,752,o),
(1459,760,cs),
(1433,768,o),
(1405,758,o),
(1389,735,cs),
(1208,469,l),
(1168,649,o),
(1007,783,o),
(816,783,cs),
(744,783,o),
(677,764,o),
(619,731,c),
(560,764,o),
(492,783,o),
(421,783,cs),
(200,783,o),
(20,603,o),
(20,382,cs),
(20,161,o),
(200,-19,o),
(421,-19,cs),
(492,-19,o),
(560,0,o),
(619,33,c),
(677,0,o),
(744,-19,o),
(816,-19,cs),
(954,-19,o),
(1076,51,o),
(1148,157,c)
);
}
);
width = 1987;
}
);
},
{
color = 4;
glyphname = Ccedilla_Oacute.dlig;
kernLeft = _O.Alt2_lb;
kernRight = _O.alt2_rb;
lastChange = "2025-05-12 17:01:51 +0000";
layers = (
{
layerId = "A0314109-5958-4499-961C-D1BD7DFF39CC";
shapes = (
{
closed = 1;
nodes = (
(1037,-19,o),
(1217,161,o),
(1217,382,cs),
(1217,603,o),
(1037,783,o),
(816,783,cs),
(744,783,o),
(677,764,o),
(619,731,c),
(560,764,o),
(492,783,o),
(421,783,cs),
(200,783,o),
(20,603,o),
(20,382,cs),
(20,161,o),
(200,-19,o),
(421,-19,cs),
(492,-19,o),
(560,0,o),
(619,33,c),
(677,0,o),
(744,-19,o),
(816,-19,cs)
);
},
{
closed = 1;
nodes = (
(968,658,o),
(1092,534,o),
(1092,382,cs),
(1092,230,o),
(968,107,o),
(816,107,cs),
(784,107,o),
(754,112,o),
(726,122,c),
(759,161,o),
(785,206,o),
(802,257,cs),
(813,290,o),
(795,325,o),
(762,336,cs),
(729,347,o),
(694,329,o),
(683,296,cs),
(669,255,o),
(647,219,o),
(618,190,c),
(570,239,o),
(541,307,o),
(541,382,cs),
(541,456,o),
(570,524,o),
(619,574,c),
(647,545,o),
(669,509,o),
(683,469,cs),
(694,436,o),
(729,418,o),
(762,429,cs),
(795,440,o),
(813,475,o),
(802,508,cs),
(785,559,o),
(759,604,o),
(726,643,c),
(754,652,o),
(784,658,o),
(816,658,cs)
);
},
{
closed = 1;
nodes = (
(269,107,o),
(146,230,o),
(146,382,cs),
(146,534,o),
(269,658,o),
(421,658,cs),
(452,658,o),
(483,653,o),
(511,643,c),
(451,573,o),
(415,481,o),
(415,382,cs),
(415,283,o),
(451,192,o),
(511,122,c),
(482,112,o),
(452,107,o),
(421,107,cs)
);
},
{
closed = 1;
nodes = (
(368,-150,ls),
(337,-150,o),
(312,-125,o),
(312,-93,cs),
(312,-62,o),
(337,-37,o),
(368,-37,cs),
(464,-37,ls),
(495,-37,o),
(520,-62,o),
(520,-93,cs),
(520,-125,o),
(495,-150,o),
(464,-150,c)
);
},
{
alignment = -1;
pos = (830,0);
ref = acute;
}
);
width = 1237;
}
);
},
{
color = 4;
glyphname = Ccedilla_Ocircumflex.dlig;
kernLeft = _O.Alt2_lb;
kernRight = _O.alt2_rb;
lastChange = "2025-05-12 17:01:51 +0000";
layers = (
{
layerId = "A0314109-5958-4499-961C-D1BD7DFF39CC";
shapes = (
{
closed = 1;
nodes = (
(1037,-19,o),
(1217,161,o),
(1217,382,cs),
(1217,603,o),
(1037,783,o),
(816,783,cs),
(744,783,o),
(677,764,o),
(619,731,c),
(560,764,o),
(492,783,o),
(421,783,cs),
(200,783,o),
(20,603,o),
(20,382,cs),
(20,161,o),
(200,-19,o),
(421,-19,cs),
(492,-19,o),
(560,0,o),
(619,33,c),
(677,0,o),
(744,-19,o),
(816,-19,cs)
);
},
{
closed = 1;
nodes = (
(968,658,o),
(1092,534,o),
(1092,382,cs),
(1092,230,o),
(968,107,o),
(816,107,cs),
(784,107,o),
(754,112,o),
(726,122,c),
(759,161,o),
(785,206,o),
(802,257,cs),
(813,290,o),
(795,325,o),
(762,336,cs),
(729,347,o),
(694,329,o),
(683,296,cs),
(669,255,o),
(647,219,o),
(618,190,c),
(570,239,o),
(541,307,o),
(541,382,cs),
(541,456,o),
(570,524,o),
(619,574,c),
(647,545,o),
(669,509,o),
(683,469,cs),
(694,436,o),
(729,418,o),
(762,429,cs),
(795,440,o),
(813,475,o),
(802,508,cs),
(785,559,o),
(759,604,o),
(726,643,c),
(754,652,o),
(784,658,o),
(816,658,cs)
);
},
{
closed = 1;
nodes = (
(269,107,o),
(146,230,o),
(146,382,cs),
(146,534,o),
(269,658,o),
(421,658,cs),
(452,658,o),
(483,653,o),
(511,643,c),
(451,573,o),
(415,481,o),
(415,382,cs),
(415,283,o),
(451,192,o),
(511,122,c),
(482,112,o),
(452,107,o),
(421,107,cs)
);
},
{
closed = 1;
nodes = (
(368,-150,ls),
(337,-150,o),
(312,-125,o),
(312,-93,cs),
(312,-62,o),
(337,-37,o),
(368,-37,cs),
(464,-37,ls),
(495,-37,o),
(520,-62,o),
(520,-93,cs),
(520,-125,o),
(495,-150,o),
(464,-150,c)
);
},
{
alignment = -1;
pos = (619,9);
ref = circumflex;
}
);
width = 1237;
}
);
},
{
color = 4;
glyphname = Ccedilla_Otilde.dlig;
kernLeft = _O.Alt2_lb;
kernRight = _O.alt2_rb;
lastChange = "2025-05-12 17:01:51 +0000";
layers = (
{
layerId = "A0314109-5958-4499-961C-D1BD7DFF39CC";
shapes = (
{
closed = 1;
nodes = (
(1037,-19,o),
(1217,161,o),
(1217,382,cs),
(1217,603,o),
(1037,783,o),
(816,783,cs),
(744,783,o),
(677,764,o),
(619,731,c),
(560,764,o),
(492,783,o),
(421,783,cs),
(200,783,o),
(20,603,o),
(20,382,cs),
(20,161,o),
(200,-19,o),
(421,-19,cs),
(492,-19,o),
(560,0,o),
(619,33,c),
(677,0,o),
(744,-19,o),
(816,-19,cs)
);
},
{
closed = 1;
nodes = (
(968,658,o),
(1092,534,o),
(1092,382,cs),
(1092,230,o),
(968,107,o),
(816,107,cs),
(784,107,o),
(754,112,o),
(726,122,c),
(759,161,o),
(785,206,o),
(802,257,cs),
(813,290,o),
(795,325,o),
(762,336,cs),
(729,347,o),
(694,329,o),
(683,296,cs),
(669,255,o),
(647,219,o),
(618,190,c),
(570,239,o),
(541,307,o),
(541,382,cs),
(541,456,o),
(570,524,o),
(619,574,c),
(647,545,o),
(669,509,o),
(683,469,cs),
(694,436,o),
(729,418,o),
(762,429,cs),
(795,440,o),
(813,475,o),
(802,508,cs),
(785,559,o),
(759,604,o),
(726,643,c),
(754,652,o),
(784,658,o),
(816,658,cs)
);
},
{
closed = 1;
nodes = (
(269,107,o),
(146,230,o),
(146,382,cs),
(146,534,o),
(269,658,o),
(421,658,cs),
(452,658,o),
(483,653,o),
(511,643,c),
(451,573,o),
(415,481,o),
(415,382,cs),
(415,283,o),
(451,192,o),
(511,122,c),
(482,112,o),
(452,107,o),
(421,107,cs)
);
},
{
closed = 1;
nodes = (
(368,-150,ls),
(337,-150,o),
(312,-125,o),
(312,-93,cs),
(312,-62,o),
(337,-37,o),
(368,-37,cs),
(464,-37,ls),
(495,-37,o),
(520,-62,o),
(520,-93,cs),
(520,-125,o),
(495,-150,o),
(464,-150,c)
);
},
{
alignment = -1;
pos = (607,13);
ref = tilde;
}
);
width = 1237;
}
);
},
{
color = 4;
glyphname = E_A.dlig;
kernRight = _E.alt1_rb;
lastChange = "2025-05-12 17:01:51 +0000";
layers = (
{
layerId = "A0314109-5958-4499-961C-D1BD7DFF39CC";
shapes = (
{
closed = 1;
nodes = (
(826,769,o),
(798,759,o),
(782,736,cs),
(391,161,ls),
(369,128,o),
(333,109,o),
(294,107,cs),
(261,106,o),
(229,118,o),
(205,140,cs),
(181,163,o),
(167,193,o),
(166,226,cs),
(165,259,o),
(177,290,o),
(200,315,cs),
(223,339,o),
(253,353,o),
(286,354,c),
(286,354,o),
(286,354,o),
(286,354,c),
(321,355,o),
(348,384,o),
(347,419,cs),
(346,454,o),
(317,481,o),
(282,480,c),
(282,480,o),
(282,480,o),
(282,480,c),
(233,478,o),
(191,517,o),
(190,566,cs),
(188,615,o),
(227,657,o),
(276,658,cs),
(325,660,o),
(367,621,o),
(369,572,c),
(369,571,o),
(369,570,o),
(369,569,c),
(368,534,o),
(396,506,o),
(431,506,c),
(466,505,o),
(494,533,o),
(494,568,cs),
(494,571,o),
(494,574,o),
(494,576,c),
(490,695,o),
(390,788,o),
(272,784,cs),
(153,780,o),
(60,680,o),
(64,561,cs),
(66,505,o),
(90,455,o),
(126,418,c),
(120,412,o),
(114,407,o),
(108,401,cs),
(62,352,o),
(38,288,o),
(41,222,c),
(43,155,o),
(71,94,o),
(120,49,cs),
(166,5,o),
(226,-18,o),
(289,-18,cs),
(292,-18,o),
(295,-18,o),
(298,-18,c),
(376,-15,o),
(450,25,o),
(495,90,c),
(539,156,l),
(771,156,l),
(771,64,ls),
(771,29,o),
(799,1,o),
(834,1,cs),
(869,1,o),
(897,29,o),
(897,64,cs),
(897,701,ls),
(897,729,o),
(879,753,o),
(852,761,cs)
);
},
{
closed = 1;
nodes = (
(625,281,l),
(771,497,l),
(771,281,l)
);
}
);
width = 947;
}
);
},
{
color = 4;
glyphname = E_Aacute.dlig;
kernRight = _E.alt1_rb;
lastChange = "2025-05-12 17:01:51 +0000";
layers = (
{
layerId = "A0314109-5958-4499-961C-D1BD7DFF39CC";
shapes = (
{
closed = 1;
nodes = (
(826,769,o),
(798,759,o),
(782,736,cs),
(391,161,ls),
(369,128,o),
(333,109,o),
(294,107,cs),
(261,106,o),
(229,118,o),
(205,140,cs),
(181,163,o),
(167,193,o),
(166,226,cs),
(165,259,o),
(177,290,o),
(200,315,cs),
(223,339,o),
(253,353,o),
(286,354,c),
(286,354,o),
(286,354,o),
(286,354,c),
(321,355,o),
(348,384,o),
(347,419,cs),
(346,454,o),
(317,481,o),
(282,480,c),
(282,480,o),
(282,480,o),
(282,480,c),
(233,478,o),
(191,517,o),
(190,566,cs),
(188,615,o),
(227,657,o),
(276,658,cs),
(325,660,o),
(367,621,o),
(369,572,c),
(369,571,o),
(369,570,o),
(369,569,c),
(368,534,o),
(396,506,o),
(431,506,c),
(466,505,o),
(494,533,o),
(494,568,cs),
(494,571,o),
(494,574,o),
(494,576,c),
(490,695,o),
(390,788,o),
(272,784,cs),
(153,780,o),
(60,680,o),
(64,561,cs),
(66,505,o),
(90,455,o),
(126,418,c),
(120,412,o),
(114,407,o),
(108,401,cs),
(62,352,o),
(38,288,o),
(41,222,c),
(43,155,o),
(71,94,o),
(120,49,cs),
(166,5,o),
(226,-18,o),
(289,-18,cs),
(292,-18,o),
(295,-18,o),
(298,-18,c),
(376,-15,o),
(450,25,o),
(495,90,c),
(539,156,l),
(771,156,l),
(771,64,ls),
(771,29,o),
(799,1,o),
(834,1,cs),
(869,1,o),
(897,29,o),
(897,64,cs),
(897,701,ls),
(897,729,o),
(879,753,o),
(852,761,cs)
);
},
{
closed = 1;
nodes = (
(625,281,l),
(771,497,l),
(771,281,l)
);
},
{
alignment = -1;
pos = (796,0);
ref = acute;
}
);
width = 947;
}
);
},
{
color = 4;
glyphname = E_Acircumflex.dlig;
kernRight = _E.alt1_rb;
lastChange = "2025-05-12 17:01:51 +0000";
layers = (
{
layerId = "A0314109-5958-4499-961C-D1BD7DFF39CC";
shapes = (
{
closed = 1;
nodes = (
(826,769,o),
(798,759,o),
(782,736,cs),
(391,161,ls),
(369,128,o),
(333,109,o),
(294,107,cs),
(261,106,o),
(229,118,o),
(205,140,cs),
(181,163,o),
(167,193,o),
(166,226,cs),
(165,259,o),
(177,290,o),
(200,315,cs),
(223,339,o),
(253,353,o),
(286,354,c),
(286,354,o),
(286,354,o),
(286,354,c),
(321,355,o),
(348,384,o),
(347,419,cs),
(346,454,o),
(317,481,o),
(282,480,c),
(282,480,o),
(282,480,o),
(282,480,c),
(233,478,o),
(191,517,o),
(190,566,cs),
(188,615,o),
(227,657,o),
(276,658,cs),
(325,660,o),
(367,621,o),
(369,572,c),
(369,571,o),
(369,570,o),
(369,569,c),
(368,534,o),
(396,506,o),
(431,506,c),
(466,505,o),
(494,533,o),
(494,568,cs),
(494,571,o),
(494,574,o),
(494,576,c),
(490,695,o),
(390,788,o),
(272,784,cs),
(153,780,o),
(60,680,o),
(64,561,cs),
(66,505,o),
(90,455,o),
(126,418,c),
(120,412,o),
(114,407,o),
(108,401,cs),
(62,352,o),
(38,288,o),
(41,222,c),
(43,155,o),
(71,94,o),
(120,49,cs),
(166,5,o),
(226,-18,o),
(289,-18,cs),
(292,-18,o),
(295,-18,o),
(298,-18,c),
(376,-15,o),
(450,25,o),
(495,90,c),
(539,156,l),
(771,156,l),
(771,64,ls),
(771,29,o),
(799,1,o),
(834,1,cs),
(869,1,o),
(897,29,o),
(897,64,cs),
(897,701,ls),
(897,729,o),
(879,753,o),
(852,761,cs)
);
},
{
closed = 1;
nodes = (
(625,281,l),
(771,497,l),
(771,281,l)
);
},
{
alignment = -1;
pos = (643,-23);
ref = circumflex;
}
);
width = 947;
}
);
},
{
color = 4;
glyphname = E_Atilde.dlig;
kernRight = _E.alt1_rb;
lastChange = "2025-05-12 17:01:51 +0000";
layers = (
{
layerId = "A0314109-5958-4499-961C-D1BD7DFF39CC";
shapes = (
{
closed = 1;
nodes = (
(826,769,o),
(798,759,o),
(782,736,cs),
(391,161,ls),
(369,128,o),
(333,109,o),
(294,107,cs),
(261,106,o),
(229,118,o),
(205,140,cs),
(181,163,o),
(167,193,o),
(166,226,cs),
(165,259,o),
(177,290,o),
(200,315,cs),
(223,339,o),
(253,353,o),
(286,354,c),
(286,354,o),
(286,354,o),
(286,354,c),
(321,355,o),
(348,384,o),
(347,419,cs),
(346,454,o),
(317,481,o),
(282,480,c),
(282,480,o),
(282,480,o),
(282,480,c),
(233,478,o),
(191,517,o),
(190,566,cs),
(188,615,o),
(227,657,o),
(276,658,cs),
(325,660,o),
(367,621,o),
(369,572,c),
(369,571,o),
(369,570,o),
(369,569,c),
(368,534,o),
(396,506,o),
(431,506,c),
(466,505,o),
(494,533,o),
(494,568,cs),
(494,571,o),
(494,574,o),
(494,576,c),
(490,695,o),
(390,788,o),
(272,784,cs),
(153,780,o),
(60,680,o),
(64,561,cs),
(66,505,o),
(90,455,o),
(126,418,c),
(120,412,o),
(114,407,o),
(108,401,cs),
(62,352,o),
(38,288,o),
(41,222,c),
(43,155,o),
(71,94,o),
(120,49,cs),
(166,5,o),
(226,-18,o),
(289,-18,cs),
(292,-18,o),
(295,-18,o),
(298,-18,c),
(376,-15,o),
(450,25,o),
(495,90,c),
(539,156,l),
(771,156,l),
(771,64,ls),
(771,29,o),
(799,1,o),
(834,1,cs),
(869,1,o),
(897,29,o),
(897,64,cs),
(897,701,ls),
(897,729,o),
(879,753,o),
(852,761,cs)
);
},
{
closed = 1;
nodes = (
(625,281,l),
(771,497,l),
(771,281,l)
);
},
{
alignment = -1;
pos = (645,-5);
ref = tilde;
}
);
width = 947;
}
);
},
{
color = 4;
glyphname = E_S.dlig;
kernRight = _S_rb;
lastChange = "2025-05-12 17:01:51 +0000";
layers = (
{
layerId = "A0314109-5958-4499-961C-D1BD7DFF39CC";
shapes = (
{
closed = 1;
nodes = (
(594,482,o),
(552,510,o),
(552,558,cs),
(552,602,o),
(587,637,o),
(631,637,cs),
(748,637,ls),
(782,637,o),
(811,666,o),
(811,700,cs),
(811,735,o),
(782,763,o),
(748,763,cs),
(631,763,ls),
(518,763,o),
(426,671,o),
(426,558,cs),
(426,450,o),
(512,362,o),
(626,353,cs),
(684,349,o),
(745,307,o),
(745,239,cs),
(745,176,o),
(694,125,o),
(631,125,cs),
(175,125,l),
(175,353,l),
(318,353,ls),
(352,353,o),
(381,381,o),
(381,416,cs),
(381,450,o),
(352,479,o),
(318,479,cs),
(175,479,l),
(175,637,l),
(369,637,ls),
(403,637,o),
(431,666,o),
(431,700,cs),
(431,735,o),
(403,763,o),
(369,763,cs),
(112,763,ls),
(78,763,o),
(50,735,o),
(50,700,cs),
(50,63,ls),
(50,28,o),
(78,0,o),
(112,0,cs),
(631,0,ls),
(763,0,o),
(870,107,o),
(870,239,cs),
(870,365,o),
(769,468,o),
(636,478,c)
);
}
);
width = 910;
}
);
},
{
color = 4;
glyphname = Eacute_A.dlig;
kernRight = _E.alt1_rb;
lastChange = "2025-05-12 17:01:51 +0000";
layers = (
{
layerId = "A0314109-5958-4499-961C-D1BD7DFF39CC";
shapes = (
{
closed = 1;
nodes = (
(826,769,o),
(798,759,o),
(782,736,cs),
(391,161,ls),
(369,128,o),
(333,109,o),
(294,107,cs),
(261,106,o),
(229,118,o),
(205,140,cs),
(181,163,o),
(167,193,o),
(166,226,cs),
(165,259,o),
(177,290,o),
(200,315,cs),
(223,339,o),
(253,353,o),
(286,354,c),
(286,354,o),
(286,354,o),
(286,354,c),
(321,355,o),
(348,384,o),
(347,419,cs),
(346,454,o),
(317,481,o),
(282,480,c),
(282,480,o),
(282,480,o),
(282,480,c),
(233,478,o),
(191,517,o),
(190,566,cs),
(188,615,o),
(227,657,o),
(276,658,cs),
(325,660,o),
(367,621,o),
(369,572,c),
(369,571,o),
(369,570,o),
(369,569,c),
(368,534,o),
(396,506,o),
(431,506,c),
(466,505,o),
(494,533,o),
(494,568,cs),
(494,571,o),
(494,574,o),
(494,576,c),
(490,695,o),
(390,788,o),
(272,784,cs),
(153,780,o),
(60,680,o),
(64,561,cs),
(66,505,o),
(90,455,o),
(126,418,c),
(120,412,o),
(114,407,o),
(108,401,cs),
(62,352,o),
(38,288,o),
(41,222,c),
(43,155,o),
(71,94,o),
(120,49,cs),
(166,5,o),
(226,-18,o),
(289,-18,cs),
(292,-18,o),
(295,-18,o),
(298,-18,c),
(376,-15,o),
(450,25,o),
(495,90,c),
(539,156,l),
(771,156,l),
(771,64,ls),
(771,29,o),
(799,1,o),
(834,1,cs),
(869,1,o),
(897,29,o),
(897,64,cs),
(897,701,ls),
(897,729,o),
(879,753,o),
(852,761,cs)
);
},
{
closed = 1;
nodes = (
(625,281,l),
(771,497,l),
(771,281,l)
);
},
{
alignment = -1;
pos = (277,0);
ref = acute;
}
);
width = 947;
}
);
},
{
color = 4;
glyphname = Eacute_S.dlig;
kernRight = _S_rb;
lastChange = "2025-05-12 17:01:51 +0000";
layers = (
{
layerId = "A0314109-5958-4499-961C-D1BD7DFF39CC";
shapes = (
{
closed = 1;
nodes = (
(594,482,o),
(552,510,o),
(552,558,cs),
(552,602,o),
(587,637,o),
(631,637,cs),
(748,637,ls),
(782,637,o),
(811,666,o),
(811,700,cs),
(811,735,o),
(782,763,o),
(748,763,cs),
(631,763,ls),
(518,763,o),
(426,671,o),
(426,558,cs),
(426,450,o),
(512,362,o),
(626,353,cs),
(684,349,o),
(745,307,o),
(745,239,cs),
(745,176,o),
(694,125,o),
(631,125,cs),
(175,125,l),
(175,353,l),
(318,353,ls),
(352,353,o),
(381,381,o),
(381,416,cs),
(381,450,o),
(352,479,o),
(318,479,cs),
(175,479,l),
(175,637,l),
(369,637,ls),
(403,637,o),
(431,666,o),
(431,700,cs),
(431,735,o),
(403,763,o),
(369,763,cs),
(112,763,ls),
(78,763,o),
(50,735,o),
(50,700,cs),
(50,63,ls),
(50,28,o),
(78,0,o),
(112,0,cs),
(631,0,ls),
(763,0,o),
(870,107,o),
(870,239,cs),
(870,365,o),
(769,468,o),
(636,478,c)
);
},
{
alignment = -1;
pos = (179,0);
ref = acute;
}
);
width = 910;
}
);
},
{
color = 4;
glyphname = Ecircumflex_A.dlig;
kernRight = _E.alt1_rb;
lastChange = "2025-05-12 17:01:51 +0000";
layers = (
{
layerId = "A0314109-5958-4499-961C-D1BD7DFF39CC";
shapes = (
{
closed = 1;
nodes = (
(826,769,o),
(798,759,o),
(782,736,cs),
(391,161,ls),
(369,128,o),
(333,109,o),
(294,107,cs),
(261,106,o),
(229,118,o),
(205,140,cs),
(181,163,o),
(167,193,o),
(166,226,cs),
(165,259,o),
(177,290,o),
(200,315,cs),
(223,339,o),
(253,353,o),
(286,354,c),
(286,354,o),
(286,354,o),
(286,354,c),
(321,355,o),
(348,384,o),
(347,419,cs),
(346,454,o),
(317,481,o),
(282,480,c),
(282,480,o),
(282,480,o),
(282,480,c),
(233,478,o),
(191,517,o),
(190,566,cs),
(188,615,o),
(227,657,o),
(276,658,cs),
(325,660,o),
(367,621,o),
(369,572,c),
(369,571,o),
(369,570,o),
(369,569,c),
(368,534,o),
(396,506,o),
(431,506,c),
(466,505,o),
(494,533,o),
(494,568,cs),
(494,571,o),
(494,574,o),
(494,576,c),
(490,695,o),
(390,788,o),
(272,784,cs),
(153,780,o),
(60,680,o),
(64,561,cs),
(66,505,o),
(90,455,o),
(126,418,c),
(120,412,o),
(114,407,o),
(108,401,cs),
(62,352,o),
(38,288,o),
(41,222,c),
(43,155,o),
(71,94,o),
(120,49,cs),
(166,5,o),
(226,-18,o),
(289,-18,cs),
(292,-18,o),
(295,-18,o),
(298,-18,c),
(376,-15,o),
(450,25,o),
(495,90,c),
(539,156,l),
(771,156,l),
(771,64,ls),
(771,29,o),
(799,1,o),
(834,1,cs),
(869,1,o),
(897,29,o),
(897,64,cs),
(897,701,ls),
(897,729,o),
(879,753,o),
(852,761,cs)
);
},
{
closed = 1;
nodes = (
(625,281,l),
(771,497,l),
(771,281,l)
);
},
{
alignment = -1;
pos = (87,0);
ref = circumflex;
}
);
width = 947;
}
);
},
{
color = 4;
glyphname = Ecircumflex_S.dlig;
kernRight = _S_rb;
lastChange = "2025-05-12 17:01:51 +0000";
layers = (
{
layerId = "A0314109-5958-4499-961C-D1BD7DFF39CC";
shapes = (
{
closed = 1;
nodes = (
(594,482,o),
(552,510,o),
(552,558,cs),
(552,602,o),
(587,637,o),
(631,637,cs),
(748,637,ls),
(782,637,o),
(811,666,o),
(811,700,cs),
(811,735,o),
(782,763,o),
(748,763,cs),
(631,763,ls),
(518,763,o),
(426,671,o),
(426,558,cs),
(426,450,o),
(512,362,o),
(626,353,cs),
(684,349,o),
(745,307,o),
(745,239,cs),
(745,176,o),
(694,125,o),
(631,125,cs),
(175,125,l),
(175,353,l),
(318,353,ls),
(352,353,o),
(381,381,o),
(381,416,cs),
(381,450,o),
(352,479,o),
(318,479,cs),
(175,479,l),
(175,637,l),
(369,637,ls),
(403,637,o),
(431,666,o),
(431,700,cs),
(431,735,o),
(403,763,o),
(369,763,cs),
(112,763,ls),
(78,763,o),
(50,735,o),
(50,700,cs),
(50,63,ls),
(50,28,o),
(78,0,o),
(112,0,cs),
(631,0,ls),
(763,0,o),
(870,107,o),
(870,239,cs),
(870,365,o),
(769,468,o),
(636,478,c)
);
},
{
alignment = -1;
pos = (55,0);
ref = circumflex;
}
);
width = 910;
}
);
},
{
color = 4;
glyphname = G_A.dlig;
kernLeft = _O.Alt2_lb;
lastChange = "2025-05-12 17:01:51 +0000";
layers = (
{
layerId = "A0314109-5958-4499-961C-D1BD7DFF39CC";
shapes = (
{
closed = 1;
nodes = (
(1081,0,o),
(1109,28,o),
(1109,63,cs),
(1109,701,ls),
(1109,728,o),
(1091,753,o),
(1065,761,cs),
(1038,769,o),
(1010,759,o),
(994,736,cs),
(796,445,l),
(422,445,ls),
(387,445,o),
(359,416,o),
(359,382,cs),
(359,347,o),
(387,319,o),
(422,319,cs),
(711,319,l),
(650,229,ls),
(598,152,o),
(512,106,o),
(421,106,cs),
(269,106,o),
(145,230,o),
(145,382,cs),
(145,534,o),
(269,657,o),
(421,657,cs),
(505,657,o),
(583,620,o),
(636,554,cs),
(657,527,o),
(697,523,o),
(724,544,cs),
(751,566,o),
(755,606,o),
(734,633,cs),
(657,728,o),
(543,783,o),
(421,783,cs),
(199,783,o),
(20,603,o),
(20,382,cs),
(20,161,o),
(199,-19,o),
(421,-19,cs),
(554,-19,o),
(679,47,o),
(754,159,c),
(984,497,l),
(984,63,ls),
(984,28,o),
(1012,0,o),
(1046,0,cs)
);
}
);
width = 1159;
}
);
},
{
color = 4;
glyphname = G_Aacute.dlig;
kernLeft = _O.Alt2_lb;
lastChange = "2025-05-12 17:01:51 +0000";
layers = (
{
layerId = "A0314109-5958-4499-961C-D1BD7DFF39CC";
shapes = (
{
closed = 1;
nodes = (
(1081,0,o),
(1109,28,o),
(1109,63,cs),
(1109,701,ls),
(1109,728,o),
(1091,753,o),
(1065,761,cs),
(1038,769,o),
(1010,759,o),
(994,736,cs),
(796,445,l),
(422,445,ls),
(387,445,o),
(359,416,o),
(359,382,cs),
(359,347,o),
(387,319,o),
(422,319,cs),
(711,319,l),
(650,229,ls),
(598,152,o),
(512,106,o),
(421,106,cs),
(269,106,o),
(145,230,o),
(145,382,cs),
(145,534,o),
(269,657,o),
(421,657,cs),
(505,657,o),
(583,620,o),
(636,554,cs),
(657,527,o),
(697,523,o),
(724,544,cs),
(751,566,o),
(755,606,o),
(734,633,cs),
(657,728,o),
(543,783,o),
(421,783,cs),
(199,783,o),
(20,603,o),
(20,382,cs),
(20,161,o),
(199,-19,o),
(421,-19,cs),
(554,-19,o),
(679,47,o),
(754,159,c),
(984,497,l),
(984,63,ls),
(984,28,o),
(1012,0,o),
(1046,0,cs)
);
},
{
alignment = -1;
pos = (1008,0);
ref = acute;
}
);
width = 1159;
}
);
},
{
color = 4;
glyphname = G_Acircumflex.dlig;
kernLeft = _O.Alt2_lb;
lastChange = "2025-05-12 17:01:51 +0000";
layers = (
{
layerId = "A0314109-5958-4499-961C-D1BD7DFF39CC";
shapes = (
{
closed = 1;
nodes = (
(1081,0,o),
(1109,28,o),
(1109,63,cs),
(1109,701,ls),
(1109,728,o),
(1091,753,o),
(1065,761,cs),
(1038,769,o),
(1010,759,o),
(994,736,cs),
(796,445,l),
(422,445,ls),
(387,445,o),
(359,416,o),
(359,382,cs),
(359,347,o),
(387,319,o),
(422,319,cs),
(711,319,l),
(650,229,ls),
(598,152,o),
(512,106,o),
(421,106,cs),
(269,106,o),
(145,230,o),
(145,382,cs),
(145,534,o),
(269,657,o),
(421,657,cs),
(505,657,o),
(583,620,o),
(636,554,cs),
(657,527,o),
(697,523,o),
(724,544,cs),
(751,566,o),
(755,606,o),
(734,633,cs),
(657,728,o),
(543,783,o),
(421,783,cs),
(199,783,o),
(20,603,o),
(20,382,cs),
(20,161,o),
(199,-19,o),
(421,-19,cs),
(554,-19,o),
(679,47,o),
(754,159,c),
(984,497,l),
(984,63,ls),
(984,28,o),
(1012,0,o),
(1046,0,cs)
);
},
{
alignment = -1;
pos = (855,-23);
ref = circumflex;
}
);
width = 1159;
}
);
},
{
color = 4;
glyphname = G_Atilde.dlig;
kernLeft = _O.Alt2_lb;
lastChange = "2025-05-12 17:01:51 +0000";
layers = (
{
layerId = "A0314109-5958-4499-961C-D1BD7DFF39CC";
shapes = (
{
closed = 1;
nodes = (
(1081,0,o),
(1109,28,o),
(1109,63,cs),
(1109,701,ls),
(1109,728,o),
(1091,753,o),
(1065,761,cs),
(1038,769,o),
(1010,759,o),
(994,736,cs),
(796,445,l),
(422,445,ls),
(387,445,o),
(359,416,o),
(359,382,cs),
(359,347,o),
(387,319,o),
(422,319,cs),
(711,319,l),
(650,229,ls),
(598,152,o),
(512,106,o),
(421,106,cs),
(269,106,o),
(145,230,o),
(145,382,cs),
(145,534,o),
(269,657,o),
(421,657,cs),
(505,657,o),
(583,620,o),
(636,554,cs),
(657,527,o),
(697,523,o),
(724,544,cs),
(751,566,o),
(755,606,o),
(734,633,cs),
(657,728,o),
(543,783,o),
(421,783,cs),
(199,783,o),
(20,603,o),
(20,382,cs),
(20,161,o),
(199,-19,o),
(421,-19,cs),
(554,-19,o),
(679,47,o),
(754,159,c),
(984,497,l),
(984,63,ls),
(984,28,o),
(1012,0,o),
(1046,0,cs)
);
},
{
alignment = -1;
pos = (857,-5);
ref = tilde;
}
);
width = 1159;
}
);
},
{
color = 4;
glyphname = G_O.dlig;
kernLeft = _O.Alt2_lb;
kernRight = _O.alt2_rb;
lastChange = "2025-05-12 17:01:51 +0000";
layers = (
{
layerId = "A0314109-5958-4499-961C-D1BD7DFF39CC";
shapes = (
{
closed = 1;
nodes = (
(786,782,o),
(709,757,o),
(646,715,c),
(579,760,o),
(502,783,o),
(421,783,cs),
(200,783,o),
(20,604,o),
(20,382,cs),
(20,161,o),
(200,-19,o),
(421,-19,cs),
(503,-19,o),
(580,6,o),
(644,49,c),
(708,6,o),
(785,-20,o),
(869,-20,cs),
(1090,-20,o),
(1270,160,o),
(1270,381,cs),
(1270,603,o),
(1090,782,o),
(869,782,cs)
);
},
{
closed = 1;
nodes = (
(624,251,o),
(608,284,o),
(600,320,c),
(689,320,l),
(681,284,o),
(665,250,o),
(644,221,c)
);
},
{
closed = 1;
nodes = (
(145,534,o),
(269,658,o),
(421,658,cs),
(467,658,o),
(511,647,o),
(551,626,c),
(511,574,o),
(483,512,o),
(473,445,c),
(422,445,ls),
(387,445,o),
(359,417,o),
(359,382,cs),
(359,348,o),
(387,320,o),
(422,320,cs),
(472,320,l),
(483,252,o),
(510,191,o),
(549,139,c),
(511,118,o),
(467,107,o),
(421,107,cs),
(269,107,o),
(145,230,o),
(145,382,cs)
);
},
{
closed = 1;
nodes = (
(822,106,o),
(778,118,o),
(739,138,c),
(791,206,o),
(822,291,o),
(822,382,cs),
(822,417,o),
(794,445,o),
(759,445,cs),
(601,445,l),
(629,566,o),
(739,657,o),
(869,657,cs),
(1021,657,o),
(1144,533,o),
(1144,381,cs),
(1144,229,o),
(1021,106,o),
(869,106,cs)
);
}
);
width = 1305;
}
);
},
{
color = 4;
glyphname = G_O_O.dlig;
kernLeft = _O.Alt2_lb;
kernRight = _O.alt2_rb;
lastChange = "2025-05-12 17:01:51 +0000";
layers = (
{
layerId = "A0314109-5958-4499-961C-D1BD7DFF39CC";
shapes = (
{
closed = 1;
nodes = (
(1207,782,o),
(1140,763,o),
(1081,730,c),
(1023,763,o),
(955,782,o),
(884,782,cs),
(801,782,o),
(724,757,o),
(661,715,c),
(594,760,o),
(517,783,o),
(436,783,cs),
(215,783,o),
(35,604,o),
(35,382,cs),
(35,161,o),
(215,-19,o),
(436,-19,cs),
(518,-19,o),
(595,6,o),
(659,49,c),
(723,6,o),
(800,-20,o),
(884,-20,cs),
(955,-20,o),
(1023,-1,o),
(1081,33,c),
(1140,-1,o),
(1207,-20,o),
(1279,-20,cs),
(1500,-20,o),
(1680,160,o),
(1680,381,cs),
(1680,603,o),
(1500,782,o),
(1279,782,cs)
);
},
{
closed = 1;
nodes = (
(1033,239,o),
(1004,307,o),
(1004,381,cs),
(1004,456,o),
(1033,523,o),
(1081,573,c),
(1129,523,o),
(1159,456,o),
(1159,381,cs),
(1159,307,o),
(1129,239,o),
(1081,190,c)
);
},
{
closed = 1;
nodes = (
(639,251,o),
(623,284,o),
(615,320,c),
(704,320,l),
(696,284,o),
(680,250,o),
(659,221,c)
);
},
{
closed = 1;
nodes = (
(160,534,o),
(284,658,o),
(436,658,cs),
(482,658,o),
(526,647,o),
(566,626,c),
(526,574,o),
(498,512,o),
(488,445,c),
(437,445,ls),
(402,445,o),
(374,417,o),
(374,382,cs),
(374,348,o),
(402,320,o),
(437,320,cs),
(487,320,l),
(498,252,o),
(525,191,o),
(564,139,c),
(526,118,o),
(482,107,o),
(436,107,cs),
(284,107,o),
(160,230,o),
(160,382,cs)
);
},
{
closed = 1;
nodes = (
(806,206,o),
(837,291,o),
(837,382,cs),
(837,417,o),
(809,445,o),
(774,445,cs),
(616,445,l),
(644,566,o),
(754,657,o),
(884,657,cs),
(915,657,o),
(946,651,o),
(974,642,c),
(914,571,o),
(878,481,o),
(878,381,cs),
(878,282,o),
(914,191,o),
(974,121,c),
(946,111,o),
(915,106,o),
(884,106,cs),
(837,106,o),
(793,118,o),
(754,138,c)
);
},
{
closed = 1;
nodes = (
(1247,106,o),
(1217,111,o),
(1189,121,c),
(1248,191,o),
(1285,282,o),
(1285,381,cs),
(1285,481,o),
(1248,571,o),
(1189,642,c),
(1217,651,o),
(1247,657,o),
(1279,657,cs),
(1431,657,o),
(1555,533,o),
(1555,381,cs),
(1555,229,o),
(1431,106,o),
(1279,106,cs)
);
}
);
width = 1715;
}
);
},
{
color = 4;
glyphname = G_Oacute.dlig;
kernLeft = _O.Alt2_lb;
kernRight = _O.alt2_rb;
lastChange = "2025-05-12 17:01:51 +0000";
layers = (
{
layerId = "A0314109-5958-4499-961C-D1BD7DFF39CC";
shapes = (
{
closed = 1;
nodes = (
(786,782,o),
(709,757,o),
(646,715,c),
(579,760,o),
(502,783,o),
(421,783,cs),
(200,783,o),
(20,604,o),
(20,382,cs),
(20,161,o),
(200,-19,o),
(421,-19,cs),
(503,-19,o),
(580,6,o),
(644,49,c),
(708,6,o),
(785,-20,o),
(869,-20,cs),
(1090,-20,o),
(1270,160,o),
(1270,381,cs),
(1270,603,o),
(1090,782,o),
(869,782,cs)
);
},
{
closed = 1;
nodes = (
(624,251,o),
(608,284,o),
(600,320,c),
(689,320,l),
(681,284,o),
(665,250,o),
(644,221,c)
);
},
{
closed = 1;
nodes = (
(145,534,o),
(269,658,o),
(421,658,cs),
(467,658,o),
(511,647,o),
(551,626,c),
(511,574,o),
(483,512,o),
(473,445,c),
(422,445,ls),
(387,445,o),
(359,417,o),
(359,382,cs),
(359,348,o),
(387,320,o),
(422,320,cs),
(472,320,l),
(483,252,o),
(510,191,o),
(549,139,c),
(511,118,o),
(467,107,o),
(421,107,cs),
(269,107,o),
(145,230,o),
(145,382,cs)
);
},
{
closed = 1;
nodes = (
(822,106,o),
(778,118,o),
(739,138,c),
(791,206,o),
(822,291,o),
(822,382,cs),
(822,417,o),
(794,445,o),
(759,445,cs),
(601,445,l),
(629,566,o),
(739,657,o),
(869,657,cs),
(1021,657,o),
(1144,533,o),
(1144,381,cs),
(1144,229,o),
(1021,106,o),
(869,106,cs)
);
},
{
alignment = -1;
pos = (881,0);
ref = acute;
}
);
width = 1305;
}
);
},
{
color = 4;
glyphname = G_Ocircumflex.dlig;
kernLeft = _O.Alt2_lb;
kernRight = _O.alt2_rb;
lastChange = "2025-05-12 17:01:51 +0000";
layers = (
{
layerId = "A0314109-5958-4499-961C-D1BD7DFF39CC";
shapes = (
{
closed = 1;
nodes = (
(786,782,o),
(709,757,o),
(646,715,c),
(579,760,o),
(502,783,o),
(421,783,cs),
(200,783,o),
(20,604,o),
(20,382,cs),
(20,161,o),
(200,-19,o),
(421,-19,cs),
(503,-19,o),
(580,6,o),
(644,49,c),
(708,6,o),
(785,-20,o),
(869,-20,cs),
(1090,-20,o),
(1270,160,o),
(1270,381,cs),
(1270,603,o),
(1090,782,o),
(869,782,cs)
);
},
{
closed = 1;
nodes = (
(624,251,o),
(608,284,o),
(600,320,c),
(689,320,l),
(681,284,o),
(665,250,o),
(644,221,c)
);
},
{
closed = 1;
nodes = (
(145,534,o),
(269,658,o),
(421,658,cs),
(467,658,o),
(511,647,o),
(551,626,c),
(511,574,o),
(483,512,o),
(473,445,c),
(422,445,ls),
(387,445,o),
(359,417,o),
(359,382,cs),
(359,348,o),
(387,320,o),
(422,320,cs),
(472,320,l),
(483,252,o),
(510,191,o),
(549,139,c),
(511,118,o),
(467,107,o),
(421,107,cs),
(269,107,o),
(145,230,o),
(145,382,cs)
);
},
{
closed = 1;
nodes = (
(822,106,o),
(778,118,o),
(739,138,c),
(791,206,o),
(822,291,o),
(822,382,cs),
(822,417,o),
(794,445,o),
(759,445,cs),
(601,445,l),
(629,566,o),
(739,657,o),
(869,657,cs),
(1021,657,o),
(1144,533,o),
(1144,381,cs),
(1144,229,o),
(1021,106,o),
(869,106,cs)
);
},
{
alignment = -1;
pos = (670,9);
ref = circumflex;
}
);
width = 1305;
}
);
},
{
color = 4;
glyphname = G_Otilde.dlig;
kernLeft = _O.Alt2_lb;
kernRight = _O.alt2_rb;
lastChange = "2025-05-12 17:01:51 +0000";
layers = (
{
layerId = "A0314109-5958-4499-961C-D1BD7DFF39CC";
shapes = (
{
closed = 1;
nodes = (
(786,782,o),
(709,757,o),
(646,715,c),
(579,760,o),
(502,783,o),
(421,783,cs),
(200,783,o),
(20,604,o),
(20,382,cs),
(20,161,o),
(200,-19,o),
(421,-19,cs),
(503,-19,o),
(580,6,o),
(644,49,c),
(708,6,o),
(785,-20,o),
(869,-20,cs),
(1090,-20,o),
(1270,160,o),
(1270,381,cs),
(1270,603,o),
(1090,782,o),
(869,782,cs)
);
},
{
closed = 1;
nodes = (
(624,251,o),
(608,284,o),
(600,320,c),
(689,320,l),
(681,284,o),
(665,250,o),
(644,221,c)
);
},
{
closed = 1;
nodes = (
(145,534,o),
(269,658,o),
(421,658,cs),
(467,658,o),
(511,647,o),
(551,626,c),
(511,574,o),
(483,512,o),
(473,445,c),
(422,445,ls),
(387,445,o),
(359,417,o),
(359,382,cs),
(359,348,o),
(387,320,o),
(422,320,cs),
(472,320,l),
(483,252,o),
(510,191,o),
(549,139,c),
(511,118,o),
(467,107,o),
(421,107,cs),
(269,107,o),
(145,230,o),
(145,382,cs)
);
},
{
closed = 1;
nodes = (
(822,106,o),
(778,118,o),
(739,138,c),
(791,206,o),
(822,291,o),
(822,382,cs),
(822,417,o),
(794,445,o),
(759,445,cs),
(601,445,l),
(629,566,o),
(739,657,o),
(869,657,cs),
(1021,657,o),
(1144,533,o),
(1144,381,cs),
(1144,229,o),
(1021,106,o),
(869,106,cs)
);
},
{
alignment = -1;
pos = (659,13);
ref = tilde;
}
);
width = 1305;
}
);
},
{
color = 4;
glyphname = L_A.dlig;
kernRight = _A_rb;
lastChange = "2025-05-12 17:01:51 +0000";
layers = (
{
layerId = "A0314109-5958-4499-961C-D1BD7DFF39CC";
shapes = (
{
closed = 1;
nodes = (
(166,125,l),
(166,700,ls),
(166,735,o),
(138,763,o),
(103,763,cs),
(68,763,o),
(40,735,o),
(40,700,cs),
(40,63,ls),
(40,28,o),
(68,0,o),
(103,0,cs),
(409,0,ls),
(444,0,o),
(472,28,o),
(472,63,cs),
(472,97,o),
(444,125,o),
(409,125,c)
);
},
{
closed = 1;
nodes = (
(308,782,o),
(196,671,o),
(196,533,cs),
(196,219,ls),
(196,184,o),
(224,156,o),
(259,156,cs),
(293,156,o),
(321,184,o),
(321,219,cs),
(321,287,l),
(569,287,l),
(569,63,ls),
(569,28,o),
(597,0,o),
(632,0,cs),
(667,0,o),
(695,28,o),
(695,63,cs),
(695,533,ls),
(695,671,o),
(583,782,o),
(445,782,cs)
);
},
{
closed = 1;
nodes = (
(321,412,l),
(321,533,ls),
(321,601,o),
(377,657,o),
(445,657,cs),
(514,657,o),
(569,601,o),
(569,533,cs),
(569,412,l)
);
}
);
width = 745;
}
);
},
{
color = 4;
glyphname = L_Aacute.dlig;
kernRight = _A_rb;
lastChange = "2025-05-12 17:01:51 +0000";
layers = (
{
layerId = "A0314109-5958-4499-961C-D1BD7DFF39CC";
shapes = (
{
closed = 1;
nodes = (
(166,125,l),
(166,700,ls),
(166,735,o),
(138,763,o),
(103,763,cs),
(68,763,o),
(40,735,o),
(40,700,cs),
(40,63,ls),
(40,28,o),
(68,0,o),
(103,0,cs),
(409,0,ls),
(444,0,o),
(472,28,o),
(472,63,cs),
(472,97,o),
(444,125,o),
(409,125,c)
);
},
{
closed = 1;
nodes = (
(308,782,o),
(196,671,o),
(196,533,cs),
(196,219,ls),
(196,184,o),
(224,156,o),
(259,156,cs),
(293,156,o),
(321,184,o),
(321,219,cs),
(321,287,l),
(569,287,l),
(569,63,ls),
(569,28,o),
(597,0,o),
(632,0,cs),
(667,0,o),
(695,28,o),
(695,63,cs),
(695,533,ls),
(695,671,o),
(583,782,o),
(445,782,cs)
);
},
{
closed = 1;
nodes = (
(321,412,l),
(321,533,ls),
(321,601,o),
(377,657,o),
(445,657,cs),
(514,657,o),
(569,601,o),
(569,533,cs),
(569,412,l)
);
},
{
alignment = -1;
pos = (410,0);
ref = acute;
}
);
width = 745;
}
);
},
{
color = 4;
glyphname = L_Acircumflex.dlig;
kernRight = _A_rb;
lastChange = "2025-05-12 17:01:51 +0000";
layers = (
{
layerId = "A0314109-5958-4499-961C-D1BD7DFF39CC";
shapes = (
{
closed = 1;
nodes = (
(166,125,l),
(166,700,ls),
(166,735,o),
(138,763,o),
(103,763,cs),
(68,763,o),
(40,735,o),
(40,700,cs),
(40,63,ls),
(40,28,o),
(68,0,o),
(103,0,cs),
(409,0,ls),
(444,0,o),
(472,28,o),
(472,63,cs),
(472,97,o),
(444,125,o),
(409,125,c)
);
},
{
closed = 1;
nodes = (
(308,782,o),
(196,671,o),
(196,533,cs),
(196,219,ls),
(196,184,o),
(224,156,o),
(259,156,cs),
(293,156,o),
(321,184,o),
(321,219,cs),
(321,287,l),
(569,287,l),
(569,63,ls),
(569,28,o),
(597,0,o),
(632,0,cs),
(667,0,o),
(695,28,o),
(695,63,cs),
(695,533,ls),
(695,671,o),
(583,782,o),
(445,782,cs)
);
},
{
closed = 1;
nodes = (
(321,412,l),
(321,533,ls),
(321,601,o),
(377,657,o),
(445,657,cs),
(514,657,o),
(569,601,o),
(569,533,cs),
(569,412,l)
);
},
{
alignment = -1;
pos = (252,6);
ref = circumflex;
}
);
width = 745;
}
);
},
{
color = 4;
glyphname = L_Atilde.dlig;
kernRight = _A_rb;
lastChange = "2025-05-12 17:01:51 +0000";
layers = (
{
layerId = "A0314109-5958-4499-961C-D1BD7DFF39CC";
shapes = (
{
closed = 1;
nodes = (
(166,125,l),
(166,700,ls),
(166,735,o),
(138,763,o),
(103,763,cs),
(68,763,o),
(40,735,o),
(40,700,cs),
(40,63,ls),
(40,28,o),
(68,0,o),
(103,0,cs),
(409,0,ls),
(444,0,o),
(472,28,o),
(472,63,cs),
(472,97,o),
(444,125,o),
(409,125,c)
);
},
{
closed = 1;
nodes = (
(308,782,o),
(196,671,o),
(196,533,cs),
(196,219,ls),
(196,184,o),
(224,156,o),
(259,156,cs),
(293,156,o),
(321,184,o),
(321,219,cs),
(321,287,l),
(569,287,l),
(569,63,ls),
(569,28,o),
(597,0,o),
(632,0,cs),
(667,0,o),
(695,28,o),
(695,63,cs),
(695,533,ls),
(695,671,o),
(583,782,o),
(445,782,cs)
);
},
{
closed = 1;
nodes = (
(321,412,l),
(321,533,ls),
(321,601,o),
(377,657,o),
(445,657,cs),
(514,657,o),
(569,601,o),
(569,533,cs),
(569,412,l)
);
},
{
alignment = -1;
pos = (246,10);
ref = tilde;
}
);
width = 745;
}
);
},
{
color = 4;
glyphname = L_E.dlig;
kernRight = _l_e;
lastChange = "2025-05-12 17:01:51 +0000";
layers = (
{
layerId = "A0314109-5958-4499-961C-D1BD7DFF39CC";
shapes = (
{
closed = 1;
nodes = (
(165,125,l),
(165,700,ls),
(165,735,o),
(137,763,o),
(102,763,cs),
(68,763,o),
(40,735,o),
(40,700,cs),
(40,63,ls),
(40,28,o),
(68,0,o),
(102,0,cs),
(409,0,ls),
(443,0,o),
(472,28,o),
(472,63,cs),
(472,97,o),
(443,125,o),
(409,125,c)
);
},
{
closed = 1;
nodes = (
(322,281,l),
(322,400,l),
(413,400,ls),
(448,400,o),
(476,428,o),
(476,463,cs),
(476,497,o),
(448,526,o),
(413,526,cs),
(322,526,l),
(322,637,l),
(436,637,ls),
(470,637,o),
(498,666,o),
(498,700,cs),
(498,735,o),
(470,763,o),
(436,763,cs),
(259,763,ls),
(225,763,o),
(197,735,o),
(197,700,cs),
(197,218,ls),
(197,183,o),
(225,155,o),
(259,155,cs),
(456,155,ls),
(490,155,o),
(518,183,o),
(518,218,cs),
(518,253,o),
(490,281,o),
(456,281,c)
);
}
);
width = 544;
}
);
},
{
color = 4;
glyphname = L_Eacute.dlig;
kernRight = _l_e;
lastChange = "2025-05-12 17:01:51 +0000";
layers = (
{
layerId = "A0314109-5958-4499-961C-D1BD7DFF39CC";
shapes = (
{
closed = 1;
nodes = (
(165,125,l),
(165,700,ls),
(165,735,o),
(137,763,o),
(102,763,cs),
(68,763,o),
(40,735,o),
(40,700,cs),
(40,63,ls),
(40,28,o),
(68,0,o),
(102,0,cs),
(409,0,ls),
(443,0,o),
(472,28,o),
(472,63,cs),
(472,97,o),
(443,125,o),
(409,125,c)
);
},
{
closed = 1;
nodes = (
(322,281,l),
(322,400,l),
(413,400,ls),
(448,400,o),
(476,428,o),
(476,463,cs),
(476,497,o),
(448,526,o),
(413,526,cs),
(322,526,l),
(322,637,l),
(436,637,ls),
(470,637,o),
(498,666,o),
(498,700,cs),
(498,735,o),
(470,763,o),
(436,763,cs),
(259,763,ls),
(225,763,o),
(197,735,o),
(197,700,cs),
(197,218,ls),
(197,183,o),
(225,155,o),
(259,155,cs),
(456,155,ls),
(490,155,o),
(518,183,o),
(518,218,cs),
(518,253,o),
(490,281,o),
(456,281,c)
);
},
{
alignment = -1;
pos = (266,0);
ref = acute;
}
);
width = 544;
}
);
},
{
color = 4;
glyphname = L_Ecircumflex.dlig;
kernRight = _l_e;
lastChange = "2025-05-12 17:01:51 +0000";
layers = (
{
guides = (
{
angle = 90;
pos = (498,0);
}
);
layerId = "A0314109-5958-4499-961C-D1BD7DFF39CC";
shapes = (
{
closed = 1;
nodes = (
(165,125,l),
(165,700,ls),
(165,735,o),
(137,763,o),
(102,763,cs),
(68,763,o),
(40,735,o),
(40,700,cs),
(40,63,ls),
(40,28,o),
(68,0,o),
(102,0,cs),
(409,0,ls),
(443,0,o),
(472,28,o),
(472,63,cs),
(472,97,o),
(443,125,o),
(409,125,c)
);
},
{
closed = 1;
nodes = (
(322,281,l),
(322,400,l),
(413,400,ls),
(448,400,o),
(476,428,o),
(476,463,cs),
(476,497,o),
(448,526,o),
(413,526,cs),
(322,526,l),
(322,637,l),
(436,637,ls),
(470,637,o),
(498,666,o),
(498,700,cs),
(498,735,o),
(470,763,o),
(436,763,cs),
(259,763,ls),
(225,763,o),
(197,735,o),
(197,700,cs),
(197,218,ls),
(197,183,o),
(225,155,o),
(259,155,cs),
(456,155,ls),
(490,155,o),
(518,183,o),
(518,218,cs),
(518,253,o),
(490,281,o),
(456,281,c)
);
},
{
alignment = -1;
pos = (154,0);
ref = circumflex;
}
);
width = 544;
}
);
},
{
color = 4;
glyphname = L_H.dlig;
lastChange = "2025-05-12 17:01:51 +0000";
layers = (
{
layerId = "A0314109-5958-4499-961C-D1BD7DFF39CC";
shapes = (
{
closed = 1;
nodes = (
(165,125,l),
(165,700,ls),
(165,735,o),
(137,763,o),
(102,763,cs),
(68,763,o),
(40,735,o),
(40,700,cs),
(40,63,ls),
(40,28,o),
(68,0,o),
(102,0,cs),
(409,0,ls),
(443,0,o),
(472,28,o),
(472,63,cs),
(472,97,o),
(443,125,o),
(409,125,c)
);
},
{
closed = 1;
nodes = (
(546,763,o),
(518,735,o),
(518,700,cs),
(518,480,l),
(323,480,l),
(323,701,ls),
(323,735,o),
(295,764,o),
(260,764,cs),
(225,764,o),
(197,735,o),
(197,701,cs),
(197,219,ls),
(197,184,o),
(225,156,o),
(260,156,cs),
(295,156,o),
(323,184,o),
(323,219,cs),
(323,355,l),
(518,355,l),
(518,63,ls),
(518,28,o),
(546,0,o),
(580,0,cs),
(615,0,o),
(643,28,o),
(643,63,cs),
(643,700,ls),
(643,735,o),
(615,763,o),
(580,763,cs)
);
}
);
width = 693;
}
);
},
{
color = 4;
glyphname = L_L.dlig;
lastChange = "2025-05-12 17:01:51 +0000";
layers = (
{
layerId = "A0314109-5958-4499-961C-D1BD7DFF39CC";
shapes = (
{
closed = 1;
nodes = (
(166,125,l),
(166,700,ls),
(166,735,o),
(138,763,o),
(103,763,cs),
(68,763,o),
(40,735,o),
(40,700,cs),
(40,63,ls),
(40,28,o),
(68,0,o),
(103,0,cs),
(515,0,ls),
(550,0,o),
(578,28,o),
(578,63,cs),
(578,97,o),
(550,125,o),
(515,125,c)
);
},
{
closed = 1;
nodes = (
(321,281,l),
(321,700,ls),
(321,735,o),
(293,763,o),
(258,763,cs),
(224,763,o),
(196,735,o),
(196,700,cs),
(196,218,ls),
(196,183,o),
(224,155,o),
(258,155,cs),
(515,155,ls),
(550,155,o),
(578,183,o),
(578,218,cs),
(578,253,o),
(550,281,o),
(515,281,c)
);
}
);
width = 598;
}
);
},
{
color = 4;
glyphname = L_O.dlig;
kernRight = _l_o;
lastChange = "2025-05-12 17:01:51 +0000";
layers = (
{
layerId = "A0314109-5958-4499-961C-D1BD7DFF39CC";
shapes = (
{
closed = 1;
nodes = (
(68,763,o),
(40,735,o),
(40,701,cs),
(40,63,ls),
(40,28,o),
(68,0,o),
(103,0,cs),
(409,0,ls),
(444,0,o),
(472,28,o),
(472,63,cs),
(472,98,o),
(444,126,o),
(409,126,cs),
(165,126,l),
(165,701,ls),
(165,735,o),
(137,763,o),
(103,763,cs)
);
},
{
closed = 1;
nodes = (
(694,533,ls),
(694,671,o),
(582,783,o),
(445,783,cs),
(307,783,o),
(195,671,o),
(195,533,cs),
(195,404,ls),
(195,266,o),
(307,154,o),
(445,154,cs),
(582,154,o),
(694,266,o),
(694,404,c)
);
},
{
closed = 1;
nodes = (
(321,533,ls),
(321,602,o),
(377,657,o),
(445,657,cs),
(513,657,o),
(569,602,o),
(569,533,cs),
(569,404,ls),
(569,335,o),
(513,280,o),
(445,280,cs),
(377,280,o),
(321,335,o),
(321,404,c)
);
}
);
width = 714;
}
);
},
{
color = 4;
glyphname = L_Oacute.dlig;
kernRight = _l_o;
lastChange = "2025-05-12 17:01:51 +0000";
layers = (
{
layerId = "A0314109-5958-4499-961C-D1BD7DFF39CC";
shapes = (
{
closed = 1;
nodes = (
(68,763,o),
(40,735,o),
(40,701,cs),
(40,63,ls),
(40,28,o),
(68,0,o),
(103,0,cs),
(409,0,ls),
(444,0,o),
(472,28,o),
(472,63,cs),
(472,98,o),
(444,126,o),
(409,126,cs),
(165,126,l),
(165,701,ls),
(165,735,o),
(137,763,o),
(103,763,cs)
);
},
{
closed = 1;
nodes = (
(694,533,ls),
(694,671,o),
(582,783,o),
(445,783,cs),
(307,783,o),
(195,671,o),
(195,533,cs),
(195,404,ls),
(195,266,o),
(307,154,o),
(445,154,cs),
(582,154,o),
(694,266,o),
(694,404,c)
);
},
{
closed = 1;
nodes = (
(321,533,ls),
(321,602,o),
(377,657,o),
(445,657,cs),
(513,657,o),
(569,602,o),
(569,533,cs),
(569,404,ls),
(569,335,o),
(513,280,o),
(445,280,cs),
(377,280,o),
(321,335,o),
(321,404,c)
);
},
{
alignment = -1;
pos = (453,0);
ref = acute;
}
);
width = 721;
}
);
},
{
color = 4;
glyphname = L_Ocircumflex.dlig;
kernRight = _l_o;
lastChange = "2025-05-12 17:01:51 +0000";
layers = (
{
layerId = "A0314109-5958-4499-961C-D1BD7DFF39CC";
shapes = (
{
closed = 1;
nodes = (
(68,763,o),
(40,735,o),
(40,701,cs),
(40,63,ls),
(40,28,o),
(68,0,o),
(103,0,cs),
(409,0,ls),
(444,0,o),
(472,28,o),
(472,63,cs),
(472,98,o),
(444,126,o),
(409,126,cs),
(165,126,l),
(165,701,ls),
(165,735,o),
(137,763,o),
(103,763,cs)
);
},
{
closed = 1;
nodes = (
(694,533,ls),
(694,671,o),
(582,783,o),
(445,783,cs),
(307,783,o),
(195,671,o),
(195,533,cs),
(195,404,ls),
(195,266,o),
(307,154,o),
(445,154,cs),
(582,154,o),
(694,266,o),
(694,404,c)
);
},
{
closed = 1;
nodes = (
(321,533,ls),
(321,602,o),
(377,657,o),
(445,657,cs),
(513,657,o),
(569,602,o),
(569,533,cs),
(569,404,ls),
(569,335,o),
(513,280,o),
(445,280,cs),
(377,280,o),
(321,335,o),
(321,404,c)
);
},
{
alignment = -1;
pos = (254,6);
ref = circumflex;
}
);
width = 724;
}
);
},
{
color = 4;
glyphname = L_Otilde.dlig;
kernRight = _l_o;
lastChange = "2025-05-12 17:01:51 +0000";
layers = (
{
layerId = "A0314109-5958-4499-961C-D1BD7DFF39CC";
shapes = (
{
closed = 1;
nodes = (
(68,763,o),
(40,735,o),
(40,701,cs),
(40,63,ls),
(40,28,o),
(68,0,o),
(103,0,cs),
(409,0,ls),
(444,0,o),
(472,28,o),
(472,63,cs),
(472,98,o),
(444,126,o),
(409,126,cs),
(165,126,l),
(165,701,ls),
(165,735,o),
(137,763,o),
(103,763,cs)
);
},
{
closed = 1;
nodes = (
(694,533,ls),
(694,671,o),
(582,783,o),
(445,783,cs),
(307,783,o),
(195,671,o),
(195,533,cs),
(195,404,ls),
(195,266,o),
(307,154,o),
(445,154,cs),
(582,154,o),
(694,266,o),
(694,404,c)
);
},
{
closed = 1;
nodes = (
(321,533,ls),
(321,602,o),
(377,657,o),
(445,657,cs),
(513,657,o),
(569,602,o),
(569,533,cs),
(569,404,ls),
(569,335,o),
(513,280,o),
(445,280,cs),
(377,280,o),
(321,335,o),
(321,404,c)
);
},
{
alignment = -1;
pos = (240,10);
ref = tilde;
}
);
width = 724;
}
);
},
{
color = 4;
glyphname = L_U.dlig;
kernRight = _l_u;
lastChange = "2025-05-12 17:01:51 +0000";
layers = (
{
layerId = "A0314109-5958-4499-961C-D1BD7DFF39CC";
shapes = (
{
closed = 1;
nodes = (
(166,125,l),
(166,700,ls),
(166,735,o),
(138,763,o),
(103,763,cs),
(68,763,o),
(40,735,o),
(40,700,cs),
(40,63,ls),
(40,28,o),
(68,0,o),
(103,0,cs),
(409,0,ls),
(444,0,o),
(472,28,o),
(472,63,cs),
(472,97,o),
(444,125,o),
(409,125,c)
);
},
{
closed = 1;
nodes = (
(598,763,o),
(570,735,o),
(570,701,cs),
(570,398,ls),
(570,330,o),
(515,274,o),
(446,274,cs),
(378,274,o),
(323,330,o),
(323,398,cs),
(323,701,ls),
(323,735,o),
(294,763,o),
(260,763,cs),
(225,763,o),
(197,735,o),
(197,701,cs),
(197,398,ls),
(197,261,o),
(309,149,o),
(446,149,cs),
(584,149,o),
(696,261,o),
(696,398,cs),
(696,701,ls),
(696,735,o),
(668,763,o),
(633,763,cs)
);
}
);
width = 716;
}
);
},
{
color = 4;
glyphname = L_Uacute.dlig;
kernRight = _l_u;
lastChange = "2025-05-12 17:01:51 +0000";
layers = (
{
layerId = "A0314109-5958-4499-961C-D1BD7DFF39CC";
shapes = (
{
closed = 1;
nodes = (
(166,125,l),
(166,700,ls),
(166,735,o),
(138,763,o),
(103,763,cs),
(68,763,o),
(40,735,o),
(40,700,cs),
(40,63,ls),
(40,28,o),
(68,0,o),
(103,0,cs),
(409,0,ls),
(444,0,o),
(472,28,o),
(472,63,cs),
(472,97,o),
(444,125,o),
(409,125,c)
);
},
{
closed = 1;
nodes = (
(598,763,o),
(570,735,o),
(570,701,cs),
(570,398,ls),
(570,330,o),
(515,274,o),
(446,274,cs),
(378,274,o),
(323,330,o),
(323,398,cs),
(323,701,ls),
(323,735,o),
(294,763,o),
(260,763,cs),
(225,763,o),
(197,735,o),
(197,701,cs),
(197,398,ls),
(197,261,o),
(309,149,o),
(446,149,cs),
(584,149,o),
(696,261,o),
(696,398,cs),
(696,701,ls),
(696,735,o),
(668,763,o),
(633,763,cs)
);
},
{
alignment = -1;
pos = (455,-14);
ref = acute;
}
);
width = 736;
}
);
},
{
color = 4;
glyphname = L_i.dlig;
kernRight = _l_i;
lastChange = "2025-05-12 17:01:51 +0000";
layers = (
{
layerId = "A0314109-5958-4499-961C-D1BD7DFF39CC";
shapes = (
{
closed = 1;
nodes = (
(307,630,o),
(323,637,o),
(335,648,cs),
(347,660,o),
(353,676,o),
(353,693,cs),
(353,709,o),
(347,725,o),
(335,737,cs),
(323,749,o),
(307,756,o),
(291,756,cs),
(274,756,o),
(258,749,o),
(246,737,cs),
(234,725,o),
(228,709,o),
(228,693,cs),
(228,676,o),
(234,660,o),
(246,648,cs),
(258,637,o),
(274,630,o),
(291,630,cs)
);
},
{
closed = 1;
nodes = (
(256,544,o),
(228,516,o),
(228,481,cs),
(228,234,ls),
(228,199,o),
(256,171,o),
(291,171,cs),
(325,171,o),
(353,199,o),
(353,234,cs),
(353,481,ls),
(353,516,o),
(325,544,o),
(291,544,cs)
);
},
{
closed = 1;
nodes = (
(166,125,l),
(166,700,ls),
(166,735,o),
(138,763,o),
(103,763,cs),
(68,763,o),
(40,735,o),
(40,700,cs),
(40,63,ls),
(40,28,o),
(68,0,o),
(103,0,cs),
(372,0,ls),
(406,0,o),
(434,28,o),
(434,63,cs),
(434,97,o),
(406,125,o),
(372,125,c)
);
}
);
width = 424;
}
);
},
{
color = 4;
glyphname = L_iacute.dlig;
kernRight = _l_i;
lastChange = "2025-05-12 17:01:51 +0000";
layers = (
{
layerId = "A0314109-5958-4499-961C-D1BD7DFF39CC";
shapes = (
{
closed = 1;
nodes = (
(241,569,o),
(213,541,o),
(213,506,cs),
(213,234,ls),
(213,199,o),
(241,171,o),
(276,171,cs),
(310,171,o),
(338,199,o),
(338,234,cs),
(338,506,ls),
(338,541,o),
(310,569,o),
(276,569,cs)
);
},
{
closed = 1;
nodes = (
(166,125,l),
(166,700,ls),
(166,735,o),
(138,763,o),
(103,763,cs),
(68,763,o),
(40,735,o),
(40,700,cs),
(40,63,ls),
(40,28,o),
(68,0,o),
(103,0,cs),
(372,0,ls),
(406,0,o),
(434,28,o),
(434,63,cs),
(434,97,o),
(406,125,o),
(372,125,c)
);
},
{
alignment = -1;
pos = (178,-152);
ref = acute;
}
);
width = 434;
}
);
},
{
color = 4;
glyphname = M_A.dlig;
kernLeft = _A.alt5;
lastChange = "2025-05-12 17:01:51 +0000";
layers = (
{
layerId = "A0314109-5958-4499-961C-D1BD7DFF39CC";
shapes = (
{
closed = 1;
nodes = (
(1375,769,o),
(1347,759,o),
(1331,736,cs),
(1013,267,l),
(1013,701,ls),
(1013,728,o),
(995,753,o),
(969,761,cs),
(942,769,o),
(914,759,o),
(898,736,cs),
(580,267,l),
(580,701,ls),
(580,728,o),
(562,753,o),
(535,761,cs),
(509,769,o),
(480,759,o),
(465,736,cs),
(32,99,ls),
(12,70,o),
(20,31,o),
(48,11,c),
(77,-8,o),
(116,-1,o),
(136,28,cs),
(454,497,l),
(454,63,ls),
(454,36,o),
(472,11,o),
(498,3,cs),
(525,-5,o),
(553,5,o),
(569,28,cs),
(887,497,l),
(887,63,ls),
(887,28,o),
(915,0,o),
(950,0,cs),
(973,0,o),
(993,12,o),
(1004,31,c),
(1089,155,l),
(1321,155,l),
(1321,63,ls),
(1321,28,o),
(1349,0,o),
(1383,0,cs),
(1418,0,o),
(1446,28,o),
(1446,63,cs),
(1446,701,ls),
(1446,728,o),
(1428,753,o),
(1402,761,cs)
);
},
{
closed = 1;
nodes = (
(1174,281,l),
(1321,497,l),
(1321,281,l)
);
}
);
width = 1496;
}
);
},
{
color = 4;
glyphname = M_Aacute.dlig;
kernLeft = _A.alt5;
lastChange = "2025-05-12 17:01:51 +0000";
layers = (
{
layerId = "A0314109-5958-4499-961C-D1BD7DFF39CC";
shapes = (
{
closed = 1;
nodes = (
(1375,769,o),
(1347,759,o),
(1331,736,cs),
(1013,267,l),
(1013,701,ls),
(1013,728,o),
(995,753,o),
(969,761,cs),
(942,769,o),
(914,759,o),
(898,736,cs),
(580,267,l),
(580,701,ls),
(580,728,o),
(562,753,o),
(535,761,cs),
(509,769,o),
(480,759,o),
(465,736,cs),
(32,99,ls),
(12,70,o),
(20,31,o),
(48,11,c),
(77,-8,o),
(116,-1,o),
(136,28,cs),
(454,497,l),
(454,63,ls),
(454,36,o),
(472,11,o),
(498,3,cs),
(525,-5,o),
(553,5,o),
(569,28,cs),
(887,497,l),
(887,63,ls),
(887,28,o),
(915,0,o),
(950,0,cs),
(973,0,o),
(993,12,o),
(1004,31,c),
(1089,155,l),
(1321,155,l),
(1321,63,ls),
(1321,28,o),
(1349,0,o),
(1383,0,cs),
(1418,0,o),
(1446,28,o),
(1446,63,cs),
(1446,701,ls),
(1446,728,o),
(1428,753,o),
(1402,761,cs)
);
},
{
closed = 1;
nodes = (
(1174,281,l),
(1321,497,l),
(1321,281,l)
);
},
{
alignment = -1;
pos = (1345,0);
ref = acute;
}
);
width = 1496;
}
);
},
{
color = 4;
glyphname = M_Atilde.dlig;
kernLeft = _A.alt5;
lastChange = "2025-05-12 17:01:51 +0000";
layers = (
{
layerId = "A0314109-5958-4499-961C-D1BD7DFF39CC";
shapes = (
{
closed = 1;
nodes = (
(1375,769,o),
(1347,759,o),
(1331,736,cs),
(1013,267,l),
(1013,701,ls),
(1013,728,o),
(995,753,o),
(969,761,cs),
(942,769,o),
(914,759,o),
(898,736,cs),
(580,267,l),
(580,701,ls),
(580,728,o),
(562,753,o),
(535,761,cs),
(509,769,o),
(480,759,o),
(465,736,cs),
(32,99,ls),
(12,70,o),
(20,31,o),
(48,11,c),
(77,-8,o),
(116,-1,o),
(136,28,cs),
(454,497,l),
(454,63,ls),
(454,36,o),
(472,11,o),
(498,3,cs),
(525,-5,o),
(553,5,o),
(569,28,cs),
(887,497,l),
(887,63,ls),
(887,28,o),
(915,0,o),
(950,0,cs),
(973,0,o),
(993,12,o),
(1004,31,c),
(1089,155,l),
(1321,155,l),
(1321,63,ls),
(1321,28,o),
(1349,0,o),
(1383,0,cs),
(1418,0,o),
(1446,28,o),
(1446,63,cs),
(1446,701,ls),
(1446,728,o),
(1428,753,o),
(1402,761,cs)
);
},
{
closed = 1;
nodes = (
(1174,281,l),
(1321,497,l),
(1321,281,l)
);
},
{
alignment = -1;
pos = (1195,-5);
ref = tilde;
}
);
width = 1496;
}
);
},
{
color = 4;
glyphname = N_T.dlig;
kernRight = _T_rb;
lastChange = "2025-05-12 17:01:51 +0000";
layers = (
{
layerId = "A0314109-5958-4499-961C-D1BD7DFF39CC";
shapes = (
{
closed = 1;
nodes = (
(326,763,ls),
(292,763,o),
(264,735,o),
(264,701,cs),
(264,666,o),
(292,638,o),
(326,638,cs),
(434,638,l),
(434,284,l),
(156,734,ls),
(141,758,o),
(113,769,o),
(86,761,cs),
(59,753,o),
(40,729,o),
(40,701,cs),
(40,63,ls),
(40,28,o),
(68,0,o),
(103,0,cs),
(138,0,o),
(166,28,o),
(166,63,cs),
(166,480,l),
(444,30,l),
(455,11,o),
(476,0,o),
(497,0,cs),
(503,0,o),
(509,1,o),
(514,3,c),
(541,10,o),
(560,35,o),
(560,63,cs),
(560,701,ls),
(560,735,o),
(532,763,o),
(497,763,c)
);
},
{
closed = 1;
nodes = (
(830,764,o),
(830,764,o),
(830,764,c),
(653,763,ls),
(618,763,o),
(590,735,o),
(590,701,cs),
(590,63,ls),
(590,28,o),
(618,0,o),
(653,0,cs),
(688,0,o),
(716,28,o),
(716,63,cs),
(716,638,l),
(830,638,ls),
(865,638,o),
(893,666,o),
(893,701,cs),
(893,736,o),
(865,764,o),
(830,764,c)
);
}
);
width = 903;
}
);
},
{
color = 4;
glyphname = N_T_E_M.dlig;
lastChange = "2025-05-12 17:01:51 +0000";
layers = (
{
layerId = "A0314109-5958-4499-961C-D1BD7DFF39CC";
shapes = (
{
closed = 1;
nodes = (
(2041,768,o),
(2012,758,o),
(1997,735,cs),
(1678,267,l),
(1678,700,ls),
(1678,728,o),
(1660,752,o),
(1634,760,cs),
(1608,768,o),
(1579,758,o),
(1563,735,cs),
(1149,125,l),
(976,125,l),
(976,353,l),
(1164,353,ls),
(1199,353,o),
(1227,381,o),
(1227,416,cs),
(1227,450,o),
(1199,479,o),
(1164,479,cs),
(976,479,l),
(976,637,l),
(1200,637,ls),
(1234,637,o),
(1263,666,o),
(1263,700,cs),
(1263,735,o),
(1234,763,o),
(1200,763,cs),
(853,763,o),
(753,763,o),
(653,763,c),
(618,763,o),
(590,735,o),
(590,700,cs),
(590,63,ls),
(590,28,o),
(618,0,o),
(653,0,cs),
(688,0,o),
(716,28,o),
(716,63,cs),
(716,637,l),
(851,638,l),
(851,63,ls),
(851,28,o),
(879,0,o),
(914,0,cs),
(1182,0,ls),
(1203,0,o),
(1222,10,o),
(1234,27,cs),
(1553,496,l),
(1553,63,ls),
(1553,35,o),
(1571,11,o),
(1597,3,cs),
(1623,-5,o),
(1652,5,o),
(1667,27,cs),
(1986,496,l),
(1986,63,ls),
(1986,28,o),
(2014,0,o),
(2049,0,cs),
(2083,0,o),
(2111,28,o),
(2111,63,cs),
(2111,700,ls),
(2111,728,o),
(2093,752,o),
(2067,760,cs)
);
},
{
closed = 1;
nodes = (
(326,763,ls),
(292,763,o),
(264,735,o),
(264,700,cs),
(264,666,o),
(292,637,o),
(326,637,cs),
(434,637,l),
(434,283,l),
(156,733,ls),
(141,757,o),
(113,768,o),
(86,761,cs),
(59,753,o),
(40,728,o),
(40,700,cs),
(40,63,ls),
(40,28,o),
(68,0,o),
(103,0,cs),
(137,0,o),
(166,28,o),
(166,63,cs),
(166,479,l),
(444,30,l),
(455,11,o),
(476,0,o),
(497,0,cs),
(503,0,o),
(509,1,o),
(514,2,cs),
(541,10,o),
(560,35,o),
(560,63,cs),
(560,700,ls),
(560,735,o),
(532,763,o),
(497,763,c)
);
}
);
width = 2151;
}
);
},
{
color = 4;
glyphname = N_T_Eacute_M.dlig;
lastChange = "2025-05-12 17:01:51 +0000";
layers = (
{
layerId = "A0314109-5958-4499-961C-D1BD7DFF39CC";
shapes = (
{
closed = 1;
nodes = (
(2041,768,o),
(2012,758,o),
(1997,735,cs),
(1678,267,l),
(1678,700,ls),
(1678,728,o),
(1660,752,o),
(1634,760,cs),
(1608,768,o),
(1579,758,o),
(1563,735,cs),
(1149,125,l),
(976,125,l),
(976,353,l),
(1164,353,ls),
(1199,353,o),
(1227,381,o),
(1227,416,cs),
(1227,450,o),
(1199,479,o),
(1164,479,cs),
(976,479,l),
(976,637,l),
(1200,637,ls),
(1234,637,o),
(1263,666,o),
(1263,700,cs),
(1263,735,o),
(1234,763,o),
(1200,763,cs),
(853,763,o),
(753,763,o),
(653,763,c),
(618,763,o),
(590,735,o),
(590,700,cs),
(590,63,ls),
(590,28,o),
(618,0,o),
(653,0,cs),
(688,0,o),
(716,28,o),
(716,63,cs),
(716,637,l),
(851,638,l),
(851,63,ls),
(851,28,o),
(879,0,o),
(914,0,cs),
(1182,0,ls),
(1203,0,o),
(1222,10,o),
(1234,27,cs),
(1553,496,l),
(1553,63,ls),
(1553,35,o),
(1571,11,o),
(1597,3,cs),
(1623,-5,o),
(1652,5,o),
(1667,27,cs),
(1986,496,l),
(1986,63,ls),
(1986,28,o),
(2014,0,o),
(2049,0,cs),
(2083,0,o),
(2111,28,o),
(2111,63,cs),
(2111,700,ls),
(2111,728,o),
(2093,752,o),
(2067,760,cs)
);
},
{
closed = 1;
nodes = (
(326,763,ls),
(292,763,o),
(264,735,o),
(264,700,cs),
(264,666,o),
(292,637,o),
(326,637,cs),
(434,637,l),
(434,283,l),
(156,733,ls),
(141,757,o),
(113,768,o),
(86,761,cs),
(59,753,o),
(40,728,o),
(40,700,cs),
(40,63,ls),
(40,28,o),
(68,0,o),
(103,0,cs),
(137,0,o),
(166,28,o),
(166,63,cs),
(166,479,l),
(444,30,l),
(455,11,o),
(476,0,o),
(497,0,cs),
(503,0,o),
(509,1,o),
(514,2,cs),
(541,10,o),
(560,35,o),
(560,63,cs),
(560,700,ls),
(560,735,o),
(532,763,o),
(497,763,c)
);
},
{
alignment = -1;
pos = (978,0);
ref = acute;
}
);
width = 2151;
}
);
},
{
color = 4;
glyphname = N_T_Ecircumflex_M.dlig;
lastChange = "2025-05-12 17:01:51 +0000";
layers = (
{
layerId = "A0314109-5958-4499-961C-D1BD7DFF39CC";
shapes = (
{
closed = 1;
nodes = (
(2041,768,o),
(2012,758,o),
(1997,735,cs),
(1678,267,l),
(1678,700,ls),
(1678,728,o),
(1660,752,o),
(1634,760,cs),
(1608,768,o),
(1579,758,o),
(1563,735,cs),
(1149,125,l),
(976,125,l),
(976,353,l),
(1164,353,ls),
(1199,353,o),
(1227,381,o),
(1227,416,cs),
(1227,450,o),
(1199,479,o),
(1164,479,cs),
(976,479,l),
(976,637,l),
(1200,637,ls),
(1234,637,o),
(1263,666,o),
(1263,700,cs),
(1263,735,o),
(1234,763,o),
(1200,763,cs),
(853,763,o),
(753,763,o),
(653,763,c),
(618,763,o),
(590,735,o),
(590,700,cs),
(590,63,ls),
(590,28,o),
(618,0,o),
(653,0,cs),
(688,0,o),
(716,28,o),
(716,63,cs),
(716,637,l),
(851,638,l),
(851,63,ls),
(851,28,o),
(879,0,o),
(914,0,cs),
(1182,0,ls),
(1203,0,o),
(1222,10,o),
(1234,27,cs),
(1553,496,l),
(1553,63,ls),
(1553,35,o),
(1571,11,o),
(1597,3,cs),
(1623,-5,o),
(1652,5,o),
(1667,27,cs),
(1986,496,l),
(1986,63,ls),
(1986,28,o),
(2014,0,o),
(2049,0,cs),
(2083,0,o),
(2111,28,o),
(2111,63,cs),
(2111,700,ls),
(2111,728,o),
(2093,752,o),
(2067,760,cs)
);
},
{
closed = 1;
nodes = (
(326,763,ls),
(292,763,o),
(264,735,o),
(264,700,cs),
(264,666,o),
(292,637,o),
(326,637,cs),
(434,637,l),
(434,283,l),
(156,733,ls),
(141,757,o),
(113,768,o),
(86,761,cs),
(59,753,o),
(40,728,o),
(40,700,cs),
(40,63,ls),
(40,28,o),
(68,0,o),
(103,0,cs),
(137,0,o),
(166,28,o),
(166,63,cs),
(166,479,l),
(444,30,l),
(455,11,o),
(476,0,o),
(497,0,cs),
(503,0,o),
(509,1,o),
(514,2,cs),
(541,10,o),
(560,35,o),
(560,63,cs),
(560,700,ls),
(560,735,o),
(532,763,o),
(497,763,c)
);
},
{
alignment = -1;
pos = (868,0);
ref = circumflex;
}
);
width = 2151;
}
);
},
{
color = 4;
glyphname = O_C.dlig;
kernLeft = _O.Alt2_lb;
kernRight = _O.alt2_rb;
lastChange = "2025-05-12 17:01:51 +0000";
layers = (
{
layerId = "A0314109-5958-4499-961C-D1BD7DFF39CC";
shapes = (
{
closed = 1;
nodes = (
(1099,347,o),
(1064,329,o),
(1053,296,cs),
(1016,182,o),
(911,106,o),
(791,106,cs),
(767,106,o),
(743,109,o),
(720,115,c),
(784,186,o),
(822,280,o),
(822,382,cs),
(822,484,o),
(784,577,o),
(720,648,c),
(743,654,o),
(767,657,o),
(791,657,cs),
(910,657,o),
(1015,581,o),
(1053,468,cs),
(1064,435,o),
(1099,417,o),
(1132,428,cs),
(1165,439,o),
(1183,475,o),
(1172,508,cs),
(1118,672,o),
(965,783,o),
(791,783,cs),
(724,783,o),
(661,766,o),
(606,737,c),
(551,766,o),
(488,783,o),
(421,783,cs),
(200,783,o),
(20,603,o),
(20,382,cs),
(20,161,o),
(200,-19,o),
(421,-19,cs),
(488,-19,o),
(551,-3,o),
(606,26,c),
(661,-3,o),
(724,-19,o),
(791,-19,cs),
(965,-19,o),
(1118,92,o),
(1172,257,cs),
(1183,290,o),
(1165,325,o),
(1132,336,cs)
);
},
{
closed = 1;
nodes = (
(696,301,o),
(661,228,o),
(606,178,c),
(550,228,o),
(516,301,o),
(516,382,cs),
(516,462,o),
(550,535,o),
(606,586,c),
(661,535,o),
(696,462,o),
(696,382,cs)
);
},
{
closed = 1;
nodes = (
(145,534,o),
(269,657,o),
(421,657,cs),
(445,657,o),
(469,654,o),
(491,648,c),
(428,577,o),
(390,484,o),
(390,382,cs),
(390,280,o),
(428,186,o),
(491,115,c),
(469,109,o),
(445,106,o),
(421,106,cs),
(269,106,o),
(145,230,o),
(145,382,cs)
);
}
);
width = 1196;
}
);
},
{
color = 4;
glyphname = O_C_A.dlig;
kernLeft = _O.Alt2_lb;
lastChange = "2025-05-12 17:01:51 +0000";
layers = (
{
layerId = "A0314109-5958-4499-961C-D1BD7DFF39CC";
shapes = (
{
closed = 1;
nodes = (
(487,-19,o),
(550,-2,o),
(606,26,c),
(661,-2,o),
(724,-19,o),
(791,-19,cs),
(924,-19,o),
(1047,46,o),
(1122,156,c),
(1354,156,l),
(1354,64,ls),
(1354,29,o),
(1382,1,o),
(1417,1,cs),
(1452,1,o),
(1480,29,o),
(1480,64,cs),
(1480,701,ls),
(1480,729,o),
(1462,753,o),
(1435,761,cs),
(1409,769,o),
(1381,759,o),
(1365,736,cs),
(1021,230,ls),
(969,153,o),
(884,107,o),
(791,107,cs),
(767,107,o),
(743,110,o),
(721,116,c),
(784,187,o),
(822,280,o),
(822,382,cs),
(822,484,o),
(783,577,o),
(720,648,c),
(743,654,o),
(766,658,o),
(791,658,cs),
(883,658,o),
(969,612,o),
(1020,536,cs),
(1040,507,o),
(1079,499,o),
(1107,519,c),
(1136,538,o),
(1144,577,o),
(1124,606,cs),
(1050,717,o),
(925,783,o),
(791,783,cs),
(724,783,o),
(661,766,o),
(605,737,c),
(550,766,o),
(487,783,o),
(421,783,cs),
(200,783,o),
(20,603,o),
(20,382,cs),
(20,161,o),
(200,-19,o),
(421,-19,cs)
);
},
{
closed = 1;
nodes = (
(445,658,o),
(469,654,o),
(491,648,c),
(428,577,o),
(390,484,o),
(390,382,cs),
(390,280,o),
(428,187,o),
(491,116,c),
(468,110,o),
(445,107,o),
(421,107,cs),
(269,107,o),
(146,230,o),
(146,382,cs),
(146,534,o),
(269,658,o),
(421,658,cs)
);
},
{
closed = 1;
nodes = (
(516,463,o),
(550,536,o),
(606,586,c),
(662,536,o),
(697,463,o),
(697,382,cs),
(697,301,o),
(662,228,o),
(606,178,c),
(550,228,o),
(516,301,o),
(516,382,cs)
);
},
{
closed = 1;
nodes = (
(1208,281,l),
(1354,497,l),
(1354,281,l)
);
}
);
width = 1530;
}
);
},
{
color = 4;
glyphname = O_C_Aacute.dlig;
kernLeft = _O.Alt2_lb;
lastChange = "2025-05-12 17:01:51 +0000";
layers = (
{
layerId = "A0314109-5958-4499-961C-D1BD7DFF39CC";
shapes = (
{
closed = 1;
nodes = (
(487,-19,o),
(550,-2,o),
(606,26,c),
(661,-2,o),
(724,-19,o),
(791,-19,cs),
(924,-19,o),
(1047,46,o),
(1122,156,c),
(1354,156,l),
(1354,64,ls),
(1354,29,o),
(1382,1,o),
(1417,1,cs),
(1452,1,o),
(1480,29,o),
(1480,64,cs),
(1480,701,ls),
(1480,729,o),
(1462,753,o),
(1435,761,cs),
(1409,769,o),
(1381,759,o),
(1365,736,cs),
(1021,230,ls),
(969,153,o),
(884,107,o),
(791,107,cs),
(767,107,o),
(743,110,o),
(721,116,c),
(784,187,o),
(822,280,o),
(822,382,cs),
(822,484,o),
(783,577,o),
(720,648,c),
(743,654,o),
(766,658,o),
(791,658,cs),
(883,658,o),
(969,612,o),
(1020,536,cs),
(1040,507,o),
(1079,499,o),
(1107,519,c),
(1136,538,o),
(1144,577,o),
(1124,606,cs),
(1050,717,o),
(925,783,o),
(791,783,cs),
(724,783,o),
(661,766,o),
(605,737,c),
(550,766,o),
(487,783,o),
(421,783,cs),
(200,783,o),
(20,603,o),
(20,382,cs),
(20,161,o),
(200,-19,o),
(421,-19,cs)
);
},
{
closed = 1;
nodes = (
(445,658,o),
(469,654,o),
(491,648,c),
(428,577,o),
(390,484,o),
(390,382,cs),
(390,280,o),
(428,187,o),
(491,116,c),
(468,110,o),
(445,107,o),
(421,107,cs),
(269,107,o),
(146,230,o),
(146,382,cs),
(146,534,o),
(269,658,o),
(421,658,cs)
);
},
{
closed = 1;
nodes = (
(516,463,o),
(550,536,o),
(606,586,c),
(662,536,o),
(697,463,o),
(697,382,cs),
(697,301,o),
(662,228,o),
(606,178,c),
(550,228,o),
(516,301,o),
(516,382,cs)
);
},
{
closed = 1;
nodes = (
(1208,281,l),
(1354,497,l),
(1354,281,l)
);
},
{
closed = 1;
nodes = (
(1484,792,o),
(1494,795,o),
(1503,800,cs),
(1598,856,ls),
(1625,872,o),
(1634,906,o),
(1618,933,cs),
(1603,960,o),
(1568,969,o),
(1541,953,cs),
(1446,897,ls),
(1419,881,o),
(1410,847,o),
(1426,820,cs),
(1436,802,o),
(1455,792,o),
(1474,792,cs)
);
}
);
width = 1530;
}
);
},
{
color = 4;
glyphname = O_C_Acircumflex.dlig;
kernLeft = _O.Alt2_lb;
lastChange = "2025-05-12 17:01:51 +0000";
layers = (
{
layerId = "A0314109-5958-4499-961C-D1BD7DFF39CC";
shapes = (
{
closed = 1;
nodes = (
(487,-19,o),
(550,-2,o),
(606,26,c),
(661,-2,o),
(724,-19,o),
(791,-19,cs),
(924,-19,o),
(1047,46,o),
(1122,156,c),
(1354,156,l),
(1354,64,ls),
(1354,29,o),
(1382,1,o),
(1417,1,cs),
(1452,1,o),
(1480,29,o),
(1480,64,cs),
(1480,701,ls),
(1480,729,o),
(1462,753,o),
(1435,761,cs),
(1409,769,o),
(1381,759,o),
(1365,736,cs),
(1021,230,ls),
(969,153,o),
(884,107,o),
(791,107,cs),
(767,107,o),
(743,110,o),
(721,116,c),
(784,187,o),
(822,280,o),
(822,382,cs),
(822,484,o),
(783,577,o),
(720,648,c),
(743,654,o),
(766,658,o),
(791,658,cs),
(883,658,o),
(969,612,o),
(1020,536,cs),
(1040,507,o),
(1079,499,o),
(1107,519,c),
(1136,538,o),
(1144,577,o),
(1124,606,cs),
(1050,717,o),
(925,783,o),
(791,783,cs),
(724,783,o),
(661,766,o),
(605,737,c),
(550,766,o),
(487,783,o),
(421,783,cs),
(200,783,o),
(20,603,o),
(20,382,cs),
(20,161,o),
(200,-19,o),
(421,-19,cs)
);
},
{
closed = 1;
nodes = (
(445,658,o),
(469,654,o),
(491,648,c),
(428,577,o),
(390,484,o),
(390,382,cs),
(390,280,o),
(428,187,o),
(491,116,c),
(468,110,o),
(445,107,o),
(421,107,cs),
(269,107,o),
(146,230,o),
(146,382,cs),
(146,534,o),
(269,658,o),
(421,658,cs)
);
},
{
closed = 1;
nodes = (
(516,463,o),
(550,536,o),
(606,586,c),
(662,536,o),
(697,463,o),
(697,382,cs),
(697,301,o),
(662,228,o),
(606,178,c),
(550,228,o),
(516,301,o),
(516,382,cs)
);
},
{
closed = 1;
nodes = (
(1208,281,l),
(1354,497,l),
(1354,281,l)
);
},
{
closed = 1;
nodes = (
(1417,804,l),
(1483,765,ls),
(1492,760,o),
(1502,757,o),
(1512,757,cs),
(1531,757,o),
(1550,767,o),
(1561,785,cs),
(1576,812,o),
(1567,847,o),
(1541,862,cs),
(1445,918,l),
(1428,929,o),
(1406,929,o),
(1388,918,cs),
(1293,862,ls),
(1266,847,o),
(1257,812,o),
(1273,785,cs),
(1288,758,o),
(1323,749,o),
(1350,765,c)
);
}
);
width = 1530;
}
);
},
{
color = 4;
glyphname = O_C_Atilde.dlig;
kernLeft = _O.Alt2_lb;
lastChange = "2025-05-12 17:01:51 +0000";
layers = (
{
layerId = "A0314109-5958-4499-961C-D1BD7DFF39CC";
shapes = (
{
closed = 1;
nodes = (
(487,-19,o),
(550,-2,o),
(606,26,c),
(661,-2,o),
(724,-19,o),
(791,-19,cs),
(924,-19,o),
(1047,46,o),
(1122,156,c),
(1354,156,l),
(1354,64,ls),
(1354,29,o),
(1382,1,o),
(1417,1,cs),
(1452,1,o),
(1480,29,o),
(1480,64,cs),
(1480,701,ls),
(1480,729,o),
(1462,753,o),
(1435,761,cs),
(1409,769,o),
(1381,759,o),
(1365,736,cs),
(1021,230,ls),
(969,153,o),
(884,107,o),
(791,107,cs),
(767,107,o),
(743,110,o),
(721,116,c),
(784,187,o),
(822,280,o),
(822,382,cs),
(822,484,o),
(783,577,o),
(720,648,c),
(743,654,o),
(766,658,o),
(791,658,cs),
(883,658,o),
(969,612,o),
(1020,536,cs),
(1040,507,o),
(1079,499,o),
(1107,519,c),
(1136,538,o),
(1144,577,o),
(1124,606,cs),
(1050,717,o),
(925,783,o),
(791,783,cs),
(724,783,o),
(661,766,o),
(605,737,c),
(550,766,o),
(487,783,o),
(421,783,cs),
(200,783,o),
(20,603,o),
(20,382,cs),
(20,161,o),
(200,-19,o),
(421,-19,cs)
);
},
{
closed = 1;
nodes = (
(445,658,o),
(469,654,o),
(491,648,c),
(428,577,o),
(390,484,o),
(390,382,cs),
(390,280,o),
(428,187,o),
(491,116,c),
(468,110,o),
(445,107,o),
(421,107,cs),
(269,107,o),
(146,230,o),
(146,382,cs),
(146,534,o),
(269,658,o),
(421,658,cs)
);
},
{
closed = 1;
nodes = (
(516,463,o),
(550,536,o),
(606,586,c),
(662,536,o),
(697,463,o),
(697,382,cs),
(697,301,o),
(662,228,o),
(606,178,c),
(550,228,o),
(516,301,o),
(516,382,cs)
);
},
{
closed = 1;
nodes = (
(1208,281,l),
(1354,497,l),
(1354,281,l)
);
},
{
closed = 1;
nodes = (
(1520,782,o),
(1554,795,o),
(1584,822,cs),
(1607,843,o),
(1609,879,o),
(1588,902,cs),
(1567,925,o),
(1532,927,o),
(1508,906,cs),
(1498,897,o),
(1491,895,o),
(1482,895,cs),
(1475,895,o),
(1469,898,o),
(1465,901,cs),
(1441,915,o),
(1415,923,o),
(1388,923,cs),
(1350,923,o),
(1316,910,o),
(1286,883,cs),
(1263,862,o),
(1261,827,o),
(1282,803,cs),
(1303,780,o),
(1338,778,o),
(1362,799,cs),
(1372,808,o),
(1380,810,o),
(1388,810,cs),
(1395,810,o),
(1401,807,o),
(1405,805,cs),
(1429,790,o),
(1456,782,o),
(1482,782,cs)
);
}
);
width = 1530;
}
);
},
{
color = 4;
glyphname = O_Ccedilla.dlig;
kernLeft = _O.Alt2_lb;
kernRight = _O.alt2_rb;
lastChange = "2025-05-12 17:01:51 +0000";
layers = (
{
layerId = "A0314109-5958-4499-961C-D1BD7DFF39CC";
shapes = (
{
closed = 1;
nodes = (
(487,-19,o),
(550,-2,o),
(605,26,c),
(660,-3,o),
(724,-20,o),
(791,-20,cs),
(965,-20,o),
(1118,91,o),
(1172,256,cs),
(1183,289,o),
(1165,324,o),
(1132,335,cs),
(1099,346,o),
(1064,328,o),
(1053,295,cs),
(1016,182,o),
(910,106,o),
(791,106,cs),
(766,106,o),
(743,109,o),
(720,115,c),
(783,186,o),
(822,280,o),
(822,382,cs),
(822,484,o),
(784,577,o),
(721,648,c),
(743,654,o),
(767,657,o),
(791,657,cs),
(910,657,o),
(1015,581,o),
(1053,468,cs),
(1064,435,o),
(1099,417,o),
(1132,428,cs),
(1165,439,o),
(1183,474,o),
(1172,507,cs),
(1118,672,o),
(965,782,o),
(791,782,cs),
(724,782,o),
(662,765,o),
(607,737,c),
(551,766,o),
(488,783,o),
(421,783,cs),
(200,783,o),
(20,603,o),
(20,382,cs),
(20,161,o),
(200,-19,o),
(421,-19,cs)
);
},
{
closed = 1;
nodes = (
(446,658,o),
(469,654,o),
(492,648,c),
(429,577,o),
(390,483,o),
(390,381,cs),
(390,279,o),
(427,186,o),
(490,116,c),
(468,110,o),
(445,107,o),
(421,107,cs),
(269,107,o),
(146,230,o),
(146,382,cs),
(146,534,o),
(269,658,o),
(421,658,cs)
);
},
{
closed = 1;
nodes = (
(516,462,o),
(551,535,o),
(607,586,c),
(662,535,o),
(697,462,o),
(697,382,cs),
(697,301,o),
(661,228,o),
(605,177,c),
(550,228,o),
(516,300,o),
(516,381,cs)
);
},
{
closed = 1;
nodes = (
(738,-151,ls),
(707,-151,o),
(682,-126,o),
(682,-94,cs),
(682,-63,o),
(707,-38,o),
(738,-38,cs),
(834,-38,ls),
(865,-38,o),
(890,-63,o),
(890,-94,cs),
(890,-126,o),
(865,-151,o),
(834,-151,c)
);
}
);
width = 1196;
}
);
},
{
color = 4;
glyphname = O_Ccedilla_A.dlig;
kernLeft = _O.Alt2_lb;
lastChange = "2025-05-12 17:01:51 +0000";
layers = (
{
layerId = "A0314109-5958-4499-961C-D1BD7DFF39CC";
shapes = (
{
closed = 1;
nodes = (
(487,-19,o),
(550,-2,o),
(606,26,c),
(661,-2,o),
(724,-19,o),
(791,-19,cs),
(924,-19,o),
(1047,46,o),
(1122,156,c),
(1354,156,l),
(1354,64,ls),
(1354,29,o),
(1382,1,o),
(1417,1,cs),
(1452,1,o),
(1480,29,o),
(1480,64,cs),
(1480,701,ls),
(1480,729,o),
(1462,753,o),
(1435,761,cs),
(1409,769,o),
(1381,759,o),
(1365,736,cs),
(1021,230,ls),
(969,153,o),
(884,107,o),
(791,107,cs),
(767,107,o),
(743,110,o),
(721,116,c),
(784,187,o),
(822,280,o),
(822,382,cs),
(822,484,o),
(783,577,o),
(720,648,c),
(743,654,o),
(766,658,o),
(791,658,cs),
(883,658,o),
(969,612,o),
(1020,536,cs),
(1040,507,o),
(1079,499,o),
(1107,519,c),
(1136,538,o),
(1144,577,o),
(1124,606,cs),
(1050,717,o),
(925,783,o),
(791,783,cs),
(724,783,o),
(661,766,o),
(605,737,c),
(550,766,o),
(487,783,o),
(421,783,cs),
(200,783,o),
(20,603,o),
(20,382,cs),
(20,161,o),
(200,-19,o),
(421,-19,cs)
);
},
{
closed = 1;
nodes = (
(445,658,o),
(469,654,o),
(491,648,c),
(428,577,o),
(390,484,o),
(390,382,cs),
(390,280,o),
(428,187,o),
(491,116,c),
(468,110,o),
(445,107,o),
(421,107,cs),
(269,107,o),
(146,230,o),
(146,382,cs),
(146,534,o),
(269,658,o),
(421,658,cs)
);
},
{
closed = 1;
nodes = (
(516,463,o),
(550,536,o),
(606,586,c),
(662,536,o),
(697,463,o),
(697,382,cs),
(697,301,o),
(662,228,o),
(606,178,c),
(550,228,o),
(516,301,o),
(516,382,cs)
);
},
{
closed = 1;
nodes = (
(1208,281,l),
(1354,497,l),
(1354,281,l)
);
},
{
closed = 1;
nodes = (
(741,-151,ls),
(710,-151,o),
(685,-126,o),
(685,-94,cs),
(685,-63,o),
(710,-38,o),
(741,-38,cs),
(837,-38,ls),
(868,-38,o),
(893,-63,o),
(893,-94,cs),
(893,-126,o),
(868,-151,o),
(837,-151,c)
);
}
);
width = 1530;
}
);
},
{
color = 4;
glyphname = O_Ccedilla_Atilde.dlig;
kernLeft = _O.Alt2_lb;
lastChange = "2025-05-12 17:01:51 +0000";
layers = (
{
layerId = "A0314109-5958-4499-961C-D1BD7DFF39CC";
shapes = (
{
closed = 1;
nodes = (
(487,-19,o),
(550,-2,o),
(606,26,c),
(661,-2,o),
(724,-19,o),
(791,-19,cs),
(924,-19,o),
(1047,46,o),
(1122,156,c),
(1354,156,l),
(1354,64,ls),
(1354,29,o),
(1382,1,o),
(1417,1,cs),
(1452,1,o),
(1480,29,o),
(1480,64,cs),
(1480,701,ls),
(1480,729,o),
(1462,753,o),
(1435,761,cs),
(1409,769,o),
(1381,759,o),
(1365,736,cs),
(1021,230,ls),
(969,153,o),
(884,107,o),
(791,107,cs),
(767,107,o),
(743,110,o),
(721,116,c),
(784,187,o),
(822,280,o),
(822,382,cs),
(822,484,o),
(783,577,o),
(720,648,c),
(743,654,o),
(766,658,o),
(791,658,cs),
(883,658,o),
(969,612,o),
(1020,536,cs),
(1040,507,o),
(1079,499,o),
(1107,519,c),
(1136,538,o),
(1144,577,o),
(1124,606,cs),
(1050,717,o),
(925,783,o),
(791,783,cs),
(724,783,o),
(661,766,o),
(605,737,c),
(550,766,o),
(487,783,o),
(421,783,cs),
(200,783,o),
(20,603,o),
(20,382,cs),
(20,161,o),
(200,-19,o),
(421,-19,cs)
);
},
{
closed = 1;
nodes = (
(445,658,o),
(469,654,o),
(491,648,c),
(428,577,o),
(390,484,o),
(390,382,cs),
(390,280,o),
(428,187,o),
(491,116,c),
(468,110,o),
(445,107,o),
(421,107,cs),
(269,107,o),
(146,230,o),
(146,382,cs),
(146,534,o),
(269,658,o),
(421,658,cs)
);
},
{
closed = 1;
nodes = (
(516,463,o),
(550,536,o),
(606,586,c),
(662,536,o),
(697,463,o),
(697,382,cs),
(697,301,o),
(662,228,o),
(606,178,c),
(550,228,o),
(516,301,o),
(516,382,cs)
);
},
{
closed = 1;
nodes = (
(1208,281,l),
(1354,497,l),
(1354,281,l)
);
},
{
closed = 1;
nodes = (
(1520,782,o),
(1554,795,o),
(1584,822,cs),
(1607,843,o),
(1609,879,o),
(1588,902,cs),
(1567,925,o),
(1532,927,o),
(1508,906,cs),
(1498,897,o),
(1491,895,o),
(1482,895,cs),
(1475,895,o),
(1469,898,o),
(1465,901,cs),
(1441,915,o),
(1415,923,o),
(1388,923,cs),
(1350,923,o),
(1316,910,o),
(1286,883,cs),
(1263,862,o),
(1261,827,o),
(1282,803,cs),
(1303,780,o),
(1338,778,o),
(1362,799,cs),
(1372,808,o),
(1380,810,o),
(1388,810,cs),
(1395,810,o),
(1401,807,o),
(1405,805,cs),
(1429,790,o),
(1456,782,o),
(1482,782,cs)
);
},
{
closed = 1;
nodes = (
(738,-151,ls),
(707,-151,o),
(682,-126,o),
(682,-94,cs),
(682,-63,o),
(707,-38,o),
(738,-38,cs),
(834,-38,ls),
(865,-38,o),
(890,-63,o),
(890,-94,cs),
(890,-126,o),
(865,-151,o),
(834,-151,c)
);
}
);
width = 1530;
}
);
},
{
color = 4;
glyphname = O_O.dlig;
kernLeft = _O.Alt2_lb;
kernRight = _O.alt2_rb;
lastChange = "2025-05-12 17:01:51 +0000";
layers = (
{
layerId = "A0314109-5958-4499-961C-D1BD7DFF39CC";
shapes = (
{
closed = 1;
nodes = (
(745,783,o),
(677,764,o),
(619,731,c),
(560,764,o),
(493,783,o),
(421,783,cs),
(200,783,o),
(20,603,o),
(20,382,cs),
(20,161,o),
(200,-19,o),
(421,-19,cs),
(493,-19,o),
(560,0,o),
(619,33,c),
(677,0,o),
(745,-19,o),
(817,-19,cs),
(1038,-19,o),
(1218,161,o),
(1218,382,cs),
(1218,603,o),
(1038,783,o),
(817,783,cs)
);
},
{
closed = 1;
nodes = (
(571,240,o),
(541,307,o),
(541,382,cs),
(541,456,o),
(571,524,o),
(619,573,c),
(667,524,o),
(697,456,o),
(697,382,cs),
(697,307,o),
(667,240,o),
(619,190,c)
);
},
{
closed = 1;
nodes = (
(146,534,o),
(269,657,o),
(421,657,cs),
(453,657,o),
(483,652,o),
(512,642,c),
(452,572,o),
(416,481,o),
(416,382,cs),
(416,283,o),
(452,192,o),
(512,122,c),
(483,112,o),
(453,106,o),
(421,106,cs),
(269,106,o),
(146,230,o),
(146,382,cs)
);
},
{
closed = 1;
nodes = (
(785,106,o),
(754,112,o),
(726,122,c),
(786,192,o),
(822,283,o),
(822,382,cs),
(822,481,o),
(786,572,o),
(726,642,c),
(754,652,o),
(785,657,o),
(817,657,cs),
(969,657,o),
(1092,534,o),
(1092,382,cs),
(1092,230,o),
(969,106,o),
(817,106,cs)
);
}
);
width = 1238;
}
);
},
{
color = 4;
glyphname = O_Oacute.dlig;
kernLeft = _O.Alt2_lb;
kernRight = _O.alt2_rb;
lastChange = "2025-05-12 17:01:51 +0000";
layers = (
{
layerId = "A0314109-5958-4499-961C-D1BD7DFF39CC";
shapes = (
{
closed = 1;
nodes = (
(745,783,o),
(677,764,o),
(619,731,c),
(560,764,o),
(493,783,o),
(421,783,cs),
(200,783,o),
(20,603,o),
(20,382,cs),
(20,161,o),
(200,-19,o),
(421,-19,cs),
(493,-19,o),
(560,0,o),
(619,33,c),
(677,0,o),
(745,-19,o),
(817,-19,cs),
(1038,-19,o),
(1218,161,o),
(1218,382,cs),
(1218,603,o),
(1038,783,o),
(817,783,cs)
);
},
{
closed = 1;
nodes = (
(571,240,o),
(541,307,o),
(541,382,cs),
(541,456,o),
(571,524,o),
(619,573,c),
(667,524,o),
(697,456,o),
(697,382,cs),
(697,307,o),
(667,240,o),
(619,190,c)
);
},
{
closed = 1;
nodes = (
(146,534,o),
(269,657,o),
(421,657,cs),
(453,657,o),
(483,652,o),
(512,642,c),
(452,572,o),
(416,481,o),
(416,382,cs),
(416,283,o),
(452,192,o),
(512,122,c),
(483,112,o),
(453,106,o),
(421,106,cs),
(269,106,o),
(146,230,o),
(146,382,cs)
);
},
{
closed = 1;
nodes = (
(785,106,o),
(754,112,o),
(726,122,c),
(786,192,o),
(822,283,o),
(822,382,cs),
(822,481,o),
(786,572,o),
(726,642,c),
(754,652,o),
(785,657,o),
(817,657,cs),
(969,657,o),
(1092,534,o),
(1092,382,cs),
(1092,230,o),
(969,106,o),
(817,106,cs)
);
},
{
alignment = -1;
pos = (830,0);
ref = acute;
}
);
width = 1238;
}
);
},
{
color = 4;
glyphname = Oacute_C.dlig;
kernLeft = _O.Alt2_lb;
kernRight = _O.alt2_rb;
lastChange = "2025-05-12 17:01:51 +0000";
layers = (
{
layerId = "A0314109-5958-4499-961C-D1BD7DFF39CC";
shapes = (
{
closed = 1;
nodes = (
(1099,347,o),
(1064,329,o),
(1053,296,cs),
(1016,182,o),
(911,106,o),
(791,106,cs),
(767,106,o),
(743,109,o),
(720,115,c),
(784,186,o),
(822,280,o),
(822,382,cs),
(822,484,o),
(784,577,o),
(720,648,c),
(743,654,o),
(767,657,o),
(791,657,cs),
(910,657,o),
(1015,581,o),
(1053,468,cs),
(1064,435,o),
(1099,417,o),
(1132,428,cs),
(1165,439,o),
(1183,475,o),
(1172,508,cs),
(1118,672,o),
(965,783,o),
(791,783,cs),
(724,783,o),
(661,766,o),
(606,737,c),
(551,766,o),
(488,783,o),
(421,783,cs),
(200,783,o),
(20,603,o),
(20,382,cs),
(20,161,o),
(200,-19,o),
(421,-19,cs),
(488,-19,o),
(551,-3,o),
(606,26,c),
(661,-3,o),
(724,-19,o),
(791,-19,cs),
(965,-19,o),
(1118,92,o),
(1172,257,cs),
(1183,290,o),
(1165,325,o),
(1132,336,cs)
);
},
{
closed = 1;
nodes = (
(696,301,o),
(661,228,o),
(606,178,c),
(550,228,o),
(516,301,o),
(516,382,cs),
(516,462,o),
(550,535,o),
(606,586,c),
(661,535,o),
(696,462,o),
(696,382,cs)
);
},
{
closed = 1;
nodes = (
(145,534,o),
(269,657,o),
(421,657,cs),
(445,657,o),
(469,654,o),
(491,648,c),
(428,577,o),
(390,484,o),
(390,382,cs),
(390,280,o),
(428,186,o),
(491,115,c),
(469,109,o),
(445,106,o),
(421,106,cs),
(269,106,o),
(145,230,o),
(145,382,cs)
);
},
{
alignment = -1;
pos = (434,0);
ref = acute;
}
);
width = 1196;
}
);
},
{
color = 4;
glyphname = Oacute_C_A.dlig;
kernLeft = _O.Alt2_lb;
lastChange = "2025-05-12 17:01:51 +0000";
layers = (
{
layerId = "A0314109-5958-4499-961C-D1BD7DFF39CC";
shapes = (
{
closed = 1;
nodes = (
(487,-19,o),
(550,-2,o),
(606,26,c),
(661,-2,o),
(724,-19,o),
(791,-19,cs),
(924,-19,o),
(1047,46,o),
(1122,156,c),
(1354,156,l),
(1354,64,ls),
(1354,29,o),
(1382,1,o),
(1417,1,cs),
(1452,1,o),
(1480,29,o),
(1480,64,cs),
(1480,701,ls),
(1480,729,o),
(1462,753,o),
(1435,761,cs),
(1409,769,o),
(1381,759,o),
(1365,736,cs),
(1021,230,ls),
(969,153,o),
(884,107,o),
(791,107,cs),
(767,107,o),
(743,110,o),
(721,116,c),
(784,187,o),
(822,280,o),
(822,382,cs),
(822,484,o),
(783,577,o),
(720,648,c),
(743,654,o),
(766,658,o),
(791,658,cs),
(883,658,o),
(969,612,o),
(1020,536,cs),
(1040,507,o),
(1079,499,o),
(1107,519,c),
(1136,538,o),
(1144,577,o),
(1124,606,cs),
(1050,717,o),
(925,783,o),
(791,783,cs),
(724,783,o),
(661,766,o),
(605,737,c),
(550,766,o),
(487,783,o),
(421,783,cs),
(200,783,o),
(20,603,o),
(20,382,cs),
(20,161,o),
(200,-19,o),
(421,-19,cs)
);
},
{
closed = 1;
nodes = (
(445,658,o),
(469,654,o),
(491,648,c),
(428,577,o),
(390,484,o),
(390,382,cs),
(390,280,o),
(428,187,o),
(491,116,c),
(468,110,o),
(445,107,o),
(421,107,cs),
(269,107,o),
(146,230,o),
(146,382,cs),
(146,534,o),
(269,658,o),
(421,658,cs)
);
},
{
closed = 1;
nodes = (
(516,463,o),
(550,536,o),
(606,586,c),
(662,536,o),
(697,463,o),
(697,382,cs),
(697,301,o),
(662,228,o),
(606,178,c),
(550,228,o),
(516,301,o),
(516,382,cs)
);
},
{
closed = 1;
nodes = (
(1208,281,l),
(1354,497,l),
(1354,281,l)
);
},
{
alignment = -1;
pos = (398,0);
ref = acute;
}
);
width = 1530;
}
);
},
{
color = 4;
glyphname = Oacute_Ccedilla.dlig;
kernLeft = _O.Alt2_lb;
kernRight = _O.alt2_rb;
lastChange = "2025-05-12 17:01:51 +0000";
layers = (
{
layerId = "A0314109-5958-4499-961C-D1BD7DFF39CC";
shapes = (
{
closed = 1;
nodes = (
(487,-19,o),
(550,-2,o),
(605,26,c),
(660,-3,o),
(724,-20,o),
(791,-20,cs),
(965,-20,o),
(1118,91,o),
(1172,256,cs),
(1183,289,o),
(1165,324,o),
(1132,335,cs),
(1099,346,o),
(1064,328,o),
(1053,295,cs),
(1016,182,o),
(910,106,o),
(791,106,cs),
(766,106,o),
(743,109,o),
(720,115,c),
(783,186,o),
(822,280,o),
(822,382,cs),
(822,484,o),
(784,577,o),
(721,648,c),
(743,654,o),
(767,657,o),
(791,657,cs),
(910,657,o),
(1015,581,o),
(1053,468,cs),
(1064,435,o),
(1099,417,o),
(1132,428,cs),
(1165,439,o),
(1183,474,o),
(1172,507,cs),
(1118,672,o),
(965,782,o),
(791,782,cs),
(724,782,o),
(662,765,o),
(607,737,c),
(551,766,o),
(488,783,o),
(421,783,cs),
(200,783,o),
(20,603,o),
(20,382,cs),
(20,161,o),
(200,-19,o),
(421,-19,cs)
);
},
{
closed = 1;
nodes = (
(446,658,o),
(469,654,o),
(492,648,c),
(429,577,o),
(390,483,o),
(390,381,cs),
(390,279,o),
(427,186,o),
(490,116,c),
(468,110,o),
(445,107,o),
(421,107,cs),
(269,107,o),
(146,230,o),
(146,382,cs),
(146,534,o),
(269,658,o),
(421,658,cs)
);
},
{
closed = 1;
nodes = (
(516,462,o),
(551,535,o),
(607,586,c),
(662,535,o),
(697,462,o),
(697,382,cs),
(697,301,o),
(661,228,o),
(605,177,c),
(550,228,o),
(516,300,o),
(516,381,cs)
);
},
{
closed = 1;
nodes = (
(738,-151,ls),
(707,-151,o),
(682,-126,o),
(682,-94,cs),
(682,-63,o),
(707,-38,o),
(738,-38,cs),
(834,-38,ls),
(865,-38,o),
(890,-63,o),
(890,-94,cs),
(890,-126,o),
(865,-151,o),
(834,-151,c)
);
},
{
alignment = -1;
pos = (434,0);
ref = acute;
}
);
width = 1196;
}
);
},
{
color = 4;
glyphname = Ocircumflex_C.dlig;
kernLeft = _O.Alt2_lb;
kernRight = _O.alt2_rb;
lastChange = "2025-05-12 17:01:51 +0000";
layers = (
{
layerId = "A0314109-5958-4499-961C-D1BD7DFF39CC";
shapes = (
{
closed = 1;
nodes = (
(1099,347,o),
(1064,329,o),
(1053,296,cs),
(1016,182,o),
(911,106,o),
(791,106,cs),
(767,106,o),
(743,109,o),
(720,115,c),
(784,186,o),
(822,280,o),
(822,382,cs),
(822,484,o),
(784,577,o),
(720,648,c),
(743,654,o),
(767,657,o),
(791,657,cs),
(910,657,o),
(1015,581,o),
(1053,468,cs),
(1064,435,o),
(1099,417,o),
(1132,428,cs),
(1165,439,o),
(1183,475,o),
(1172,508,cs),
(1118,672,o),
(965,783,o),
(791,783,cs),
(724,783,o),
(661,766,o),
(606,737,c),
(551,766,o),
(488,783,o),
(421,783,cs),
(200,783,o),
(20,603,o),
(20,382,cs),
(20,161,o),
(200,-19,o),
(421,-19,cs),
(488,-19,o),
(551,-3,o),
(606,26,c),
(661,-3,o),
(724,-19,o),
(791,-19,cs),
(965,-19,o),
(1118,92,o),
(1172,257,cs),
(1183,290,o),
(1165,325,o),
(1132,336,cs)
);
},
{
closed = 1;
nodes = (
(696,301,o),
(661,228,o),
(606,178,c),
(550,228,o),
(516,301,o),
(516,382,cs),
(516,462,o),
(550,535,o),
(606,586,c),
(661,535,o),
(696,462,o),
(696,382,cs)
);
},
{
closed = 1;
nodes = (
(145,534,o),
(269,657,o),
(421,657,cs),
(445,657,o),
(469,654,o),
(491,648,c),
(428,577,o),
(390,484,o),
(390,382,cs),
(390,280,o),
(428,186,o),
(491,115,c),
(469,109,o),
(445,106,o),
(421,106,cs),
(269,106,o),
(145,230,o),
(145,382,cs)
);
},
{
alignment = -1;
pos = (222,9);
ref = circumflex;
}
);
width = 1196;
}
);
},
{
color = 4;
glyphname = Ocircumflex_C_A.dlig;
kernLeft = _O.Alt2_lb;
lastChange = "2025-05-12 17:01:51 +0000";
layers = (
{
layerId = "A0314109-5958-4499-961C-D1BD7DFF39CC";
shapes = (
{
closed = 1;
nodes = (
(487,-19,o),
(550,-2,o),
(606,26,c),
(661,-2,o),
(724,-19,o),
(791,-19,cs),
(924,-19,o),
(1047,46,o),
(1122,156,c),
(1354,156,l),
(1354,64,ls),
(1354,29,o),
(1382,1,o),
(1417,1,cs),
(1452,1,o),
(1480,29,o),
(1480,64,cs),
(1480,701,ls),
(1480,729,o),
(1462,753,o),
(1435,761,cs),
(1409,769,o),
(1381,759,o),
(1365,736,cs),
(1021,230,ls),
(969,153,o),
(884,107,o),
(791,107,cs),
(767,107,o),
(743,110,o),
(721,116,c),
(784,187,o),
(822,280,o),
(822,382,cs),
(822,484,o),
(783,577,o),
(720,648,c),
(743,654,o),
(766,658,o),
(791,658,cs),
(883,658,o),
(969,612,o),
(1020,536,cs),
(1040,507,o),
(1079,499,o),
(1107,519,c),
(1136,538,o),
(1144,577,o),
(1124,606,cs),
(1050,717,o),
(925,783,o),
(791,783,cs),
(724,783,o),
(661,766,o),
(605,737,c),
(550,766,o),
(487,783,o),
(421,783,cs),
(200,783,o),
(20,603,o),
(20,382,cs),
(20,161,o),
(200,-19,o),
(421,-19,cs)
);
},
{
closed = 1;
nodes = (
(445,658,o),
(469,654,o),
(491,648,c),
(428,577,o),
(390,484,o),
(390,382,cs),
(390,280,o),
(428,187,o),
(491,116,c),
(468,110,o),
(445,107,o),
(421,107,cs),
(269,107,o),
(146,230,o),
(146,382,cs),
(146,534,o),
(269,658,o),
(421,658,cs)
);
},
{
closed = 1;
nodes = (
(516,463,o),
(550,536,o),
(606,586,c),
(662,536,o),
(697,463,o),
(697,382,cs),
(697,301,o),
(662,228,o),
(606,178,c),
(550,228,o),
(516,301,o),
(516,382,cs)
);
},
{
closed = 1;
nodes = (
(1208,281,l),
(1354,497,l),
(1354,281,l)
);
},
{
alignment = -1;
pos = (235,9);
ref = circumflex;
}
);
width = 1530;
}
);
},
{
color = 4;
glyphname = Ocircumflex_Ccedilla.dlig;
kernLeft = _O.Alt2_lb;
kernRight = _O.alt2_rb;
lastChange = "2025-05-12 18:40:00 +0000";
layers = (
{
layerId = "A0314109-5958-4499-961C-D1BD7DFF39CC";
shapes = (
{
closed = 1;
nodes = (
(487,-19,o),
(550,-2,o),
(605,26,c),
(660,-3,o),
(724,-20,o),
(791,-20,cs),
(965,-20,o),
(1118,91,o),
(1172,256,cs),
(1183,289,o),
(1165,324,o),
(1132,335,cs),
(1099,346,o),
(1064,328,o),
(1053,295,cs),
(1016,182,o),
(910,106,o),
(791,106,cs),
(766,106,o),
(743,109,o),
(720,115,c),
(783,186,o),
(822,280,o),
(822,382,cs),
(822,484,o),
(784,577,o),
(721,648,c),
(743,654,o),
(767,657,o),
(791,657,cs),
(910,657,o),
(1015,581,o),
(1053,468,cs),
(1064,435,o),
(1099,417,o),
(1132,428,cs),
(1165,439,o),
(1183,474,o),
(1172,507,cs),
(1118,672,o),
(965,782,o),
(791,782,cs),
(724,782,o),
(662,765,o),
(607,737,c),
(551,766,o),
(488,783,o),
(421,783,cs),
(200,783,o),
(20,603,o),
(20,382,cs),
(20,161,o),
(200,-19,o),
(421,-19,cs)
);
},
{
closed = 1;
nodes = (
(446,658,o),
(469,654,o),
(492,648,c),
(429,577,o),
(390,483,o),
(390,381,cs),
(390,279,o),
(427,186,o),
(490,116,c),
(468,110,o),
(445,107,o),
(421,107,cs),
(269,107,o),
(146,230,o),
(146,382,cs),
(146,534,o),
(269,658,o),
(421,658,cs)
);
},
{
closed = 1;
nodes = (
(516,462,o),
(551,535,o),
(607,586,c),
(662,535,o),
(697,462,o),
(697,382,cs),
(697,301,o),
(661,228,o),
(605,177,c),
(550,228,o),
(516,300,o),
(516,381,cs)
);
},
{
closed = 1;
nodes = (
(738,-151,ls),
(707,-151,o),
(682,-126,o),
(682,-94,cs),
(682,-63,o),
(707,-38,o),
(738,-38,cs),
(834,-38,ls),
(865,-38,o),
(890,-63,o),
(890,-94,cs),
(890,-126,o),
(865,-151,o),
(834,-151,c)
);
},
{
alignment = -1;
pos = (222,9);
ref = circumflex;
}
);
width = 1196;
}
);
},
{
color = 4;
glyphname = Ocircumflex_O.dlig;
kernLeft = _O.Alt2_lb;
kernRight = _O.alt2_rb;
lastChange = "2025-05-12 18:40:00 +0000";
layers = (
{
layerId = "A0314109-5958-4499-961C-D1BD7DFF39CC";
shapes = (
{
closed = 1;
nodes = (
(745,783,o),
(677,764,o),
(619,731,c),
(560,764,o),
(493,783,o),
(421,783,cs),
(200,783,o),
(20,603,o),
(20,382,cs),
(20,161,o),
(200,-19,o),
(421,-19,cs),
(493,-19,o),
(560,0,o),
(619,33,c),
(677,0,o),
(745,-19,o),
(817,-19,cs),
(1038,-19,o),
(1218,161,o),
(1218,382,cs),
(1218,603,o),
(1038,783,o),
(817,783,cs)
);
},
{
closed = 1;
nodes = (
(571,240,o),
(541,307,o),
(541,382,cs),
(541,456,o),
(571,524,o),
(619,573,c),
(667,524,o),
(697,456,o),
(697,382,cs),
(697,307,o),
(667,240,o),
(619,190,c)
);
},
{
closed = 1;
nodes = (
(146,534,o),
(269,657,o),
(421,657,cs),
(453,657,o),
(483,652,o),
(512,642,c),
(452,572,o),
(416,481,o),
(416,382,cs),
(416,283,o),
(452,192,o),
(512,122,c),
(483,112,o),
(453,106,o),
(421,106,cs),
(269,106,o),
(146,230,o),
(146,382,cs)
);
},
{
closed = 1;
nodes = (
(785,106,o),
(754,112,o),
(726,122,c),
(786,192,o),
(822,283,o),
(822,382,cs),
(822,481,o),
(786,572,o),
(726,642,c),
(754,652,o),
(785,657,o),
(817,657,cs),
(969,657,o),
(1092,534,o),
(1092,382,cs),
(1092,230,o),
(969,106,o),
(817,106,cs)
);
},
{
alignment = -1;
pos = (222,9);
ref = circumflex;
}
);
width = 1238;
}
);
},
{
color = 4;
glyphname = R_A.dlig;
lastChange = "2025-05-12 18:40:00 +0000";
layers = (
{
layerId = "A0314109-5958-4499-961C-D1BD7DFF39CC";
shapes = (
{
closed = 1;
nodes = (
(854,769,o),
(825,759,o),
(810,736,cs),
(477,247,l),
(462,288,o),
(437,324,o),
(403,351,c),
(445,395,o),
(471,455,o),
(471,520,cs),
(471,655,o),
(361,764,o),
(227,764,cs),
(102,764,ls),
(68,764,o),
(40,736,o),
(40,701,cs),
(40,64,ls),
(40,29,o),
(68,1,o),
(102,1,cs),
(137,1,o),
(165,29,o),
(165,64,cs),
(165,639,l),
(227,639,ls),
(292,639,o),
(345,585,o),
(345,520,cs),
(345,462,o),
(304,413,o),
(248,403,cs),
(216,398,o),
(193,369,o),
(195,337,cs),
(198,305,o),
(224,280,o),
(256,279,cs),
(317,277,o),
(366,227,o),
(366,165,cs),
(366,64,ls),
(366,36,o),
(384,12,o),
(410,4,cs),
(416,2,o),
(422,1,o),
(428,1,cs),
(449,1,o),
(468,11,o),
(480,28,cs),
(567,156,l),
(799,156,l),
(799,64,ls),
(799,29,o),
(827,1,o),
(862,1,cs),
(896,1,o),
(924,29,o),
(924,64,cs),
(924,701,ls),
(924,729,o),
(906,753,o),
(880,761,cs)
);
},
{
closed = 1;
nodes = (
(652,281,l),
(799,497,l),
(799,281,l)
);
}
);
width = 974;
}
);
},
{
color = 4;
glyphname = R_Aacute.dlig;
lastChange = "2025-05-12 18:40:00 +0000";
layers = (
{
layerId = "A0314109-5958-4499-961C-D1BD7DFF39CC";
shapes = (
{
closed = 1;
nodes = (
(854,769,o),
(825,759,o),
(810,736,cs),
(477,247,l),
(462,288,o),
(437,324,o),
(403,351,c),
(445,395,o),
(471,455,o),
(471,520,cs),
(471,655,o),
(361,764,o),
(227,764,cs),
(102,764,ls),
(68,764,o),
(40,736,o),
(40,701,cs),
(40,64,ls),
(40,29,o),
(68,1,o),
(102,1,cs),
(137,1,o),
(165,29,o),
(165,64,cs),
(165,639,l),
(227,639,ls),
(292,639,o),
(345,585,o),
(345,520,cs),
(345,462,o),
(304,413,o),
(248,403,cs),
(216,398,o),
(193,369,o),
(195,337,cs),
(198,305,o),
(224,280,o),
(256,279,cs),
(317,277,o),
(366,227,o),
(366,165,cs),
(366,64,ls),
(366,36,o),
(384,12,o),
(410,4,cs),
(416,2,o),
(422,1,o),
(428,1,cs),
(449,1,o),
(468,11,o),
(480,28,cs),
(567,156,l),
(799,156,l),
(799,64,ls),
(799,29,o),
(827,1,o),
(862,1,cs),
(896,1,o),
(924,29,o),
(924,64,cs),
(924,701,ls),
(924,729,o),
(906,753,o),
(880,761,cs)
);
},
{
closed = 1;
nodes = (
(652,281,l),
(799,497,l),
(799,281,l)
);
},
{
alignment = -1;
pos = (824,0);
ref = acute;
}
);
width = 975;
}
);
},
{
color = 4;
glyphname = R_Acircumflex.dlig;
lastChange = "2025-05-12 18:40:00 +0000";
layers = (
{
layerId = "A0314109-5958-4499-961C-D1BD7DFF39CC";
shapes = (
{
closed = 1;
nodes = (
(854,769,o),
(825,759,o),
(810,736,cs),
(477,247,l),
(462,288,o),
(437,324,o),
(403,351,c),
(445,395,o),
(471,455,o),
(471,520,cs),
(471,655,o),
(361,764,o),
(227,764,cs),
(102,764,ls),
(68,764,o),
(40,736,o),
(40,701,cs),
(40,64,ls),
(40,29,o),
(68,1,o),
(102,1,cs),
(137,1,o),
(165,29,o),
(165,64,cs),
(165,639,l),
(227,639,ls),
(292,639,o),
(345,585,o),
(345,520,cs),
(345,462,o),
(304,413,o),
(248,403,cs),
(216,398,o),
(193,369,o),
(195,337,cs),
(198,305,o),
(224,280,o),
(256,279,cs),
(317,277,o),
(366,227,o),
(366,165,cs),
(366,64,ls),
(366,36,o),
(384,12,o),
(410,4,cs),
(416,2,o),
(422,1,o),
(428,1,cs),
(449,1,o),
(468,11,o),
(480,28,cs),
(567,156,l),
(799,156,l),
(799,64,ls),
(799,29,o),
(827,1,o),
(862,1,cs),
(896,1,o),
(924,29,o),
(924,64,cs),
(924,701,ls),
(924,729,o),
(906,753,o),
(880,761,cs)
);
},
{
closed = 1;
nodes = (
(652,281,l),
(799,497,l),
(799,281,l)
);
},
{
alignment = -1;
pos = (670,-23);
ref = circumflex;
}
);
width = 975;
}
);
},
{
color = 4;
glyphname = R_Atilde.dlig;
lastChange = "2025-05-12 18:40:00 +0000";
layers = (
{
layerId = "A0314109-5958-4499-961C-D1BD7DFF39CC";
shapes = (
{
closed = 1;
nodes = (
(854,769,o),
(825,759,o),
(810,736,cs),
(477,247,l),
(462,288,o),
(437,324,o),
(403,351,c),
(445,395,o),
(471,455,o),
(471,520,cs),
(471,655,o),
(361,764,o),
(227,764,cs),
(102,764,ls),
(68,764,o),
(40,736,o),
(40,701,cs),
(40,64,ls),
(40,29,o),
(68,1,o),
(102,1,cs),
(137,1,o),
(165,29,o),
(165,64,cs),
(165,639,l),
(227,639,ls),
(292,639,o),
(345,585,o),
(345,520,cs),
(345,462,o),
(304,413,o),
(248,403,cs),
(216,398,o),
(193,369,o),
(195,337,cs),
(198,305,o),
(224,280,o),
(256,279,cs),
(317,277,o),
(366,227,o),
(366,165,cs),
(366,64,ls),
(366,36,o),
(384,12,o),
(410,4,cs),
(416,2,o),
(422,1,o),
(428,1,cs),
(449,1,o),
(468,11,o),
(480,28,cs),
(567,156,l),
(799,156,l),
(799,64,ls),
(799,29,o),
(827,1,o),
(862,1,cs),
(896,1,o),
(924,29,o),
(924,64,cs),
(924,701,ls),
(924,729,o),
(906,753,o),
(880,761,cs)
);
},
{
closed = 1;
nodes = (
(652,281,l),
(799,497,l),
(799,281,l)
);
},
{
alignment = -1;
pos = (672,-5);
ref = tilde;
}
);
width = 975;
}
);
},
{
color = 4;
glyphname = R_S.dlig;
kernRight = _S_rb;
lastChange = "2025-05-12 18:40:00 +0000";
layers = (
{
layerId = "A0314109-5958-4499-961C-D1BD7DFF39CC";
shapes = (
{
closed = 1;
nodes = (
(670,482,o),
(628,510,o),
(628,558,cs),
(628,602,o),
(663,637,o),
(707,637,cs),
(824,637,ls),
(859,637,o),
(887,666,o),
(887,700,cs),
(887,735,o),
(859,763,o),
(824,763,cs),
(707,763,ls),
(594,763,o),
(502,671,o),
(502,558,cs),
(502,450,o),
(588,362,o),
(702,353,cs),
(760,349,o),
(821,307,o),
(821,239,cs),
(821,176,o),
(770,125,o),
(707,125,cs),
(491,125,l),
(491,164,ls),
(491,239,o),
(457,306,o),
(403,350,c),
(446,394,o),
(471,454,o),
(471,519,cs),
(471,653,o),
(361,763,o),
(227,763,cs),
(103,763,ls),
(68,763,o),
(40,735,o),
(40,700,cs),
(40,63,ls),
(40,28,o),
(68,0,o),
(103,0,cs),
(137,0,o),
(165,28,o),
(165,63,cs),
(165,637,l),
(227,637,ls),
(292,637,o),
(345,584,o),
(345,519,cs),
(345,461,o),
(304,412,o),
(248,402,cs),
(216,397,o),
(194,368,o),
(196,336,cs),
(198,304,o),
(224,279,o),
(256,277,c),
(318,275,o),
(366,226,o),
(366,164,cs),
(366,63,ls),
(366,28,o),
(394,0,o),
(429,0,cs),
(707,0,ls),
(839,0,o),
(946,107,o),
(946,239,cs),
(946,365,o),
(845,468,o),
(712,478,c)
);
}
);
width = 986;
}
);
},
{
color = 4;
glyphname = S_P.dlig;
kernLeft = _E_lb;
kernRight = _P_rb;
lastChange = "2025-05-12 18:40:00 +0000";
layers = (
{
layerId = "A0314109-5958-4499-961C-D1BD7DFF39CC";
shapes = (
{
closed = 1;
nodes = (
(580,763,l),
(580,763,o),
(579,763,o),
(578,763,c),
(245,763,ls),
(132,763,o),
(40,671,o),
(40,558,cs),
(40,450,o),
(126,362,o),
(240,353,cs),
(297,349,o),
(359,307,o),
(359,239,cs),
(359,176,o),
(307,125,o),
(245,125,cs),
(128,125,ls),
(93,125,o),
(65,97,o),
(65,63,cs),
(65,28,o),
(93,0,o),
(128,0,cs),
(245,0,ls),
(377,0,o),
(484,107,o),
(484,239,cs),
(484,365,o),
(383,468,o),
(250,478,c),
(208,482,o),
(165,510,o),
(165,558,cs),
(165,602,o),
(201,637,o),
(245,637,cs),
(515,637,l),
(515,63,ls),
(515,28,o),
(544,0,o),
(578,0,cs),
(613,0,o),
(641,28,o),
(641,63,cs),
(641,637,l),
(702,637,ls),
(768,637,o),
(821,584,o),
(821,519,cs),
(821,461,o),
(780,412,o),
(723,402,cs),
(689,396,o),
(666,364,o),
(672,330,cs),
(678,295,o),
(710,272,o),
(745,278,cs),
(862,298,o),
(947,400,o),
(947,519,cs),
(947,653,o),
(837,763,o),
(702,763,c)
);
}
);
width = 975;
}
);
},
{
color = 4;
glyphname = S_S.dlig;
kernLeft = _S.alt1;
kernRight = _S.alt1;
lastChange = "2025-05-12 18:40:00 +0000";
layers = (
{
associatedMasterId = "A0314109-5958-4499-961C-D1BD7DFF39CC";
layerId = "CBBA6767-88C8-4E58-9307-4A223333FA36";
name = img;
width = 943;
},
{
layerId = "A0314109-5958-4499-961C-D1BD7DFF39CC";
shapes = (
{
closed = 1;
nodes = (
(626,490,o),
(569,515,o),
(568,567,cs),
(567,616,o),
(606,656,o),
(655,657,cs),
(696,658,o),
(733,629,o),
(742,589,cs),
(750,555,o),
(784,534,o),
(818,542,cs),
(851,549,o),
(872,583,o),
(865,617,c),
(842,713,o),
(755,783,o),
(656,783,cs),
(655,783,o),
(654,783,o),
(652,783,cs),
(573,781,o),
(505,737,o),
(469,673,c),
(432,739,o),
(361,783,o),
(282,783,cs),
(281,783,o),
(280,783,o),
(279,783,cs),
(161,781,o),
(66,683,o),
(68,565,cs),
(70,463,o),
(144,387,o),
(270,357,cs),
(334,341,o),
(411,307,o),
(412,233,c),
(412,232,o),
(412,231,o),
(412,230,cs),
(412,229,o),
(412,228,o),
(412,228,c),
(412,196,o),
(399,167,o),
(378,144,c),
(354,121,o),
(324,107,o),
(290,107,cs),
(290,107,o),
(289,107,o),
(288,107,cs),
(221,107,o),
(165,161,o),
(164,229,cs),
(164,234,o),
(164,240,o),
(165,246,cs),
(169,280,o),
(145,312,o),
(110,316,cs),
(76,320,o),
(45,296,o),
(40,261,cs),
(39,250,o),
(38,238,o),
(38,226,cs),
(41,90,o),
(152,-19,o),
(288,-19,cs),
(290,-19,o),
(291,-19,o),
(293,-19,cs),
(359,-18,o),
(422,9,o),
(468,57,cs),
(470,60,o),
(473,63,o),
(475,65,c),
(521,14,o),
(588,-19,o),
(662,-19,cs),
(663,-19,o),
(665,-19,o),
(666,-19,cs),
(733,-18,o),
(795,9,o),
(842,57,cs),
(888,105,o),
(913,168,o),
(912,235,cs),
(910,354,o),
(823,443,o),
(673,479,cs)
);
},
{
closed = 1;
nodes = (
(728,121,o),
(697,107,o),
(664,107,cs),
(664,107,o),
(663,107,o),
(662,107,cs),
(595,107,o),
(540,160,o),
(538,227,cs),
(538,230,o),
(538,232,o),
(538,235,cs),
(536,354,o),
(449,443,o),
(300,479,cs),
(252,490,o),
(195,515,o),
(194,567,cs),
(193,616,o),
(232,656,o),
(281,657,c),
(281,657,o),
(282,657,o),
(282,657,c),
(323,657,o),
(359,629,o),
(368,589,cs),
(376,555,o),
(410,534,o),
(444,542,c),
(444,542,o),
(444,542,o),
(444,542,c),
(456,451,o),
(527,385,o),
(644,357,cs),
(708,341,o),
(785,307,o),
(786,233,cs),
(787,200,o),
(774,168,o),
(751,144,cs)
);
}
);
width = 943;
}
);
},
